<svg width="640" height="354" viewBox="0 0 640 354" fill="none" xmlns="http://www.w3.org/2000/svg">
<g filter="url(#filter0_d)">
<rect x="2" y="2" width="628" height="342" rx="6" fill="white"/>
<path d="M37.9894 277.673C41.8246 277.673 44.842 278.59 47.0416 280.423C49.2412 282.256 50.341 284.78 50.341 287.995C50.341 291.209 49.2412 293.733 47.0416 295.566C44.842 297.399 41.8246 298.316 37.9894 298.316H30.6715V307.283H26.4415V277.673H37.9894ZM37.8625 294.636C40.5415 294.636 42.586 294.072 43.996 292.944C45.406 291.787 46.111 290.138 46.111 287.995C46.111 285.851 45.406 284.216 43.996 283.088C42.586 281.932 40.5415 281.353 37.8625 281.353H30.6715V294.636H37.8625ZM54.957 284.864H59.0178V307.283H54.957V284.864ZM56.9874 280.55C56.1978 280.55 55.5351 280.296 54.9993 279.788C54.4917 279.281 54.2379 278.66 54.2379 277.927C54.2379 277.194 54.4917 276.574 54.9993 276.066C55.5351 275.53 56.1978 275.262 56.9874 275.262C57.777 275.262 58.4256 275.516 58.9332 276.024C59.469 276.503 59.7369 277.109 59.7369 277.843C59.7369 278.604 59.469 279.253 58.9332 279.788C58.4256 280.296 57.777 280.55 56.9874 280.55ZM75.908 307.537C73.6238 307.537 71.5793 307.044 69.7745 306.057C67.9979 305.07 66.602 303.716 65.5868 301.996C64.5716 300.247 64.064 298.273 64.064 296.074C64.064 293.874 64.5716 291.914 65.5868 290.194C66.602 288.446 67.9979 287.092 69.7745 286.133C71.5793 285.146 73.6238 284.653 75.908 284.653C77.9384 284.653 79.7432 285.062 81.3224 285.88C82.9298 286.697 84.1706 287.882 85.0448 289.433L81.9569 291.421C81.2519 290.349 80.3777 289.546 79.3343 289.01C78.2909 288.474 77.1347 288.206 75.8657 288.206C74.3993 288.206 73.0739 288.53 71.8895 289.179C70.7333 289.828 69.8168 290.758 69.14 291.971C68.4914 293.155 68.1671 294.523 68.1671 296.074C68.1671 297.653 68.4914 299.049 69.14 300.262C69.8168 301.446 70.7333 302.362 71.8895 303.011C73.0739 303.66 74.3993 303.984 75.8657 303.984C77.1347 303.984 78.2909 303.716 79.3343 303.18C80.3777 302.644 81.2519 301.841 81.9569 300.769L85.0448 302.715C84.1706 304.266 82.9298 305.464 81.3224 306.31C79.7432 307.128 77.9384 307.537 75.908 307.537ZM98.0924 296.835L93.4394 301.15V307.283H89.3786V275.897H93.4394V296.032L105.664 284.864H110.571L101.138 294.128L111.502 307.283H106.51L98.0924 296.835ZM135.293 284.864V307.283H131.444V303.899C130.626 305.056 129.54 305.958 128.187 306.607C126.861 307.227 125.409 307.537 123.83 307.537C120.84 307.537 118.486 306.719 116.766 305.084C115.045 303.42 114.185 300.981 114.185 297.766V284.864H118.246V297.301C118.246 299.472 118.768 301.122 119.811 302.25C120.855 303.349 122.349 303.899 124.295 303.899C126.438 303.899 128.13 303.251 129.371 301.954C130.612 300.656 131.232 298.823 131.232 296.455V284.864H135.293ZM154.275 284.653C156.447 284.653 158.393 285.132 160.113 286.091C161.833 287.05 163.173 288.389 164.131 290.11C165.118 291.83 165.612 293.818 165.612 296.074C165.612 298.33 165.118 300.332 164.131 302.08C163.173 303.801 161.833 305.14 160.113 306.099C158.393 307.058 156.447 307.537 154.275 307.537C152.668 307.537 151.188 307.227 149.834 306.607C148.509 305.986 147.381 305.084 146.45 303.899V315.49H142.389V284.864H146.281V288.418C147.183 287.177 148.325 286.246 149.707 285.626C151.089 284.977 152.612 284.653 154.275 284.653ZM153.937 303.984C155.375 303.984 156.658 303.66 157.786 303.011C158.943 302.334 159.845 301.404 160.494 300.219C161.17 299.007 161.509 297.625 161.509 296.074C161.509 294.523 161.17 293.155 160.494 291.971C159.845 290.758 158.943 289.828 157.786 289.179C156.658 288.53 155.375 288.206 153.937 288.206C152.527 288.206 151.244 288.544 150.088 289.221C148.96 289.87 148.057 290.786 147.381 291.971C146.732 293.155 146.408 294.523 146.408 296.074C146.408 297.625 146.732 299.007 147.381 300.219C148.029 301.404 148.932 302.334 150.088 303.011C151.244 303.66 152.527 303.984 153.937 303.984ZM183.884 313.103C182.744 311.263 181.864 309.153 181.244 306.773C180.624 304.373 180.314 301.803 180.314 299.063C180.314 296.323 180.624 293.753 181.244 291.353C181.864 288.933 182.744 286.823 183.884 285.023H186.614C185.414 287.123 184.534 289.323 183.974 291.623C183.414 293.923 183.134 296.403 183.134 299.063C183.134 301.723 183.414 304.203 183.974 306.503C184.534 308.803 185.414 311.003 186.614 313.103H183.884ZM203.321 304.673V307.283H188.231V305.243L196.781 296.993C197.821 295.993 198.521 295.133 198.881 294.413C199.241 293.673 199.421 292.933 199.421 292.193C199.421 291.093 199.031 290.243 198.251 289.643C197.491 289.023 196.391 288.713 194.951 288.713C192.631 288.713 190.841 289.473 189.581 290.993L187.541 289.223C188.361 288.223 189.431 287.443 190.751 286.883C192.091 286.323 193.581 286.043 195.221 286.043C197.421 286.043 199.171 286.573 200.471 287.633C201.771 288.673 202.421 290.093 202.421 291.893C202.421 293.013 202.181 294.073 201.701 295.073C201.221 296.073 200.311 297.213 198.971 298.493L192.551 304.673H203.321ZM207.641 303.353C208.201 303.353 208.661 303.553 209.021 303.953C209.401 304.333 209.591 304.813 209.591 305.393C209.591 305.693 209.551 305.983 209.471 306.263C209.411 306.543 209.281 306.973 209.081 307.553L207.671 311.723H205.781L206.891 307.253C206.511 307.113 206.201 306.883 205.961 306.563C205.741 306.223 205.631 305.833 205.631 305.393C205.631 304.793 205.821 304.303 206.201 303.923C206.581 303.543 207.061 303.353 207.641 303.353ZM220.311 295.103C222.371 295.303 223.941 295.943 225.021 297.023C226.101 298.083 226.641 299.443 226.641 301.103C226.641 302.303 226.341 303.393 225.741 304.373C225.141 305.333 224.241 306.103 223.041 306.683C221.861 307.243 220.411 307.523 218.691 307.523C217.191 307.523 215.751 307.303 214.371 306.863C212.991 306.403 211.861 305.773 210.981 304.973L212.361 302.603C213.081 303.283 214.001 303.833 215.121 304.253C216.241 304.653 217.431 304.853 218.691 304.853C220.251 304.853 221.461 304.523 222.321 303.863C223.201 303.203 223.641 302.293 223.641 301.133C223.641 299.973 223.211 299.073 222.351 298.433C221.491 297.793 220.191 297.473 218.451 297.473H216.771V295.373L222.051 288.893H211.941V286.283H225.801V288.323L220.311 295.103ZM230.999 303.353C231.559 303.353 232.019 303.553 232.379 303.953C232.759 304.333 232.949 304.813 232.949 305.393C232.949 305.693 232.909 305.983 232.829 306.263C232.769 306.543 232.639 306.973 232.439 307.553L231.029 311.723H229.139L230.249 307.253C229.869 307.113 229.559 306.883 229.319 306.563C229.099 306.223 228.989 305.833 228.989 305.393C228.989 304.793 229.179 304.303 229.559 303.923C229.939 303.543 230.419 303.353 230.999 303.353ZM253.342 302.123H249.352V307.283H246.442V302.123H234.772V300.023L245.512 286.283H248.752L238.462 299.543H246.532V294.983H249.352V299.543H253.342V302.123ZM268.177 288.893H260.977V286.283H278.347V288.893H271.147V307.283H268.177V288.893ZM285.914 307.463C284.334 307.463 282.914 307.113 281.654 306.413C280.394 305.713 279.404 304.753 278.684 303.533C277.984 302.293 277.634 300.893 277.634 299.333C277.634 297.773 277.984 296.383 278.684 295.163C279.404 293.923 280.394 292.963 281.654 292.283C282.914 291.583 284.334 291.233 285.914 291.233C287.494 291.233 288.904 291.583 290.144 292.283C291.404 292.963 292.384 293.923 293.084 295.163C293.804 296.383 294.164 297.773 294.164 299.333C294.164 300.893 293.804 302.293 293.084 303.533C292.384 304.753 291.404 305.713 290.144 306.413C288.904 307.113 287.494 307.463 285.914 307.463ZM285.914 304.943C286.934 304.943 287.844 304.713 288.644 304.253C289.464 303.773 290.104 303.113 290.564 302.273C291.024 301.413 291.254 300.433 291.254 299.333C291.254 298.233 291.024 297.263 290.564 296.423C290.104 295.563 289.464 294.903 288.644 294.443C287.844 293.983 286.934 293.753 285.914 293.753C284.894 293.753 283.974 293.983 283.154 294.443C282.354 294.903 281.714 295.563 281.234 296.423C280.774 297.263 280.544 298.233 280.544 299.333C280.544 300.433 280.774 301.413 281.234 302.273C281.714 303.113 282.354 303.773 283.154 304.253C283.974 304.713 284.894 304.943 285.914 304.943ZM306.187 291.233C308.207 291.233 309.807 291.823 310.987 293.003C312.187 294.163 312.787 295.873 312.787 298.133V307.283H309.907V298.463C309.907 296.923 309.537 295.763 308.797 294.983C308.057 294.203 306.997 293.813 305.617 293.813C304.057 293.813 302.827 294.273 301.927 295.193C301.027 296.093 300.577 297.393 300.577 299.093V307.283H297.697V291.383H300.457V293.783C301.037 292.963 301.817 292.333 302.797 291.893C303.797 291.453 304.927 291.233 306.187 291.233ZM315.897 313.103C317.097 311.003 317.977 308.803 318.537 306.503C319.117 304.203 319.407 301.723 319.407 299.063C319.407 296.403 319.117 293.923 318.537 291.623C317.977 289.323 317.097 287.123 315.897 285.023H318.627C319.787 286.823 320.677 288.923 321.297 291.323C321.917 293.723 322.227 296.303 322.227 299.063C322.227 301.803 321.917 304.373 321.297 306.773C320.677 309.173 319.787 311.283 318.627 313.103H315.897Z" fill="#737577"/>
<ellipse opacity="0.5" cx="307.087" cy="233.697" rx="193.524" ry="5.30258" fill="#403F45" fill-opacity="0.72"/>
<path d="M106.329 184.248H121.045C121.135 184.248 121.209 184.321 121.209 184.412V205.129C121.209 205.22 121.135 205.294 121.045 205.294H106.329C106.238 205.294 106.164 205.22 106.164 205.129V184.412C106.164 184.321 106.238 184.248 106.329 184.248Z" fill="#B8B8B8" stroke="black" stroke-width="0.328842"/>
<mask id="path-7-inside-1" fill="white">
<path fill-rule="evenodd" clip-rule="evenodd" d="M147.109 73.4025C147.456 72.8588 148.061 72.5236 148.706 72.5236H230.927C231.971 72.5236 232.818 73.3702 232.818 74.4145V172.149H219.504V84.3151C219.504 83.2708 218.657 82.4243 217.613 82.4243H147.906C147.204 82.4243 146.556 82.8216 146.229 83.4423C131.285 111.819 123.881 127.718 121.353 146.779L121.353 184.27C121.303 184.239 121.244 184.222 121.181 184.222H109.587V159.119C109.587 158.937 109.614 158.753 109.666 158.579C121.34 119.133 129.79 100.574 147.109 73.4025ZM121.51 205.482H166.559C166.558 205.406 166.558 205.33 166.558 205.255C166.558 187.074 181.224 172.317 199.378 172.151V172.149H199.688H219.422V84.3151C219.422 83.3162 218.612 82.5065 217.613 82.5065H147.906C147.235 82.5065 146.614 82.8865 146.302 83.4806C131.359 111.856 123.962 127.742 121.435 146.784L121.435 184.341C121.482 184.398 121.51 184.471 121.51 184.55V205.482ZM150.214 86.1188C149.591 86.1302 149.013 86.4479 148.673 86.97C138.77 102.192 132.46 118.167 130.332 127.028L125.516 142.185C125.059 143.622 126.386 144.989 127.836 144.576L216.419 119.327C216.595 119.277 216.717 119.116 216.717 118.932V86.8253C216.717 85.7675 215.849 84.9154 214.792 84.9348L150.214 86.1188Z"/>
</mask>
<path fill-rule="evenodd" clip-rule="evenodd" d="M147.109 73.4025C147.456 72.8588 148.061 72.5236 148.706 72.5236H230.927C231.971 72.5236 232.818 73.3702 232.818 74.4145V172.149H219.504V84.3151C219.504 83.2708 218.657 82.4243 217.613 82.4243H147.906C147.204 82.4243 146.556 82.8216 146.229 83.4423C131.285 111.819 123.881 127.718 121.353 146.779L121.353 184.27C121.303 184.239 121.244 184.222 121.181 184.222H109.587V159.119C109.587 158.937 109.614 158.753 109.666 158.579C121.34 119.133 129.79 100.574 147.109 73.4025ZM121.51 205.482H166.559C166.558 205.406 166.558 205.33 166.558 205.255C166.558 187.074 181.224 172.317 199.378 172.151V172.149H199.688H219.422V84.3151C219.422 83.3162 218.612 82.5065 217.613 82.5065H147.906C147.235 82.5065 146.614 82.8865 146.302 83.4806C131.359 111.856 123.962 127.742 121.435 146.784L121.435 184.341C121.482 184.398 121.51 184.471 121.51 184.55V205.482ZM150.214 86.1188C149.591 86.1302 149.013 86.4479 148.673 86.97C138.77 102.192 132.46 118.167 130.332 127.028L125.516 142.185C125.059 143.622 126.386 144.989 127.836 144.576L216.419 119.327C216.595 119.277 216.717 119.116 216.717 118.932V86.8253C216.717 85.7675 215.849 84.9154 214.792 84.9348L150.214 86.1188Z" fill="#FFF3DC"/>
<path d="M147.109 73.4025L147.387 73.5792L147.387 73.5792L147.109 73.4025ZM232.818 172.149V172.478H233.147V172.149H232.818ZM219.504 172.149H219.175V172.478H219.504V172.149ZM146.229 83.4423L145.938 83.289L145.938 83.289L146.229 83.4423ZM121.353 146.779L121.027 146.735L121.024 146.757L121.024 146.779L121.353 146.779ZM121.353 184.27L121.181 184.55L121.682 184.856L121.682 184.27L121.353 184.27ZM109.587 184.222H109.258V184.55H109.587V184.222ZM109.666 158.579L109.981 158.672L109.981 158.672L109.666 158.579ZM121.51 205.482H121.181V205.811H121.51V205.482ZM166.559 205.482V205.811H166.89L166.888 205.48L166.559 205.482ZM199.378 172.151L199.381 172.48L199.707 172.477V172.151H199.378ZM199.378 172.149V171.82H199.05V172.149H199.378ZM219.422 172.149V172.478H219.751V172.149H219.422ZM146.302 83.4806L146.011 83.3273L146.011 83.3273L146.302 83.4806ZM121.435 146.784L121.109 146.741L121.106 146.762L121.106 146.784L121.435 146.784ZM121.435 184.341L121.106 184.341L121.106 184.459L121.182 184.551L121.435 184.341ZM148.673 86.97L148.397 86.7906L148.397 86.7906L148.673 86.97ZM150.214 86.1188L150.208 85.79L150.208 85.79L150.214 86.1188ZM130.332 127.028L130.645 127.127L130.649 127.116L130.652 127.104L130.332 127.028ZM125.516 142.185L125.829 142.284L125.829 142.284L125.516 142.185ZM127.836 144.576L127.746 144.26L127.746 144.26L127.836 144.576ZM216.419 119.327L216.329 119.011L216.329 119.011L216.419 119.327ZM214.792 84.9348L214.786 84.606L214.786 84.606L214.792 84.9348ZM148.706 72.1948C147.947 72.1948 147.238 72.5883 146.832 73.2257L147.387 73.5792C147.674 73.1293 148.174 72.8525 148.706 72.8525V72.1948ZM230.927 72.1948H148.706V72.8525H230.927V72.1948ZM233.147 74.4145C233.147 73.1886 232.153 72.1948 230.927 72.1948V72.8525C231.79 72.8525 232.489 73.5518 232.489 74.4145H233.147ZM233.147 172.149V74.4145H232.489V172.149H233.147ZM219.504 172.478H232.818V171.82H219.504V172.478ZM219.175 84.3151V172.149H219.833V84.3151H219.175ZM217.613 82.7531C218.476 82.7531 219.175 83.4525 219.175 84.3151H219.833C219.833 83.0892 218.839 82.0954 217.613 82.0954V82.7531ZM147.906 82.7531H217.613V82.0954H147.906V82.7531ZM146.52 83.5955C146.791 83.0812 147.328 82.7531 147.906 82.7531V82.0954C147.08 82.0954 146.321 82.562 145.938 83.289L146.52 83.5955ZM121.679 146.822C124.199 127.827 131.574 111.976 146.52 83.5955L145.938 83.289C130.996 111.662 123.564 127.609 121.027 146.735L121.679 146.822ZM121.682 184.27L121.682 146.779L121.024 146.779L121.024 184.27L121.682 184.27ZM121.181 184.55L121.181 184.55L121.524 183.989C121.424 183.928 121.306 183.893 121.181 183.893V184.55ZM109.587 184.55H121.181V183.893H109.587V184.55ZM109.258 159.119V184.222H109.916V159.119H109.258ZM109.35 158.486C109.29 158.689 109.258 158.905 109.258 159.119H109.916C109.916 158.97 109.938 158.817 109.981 158.672L109.35 158.486ZM146.832 73.2257C129.494 100.427 121.032 119.015 109.35 158.486L109.981 158.672C121.648 119.251 130.086 100.721 147.387 73.5792L146.832 73.2257ZM121.51 205.811H166.559V205.153H121.51V205.811ZM166.888 205.48C166.887 205.405 166.887 205.33 166.887 205.255H166.229C166.229 205.331 166.23 205.408 166.23 205.484L166.888 205.48ZM166.887 205.255C166.887 187.255 181.407 172.644 199.381 172.48L199.375 171.822C181.041 171.99 166.229 186.893 166.229 205.255H166.887ZM199.707 172.151V172.149H199.05V172.151H199.707ZM199.378 172.478H199.688V171.82H199.378V172.478ZM199.688 172.478H219.422V171.82H199.688V172.478ZM219.751 172.149V84.3151H219.093V172.149H219.751ZM219.751 84.3151C219.751 83.1346 218.794 82.1776 217.613 82.1776V82.8353C218.43 82.8353 219.093 83.4979 219.093 84.3151H219.751ZM217.613 82.1776H147.906V82.8353H217.613V82.1776ZM147.906 82.1776C147.111 82.1776 146.38 82.6269 146.011 83.3273L146.593 83.6338C146.849 83.1461 147.359 82.8353 147.906 82.8353V82.1776ZM146.011 83.3273C131.07 111.699 123.645 127.633 121.109 146.741L121.761 146.827C124.279 127.851 131.648 112.012 146.593 83.6338L146.011 83.3273ZM121.106 146.784L121.106 184.341L121.764 184.341L121.764 146.784L121.106 146.784ZM121.182 184.551L121.181 184.55H121.839C121.839 184.392 121.782 184.245 121.688 184.131L121.182 184.551ZM121.181 184.55V205.482H121.839V184.55H121.181ZM148.949 87.1493C149.228 86.7196 149.705 86.457 150.22 86.4476L150.208 85.79C149.477 85.8034 148.797 86.1762 148.397 86.7906L148.949 87.1493ZM130.652 127.104C132.771 118.283 139.064 102.344 148.949 87.1493L148.397 86.7906C138.476 102.041 132.15 118.05 130.012 126.951L130.652 127.104ZM125.829 142.284L130.645 127.127L130.018 126.928L125.202 142.085L125.829 142.284ZM127.746 144.26C126.548 144.601 125.452 143.472 125.829 142.284L125.202 142.085C124.666 143.772 126.224 145.377 127.926 144.892L127.746 144.26ZM216.329 119.011L127.746 144.26L127.926 144.892L216.509 119.644L216.329 119.011ZM216.388 118.932C216.388 118.969 216.364 119.001 216.329 119.011L216.509 119.644C216.827 119.553 217.046 119.263 217.046 118.932H216.388ZM216.388 86.8253V118.932H217.046V86.8253H216.388ZM214.798 85.2636C215.672 85.2475 216.388 85.9514 216.388 86.8253H217.046C217.046 85.5835 216.027 84.5832 214.786 84.606L214.798 85.2636ZM150.22 86.4476L214.798 85.2636L214.786 84.606L150.208 85.79L150.22 86.4476Z" fill="black" mask="url(#path-7-inside-1)"/>
<mask id="path-9-inside-2" fill="white">
<path fill-rule="evenodd" clip-rule="evenodd" d="M240.999 73.1424H232.949V186.381H240.999V186.382H257.41L272.581 180.39H240.999V73.1424Z"/>
</mask>
<path fill-rule="evenodd" clip-rule="evenodd" d="M240.999 73.1424H232.949V186.381H240.999V186.382H257.41L272.581 180.39H240.999V73.1424Z" fill="#FFF3DC"/>
<path d="M232.949 73.1424V72.8136H232.62V73.1424H232.949ZM240.999 73.1424H241.328V72.8136H240.999V73.1424ZM232.949 186.381H232.62V186.71H232.949V186.381ZM240.999 186.381H241.328V186.053H240.999V186.381ZM240.999 186.382H240.671V186.71H240.999V186.382ZM257.41 186.382V186.71H257.472L257.53 186.687L257.41 186.382ZM272.581 180.39L272.702 180.696L272.581 180.061V180.39ZM240.999 180.39H240.671V180.719H240.999V180.39ZM232.949 73.4713H240.999V72.8136H232.949V73.4713ZM233.278 186.381V73.1424H232.62V186.381H233.278ZM240.999 186.053H232.949V186.71H240.999V186.053ZM241.328 186.382V186.381H240.671V186.382H241.328ZM257.41 186.053H240.999V186.71H257.41V186.053ZM272.46 180.084L257.289 186.076L257.53 186.687L272.702 180.696L272.46 180.084ZM240.999 180.719H272.581V180.061H240.999V180.719ZM240.671 73.1424V180.39H241.328V73.1424H240.671Z" fill="black" mask="url(#path-9-inside-2)"/>
<path d="M215.515 172.21L222.222 172.21C227.578 182.591 232.312 185.987 235.896 199.433C239.48 212.88 234.067 201.853 234.067 201.853C228.502 188.632 224.044 182.012 215.515 172.21Z" fill="black"/>
<path d="M198.921 175.534C214.259 175.534 226.685 187.959 226.685 203.298C226.685 218.637 214.259 231.063 198.921 231.063C183.582 231.063 171.156 218.637 171.156 203.298C171.156 187.959 183.619 175.534 198.921 175.534ZM198.921 224.094C210.425 224.094 219.716 214.765 219.716 203.298C219.716 191.831 210.388 182.502 198.921 182.502C187.453 182.502 178.125 191.831 178.125 203.298C178.125 214.765 187.453 224.094 198.921 224.094Z" fill="url(#paint0_radial)"/>
<path d="M199.031 224.02C187.526 224.02 178.199 214.693 178.199 203.187C178.199 191.682 187.526 182.355 199.031 182.355C210.537 182.355 219.864 191.682 219.864 203.187C219.864 214.693 210.537 224.02 199.031 224.02Z" fill="url(#paint1_radial)"/>
<path d="M198.22 192.716L200.027 192.642L200.985 194.154L200.137 195.776L198.331 195.85L197.372 194.301L198.22 192.716Z" fill="url(#paint2_radial)"/>
<path d="M198.22 210.783L200.027 210.709L200.985 212.221L200.137 213.843L198.331 213.917L197.372 212.368L198.22 210.783Z" fill="url(#paint3_radial)"/>
<path d="M206.074 195.149L207.401 196.366L207.032 198.136L205.299 198.652L203.972 197.435L204.377 195.666L206.074 195.149Z" fill="url(#paint4_radial)"/>
<path d="M193.316 207.907L194.643 209.124L194.238 210.894L192.505 211.447L191.177 210.193L191.583 208.46L193.316 207.907Z" fill="url(#paint5_radial)"/>
<path d="M209.871 202.339L209.945 204.109L208.397 205.105L206.811 204.257L206.737 202.45L208.249 201.491L209.871 202.339Z" fill="url(#paint6_radial)"/>
<path d="M191.804 202.339L191.878 204.109L190.329 205.105L188.744 204.257L188.67 202.45L190.182 201.491L191.804 202.339Z" fill="url(#paint7_radial)"/>
<path d="M207.438 210.082L206.221 211.41L204.451 211.004L203.935 209.271L205.152 207.944L206.922 208.349L207.438 210.082Z" fill="url(#paint8_radial)"/>
<path d="M194.68 197.288L193.464 198.615L191.694 198.21L191.141 196.514L192.394 195.186L194.127 195.555L194.68 197.288Z" fill="url(#paint9_radial)"/>
<path d="M424.671 179.891C440.009 179.891 452.435 192.317 452.435 207.655C452.435 222.994 440.009 235.42 424.671 235.42C409.332 235.42 396.906 222.994 396.906 207.655C396.906 192.317 409.369 179.891 424.671 179.891ZM424.671 228.451C436.175 228.451 445.466 219.122 445.466 207.655C445.466 196.188 436.138 186.859 424.671 186.859C413.204 186.859 403.875 196.188 403.875 207.655C403.875 219.122 413.204 228.451 424.671 228.451Z" fill="url(#paint10_radial)"/>
<path d="M424.781 228.377C413.276 228.377 403.949 219.05 403.949 207.545C403.949 196.039 413.276 186.712 424.781 186.712C436.287 186.712 445.614 196.039 445.614 207.545C445.614 219.05 436.287 228.377 424.781 228.377Z" fill="url(#paint11_radial)"/>
<path d="M423.97 197.073L425.777 196.999L426.735 198.511L425.887 200.133L424.081 200.207L423.122 198.658L423.97 197.073Z" fill="url(#paint12_radial)"/>
<path d="M423.97 215.14L425.777 215.066L426.735 216.578L425.887 218.201L424.081 218.274L423.122 216.726L423.97 215.14Z" fill="url(#paint13_radial)"/>
<path d="M431.824 199.507L433.151 200.723L432.783 202.493L431.05 203.009L429.722 201.793L430.128 200.023L431.824 199.507Z" fill="url(#paint14_radial)"/>
<path d="M419.066 212.264L420.394 213.481L419.988 215.251L418.255 215.804L416.928 214.55L417.333 212.817L419.066 212.264Z" fill="url(#paint15_radial)"/>
<path d="M435.622 206.697L435.695 208.466L434.147 209.462L432.561 208.614L432.487 206.807L433.999 205.848L435.622 206.697Z" fill="url(#paint16_radial)"/>
<path d="M417.554 206.696L417.628 208.466L416.08 209.462L414.494 208.614L414.42 206.807L415.932 205.848L417.554 206.696Z" fill="url(#paint17_radial)"/>
<path d="M433.188 214.44L431.971 215.767L430.201 215.361L429.685 213.628L430.902 212.301L432.672 212.707L433.188 214.44Z" fill="url(#paint18_radial)"/>
<path d="M420.43 201.645L419.214 202.972L417.444 202.567L416.891 200.871L418.144 199.543L419.877 199.912L420.43 201.645Z" fill="url(#paint19_radial)"/>
<mask id="path-32-inside-3" fill="white">
<path fill-rule="evenodd" clip-rule="evenodd" d="M309.589 180.466H312.686V195.936H346.744V180.466H349.841V195.936H383.899V180.466H386.996V199.03H383.899V199.03H349.841V199.03H346.744V199.03H312.686V199.03H309.589V199.03H275.531V199.03H272.434V180.467H275.531V195.936H309.589V180.466Z"/>
</mask>
<path fill-rule="evenodd" clip-rule="evenodd" d="M309.589 180.466H312.686V195.936H346.744V180.466H349.841V195.936H383.899V180.466H386.996V199.03H383.899V199.03H349.841V199.03H346.744V199.03H312.686V199.03H309.589V199.03H275.531V199.03H272.434V180.467H275.531V195.936H309.589V180.466Z" fill="#B8B8B8"/>
<path d="M312.686 180.466H313.014V180.137H312.686V180.466ZM309.589 180.466V180.137H309.26V180.466H309.589ZM312.686 195.936H312.357V196.265H312.686V195.936ZM346.744 195.936V196.265H347.073V195.936H346.744ZM346.744 180.466V180.137H346.415V180.466H346.744ZM349.841 180.466H350.169V180.137H349.841V180.466ZM349.841 195.936H349.512V196.265H349.841V195.936ZM383.899 195.936V196.265H384.228V195.936H383.899ZM383.899 180.466V180.137H383.57V180.466H383.899ZM386.996 180.466H387.324V180.137H386.996V180.466ZM386.996 199.03V199.359H387.324V199.03H386.996ZM383.899 199.03H383.57V199.359H383.899V199.03ZM383.899 199.03H384.228V198.701H383.899V199.03ZM349.841 199.03V198.701H349.512V199.03H349.841ZM349.841 199.03V199.359H350.169V199.03H349.841ZM346.744 199.03H346.415V199.359H346.744V199.03ZM346.744 199.03H347.073V198.701H346.744V199.03ZM312.686 199.03V198.701H312.357V199.03H312.686ZM312.686 199.03V199.359H313.014V199.03H312.686ZM309.589 199.03H309.26V199.359H309.589V199.03ZM309.589 199.03H309.918V198.701H309.589V199.03ZM275.531 199.03V198.701H275.202V199.03H275.531ZM275.531 199.03V199.359H275.859V199.03H275.531ZM272.434 199.03H272.105V199.359H272.434V199.03ZM272.434 180.467V180.138H272.105V180.467H272.434ZM275.531 180.467H275.859V180.138H275.531V180.467ZM275.531 195.936H275.202V196.265H275.531V195.936ZM309.589 195.936V196.265H309.918V195.936H309.589ZM312.686 180.137H309.589V180.795H312.686V180.137ZM313.014 195.936V180.466H312.357V195.936H313.014ZM312.686 196.265H346.744V195.607H312.686V196.265ZM347.073 195.936V180.466H346.415V195.936H347.073ZM346.744 180.795H349.841V180.137H346.744V180.795ZM349.512 180.466V195.936H350.169V180.466H349.512ZM349.841 196.265H383.899V195.607H349.841V196.265ZM383.57 180.466V195.936H384.228V180.466H383.57ZM386.996 180.137H383.899V180.795H386.996V180.137ZM387.324 199.03V180.466H386.667V199.03H387.324ZM383.899 199.359H386.996V198.701H383.899V199.359ZM383.57 199.03V199.03H384.228V199.03H383.57ZM383.899 198.701H349.841V199.359H383.899V198.701ZM349.512 199.03V199.03H350.169V199.03H349.512ZM349.841 198.701H346.744V199.359H349.841V198.701ZM347.073 199.03V199.03H346.415V199.03H347.073ZM346.744 198.701H312.686V199.359H346.744V198.701ZM313.014 199.03V199.03H312.357V199.03H313.014ZM309.589 199.359H312.686V198.701H309.589V199.359ZM309.26 199.03V199.03H309.918V199.03H309.26ZM309.589 198.701H275.531V199.359H309.589V198.701ZM275.859 199.03V199.03H275.202V199.03H275.859ZM272.434 199.359H275.531V198.702H272.434V199.359ZM272.105 180.467V199.03H272.763V180.467H272.105ZM275.531 180.138H272.434V180.795H275.531V180.138ZM275.859 195.936V180.467H275.202V195.936H275.859ZM275.531 196.265H309.589V195.607H275.531V196.265ZM309.26 180.466V195.936H309.918V180.466H309.26Z" fill="black" mask="url(#path-32-inside-3)"/>
<mask id="path-34-inside-4" fill="white">
<path fill-rule="evenodd" clip-rule="evenodd" d="M501.506 180.445H498.41V195.914H464.351V180.445H461.255V199.009H464.351V199.008H498.41V199.008H501.506V199.008H515.287C515.289 199.008 515.292 199.009 515.294 199.009H522.396C522.487 199.009 522.561 198.935 522.561 198.844V186.797C522.561 186.706 522.487 186.633 522.396 186.633H515.294C515.203 186.633 515.13 186.706 515.13 186.797V195.914H501.506V180.445Z"/>
</mask>
<path fill-rule="evenodd" clip-rule="evenodd" d="M501.506 180.445H498.41V195.914H464.351V180.445H461.255V199.009H464.351V199.008H498.41V199.008H501.506V199.008H515.287C515.289 199.008 515.292 199.009 515.294 199.009H522.396C522.487 199.009 522.561 198.935 522.561 198.844V186.797C522.561 186.706 522.487 186.633 522.396 186.633H515.294C515.203 186.633 515.13 186.706 515.13 186.797V195.914H501.506V180.445Z" fill="#B8B8B8"/>
<path d="M498.41 180.445V180.116H498.081V180.445H498.41ZM501.506 180.445H501.835V180.116H501.506V180.445ZM498.41 195.914V196.243H498.739V195.914H498.41ZM464.351 195.914H464.022V196.243H464.351V195.914ZM464.351 180.445H464.68V180.116H464.351V180.445ZM461.255 180.445V180.116H460.926V180.445H461.255ZM461.255 199.009H460.926V199.338H461.255V199.009ZM464.351 199.009V199.338H464.68V199.009H464.351ZM464.351 199.008V198.68H464.022V199.008H464.351ZM498.41 199.008H498.739V198.68H498.41V199.008ZM498.41 199.008H498.081V199.337H498.41V199.008ZM501.506 199.008V199.337H501.835V199.008H501.506ZM501.506 199.008V198.68H501.177V199.008H501.506ZM515.287 199.008L515.301 198.68H515.287V199.008ZM515.13 195.914V196.243H515.459V195.914H515.13ZM501.506 195.914H501.177V196.243H501.506V195.914ZM498.41 180.774H501.506V180.116H498.41V180.774ZM498.739 195.914V180.445H498.081V195.914H498.739ZM464.351 196.243H498.41V195.586H464.351V196.243ZM464.022 180.445V195.914H464.68V180.445H464.022ZM461.255 180.774H464.351V180.116H461.255V180.774ZM461.584 199.009V180.445H460.926V199.009H461.584ZM464.351 198.68H461.255V199.338H464.351V198.68ZM464.022 199.008V199.009H464.68V199.008H464.022ZM498.41 198.68H464.351V199.337H498.41V198.68ZM498.739 199.008V199.008H498.081V199.008H498.739ZM501.506 198.68H498.41V199.337H501.506V198.68ZM501.177 199.008V199.008H501.835V199.008H501.177ZM515.287 198.68H501.506V199.337H515.287V198.68ZM515.294 198.68C515.296 198.68 515.299 198.68 515.301 198.68L515.273 199.337C515.28 199.337 515.287 199.337 515.294 199.337V198.68ZM522.396 198.68H515.294V199.337H522.396V198.68ZM522.232 198.844C522.232 198.753 522.306 198.68 522.396 198.68V199.337C522.669 199.337 522.89 199.117 522.89 198.844H522.232ZM522.232 186.797V198.844H522.89V186.797H522.232ZM522.396 186.962C522.306 186.962 522.232 186.888 522.232 186.797H522.89C522.89 186.525 522.669 186.304 522.396 186.304V186.962ZM515.294 186.962H522.396V186.304H515.294V186.962ZM515.459 186.797C515.459 186.888 515.385 186.962 515.294 186.962V186.304C515.022 186.304 514.801 186.525 514.801 186.797H515.459ZM515.459 195.914V186.797H514.801V195.914H515.459ZM501.506 196.243H515.13V195.586H501.506V196.243ZM501.177 180.445V195.914H501.835V180.445H501.177Z" fill="black" mask="url(#path-34-inside-4)"/>
<rect x="240.966" y="149.081" width="275.238" height="31.2296" rx="0.246632" fill="#FFF3DC" stroke="black" stroke-width="0.328842"/>
<path d="M259.14 157.238L266.09 168.82C266.123 168.875 266.083 168.945 266.019 168.945H252.12C252.056 168.945 252.017 168.875 252.05 168.82L258.999 157.238C259.031 157.185 259.108 157.185 259.14 157.238Z" fill="#FF0000" stroke="black" stroke-width="0.164421"/>
<path d="M498.171 157.238L505.12 168.82C505.153 168.875 505.114 168.945 505.05 168.945H491.151C491.087 168.945 491.048 168.875 491.08 168.82L498.03 157.238C498.062 157.185 498.139 157.185 498.171 157.238Z" fill="#FF0000" stroke="black" stroke-width="0.164421"/>
<path d="M443.237 180.376L449.677 180.376C452.79 187.24 456.482 189 457.507 198.436C458.533 207.871 455.475 200.535 455.475 200.535C452.636 191.59 449.288 186.293 443.237 180.376Z" fill="black"/>
<path d="M406.3 180.376L399.86 180.376C396.747 187.24 393.055 189 392.03 198.436C391.004 207.871 394.063 200.535 394.063 200.535C396.901 191.59 400.249 186.293 406.3 180.376Z" fill="black"/>
<path d="M132.083 133.72C131.564 139.374 129.76 140.451 125.393 140.785" stroke="black" stroke-width="0.0822105"/>
<path d="M134.078 117.739C134.088 117.701 134.124 117.674 134.164 117.675L135.838 117.737C135.887 117.738 135.923 117.782 135.913 117.831L131.57 140.943C131.558 141.006 131.481 141.034 131.433 140.993L128.721 138.658C128.698 138.638 128.689 138.607 128.696 138.577L134.078 117.739Z" fill="black"/>
<g filter="url(#filter1_d)">
<rect x="-0.822105" y="0.822105" width="273.926" height="79.6088" transform="matrix(-1 0 0 1 514.751 67.2241)" stroke="#2F80ED" stroke-width="1.64421"/>
<rect x="-0.822105" y="0.822105" width="273.926" height="18.0349" transform="matrix(-1 0 0 1 514.751 67.2241)" stroke="#2F80ED" stroke-width="1.64421"/>
<rect x="-0.822105" y="0.822105" width="273.926" height="18.0349" transform="matrix(-1 0 0 1 514.751 128.798)" stroke="#2F80ED" stroke-width="1.64421"/>
<path d="M498.391 68.0843L498.391 147.664L515.573 147.664L515.573 68.0843L498.391 68.0843Z" stroke="#2F80ED" stroke-width="1.64421"/>
<rect x="0.822106" y="0.822105" width="79.6088" height="17.5108" transform="matrix(4.10864e-08 1 1 -4.65041e-08 240.825 67.2241)" stroke="#2F80ED" stroke-width="1.64421"/>
<path d="M241.879 107.89L249.581 128.492L258.014 107.5L250.321 86.4222L241.879 107.89Z" fill="#2F80ED"/>
<path d="M498.911 108.371L506.612 128.973L515.045 107.981L507.352 86.9032L498.911 108.371Z" fill="#2F80ED"/>
<rect x="0.822106" y="0.822105" width="79.6088" height="34.1743" transform="matrix(4.27523e-08 1 1 -4.4692e-08 258.08 67.4864)" stroke="#2F80ED" stroke-width="1.64421"/>
<path d="M275.777 69.3522L259.791 77.5447L275.777 85.7371L292.127 77.5447L275.777 69.3522Z" fill="#2F80ED"/>
<path d="M275.777 130.751L259.791 138.944L275.777 147.136L292.127 138.944L275.777 130.751Z" fill="#2F80ED"/>
<line y1="-0.822105" x2="55.2088" y2="-0.822105" transform="matrix(-0.612007 0.790853 0.777457 0.628936 292.982 86.9032)" stroke="#2F80ED" stroke-width="1.64421"/>
<line y1="-0.822105" x2="55.2088" y2="-0.822105" transform="matrix(0.612007 0.790853 -0.777457 0.628936 259.193 86.9032)" stroke="#2F80ED" stroke-width="1.64421"/>
<path d="M292.927 86.5233L286.567 86.5233L292.92 93.1131L292.927 86.5233Z" fill="#2F80ED"/>
<path d="M292.845 129.265L286.485 129.265L292.838 122.675L292.845 129.265Z" fill="#2F80ED"/>
<path d="M259.16 86.4867L265.52 86.4867L259.167 93.0765L259.16 86.4867Z" fill="#2F80ED"/>
<path d="M259.078 129.302L265.438 129.302L259.085 122.712L259.078 129.302Z" fill="#2F80ED"/>
<path fill-rule="evenodd" clip-rule="evenodd" d="M279.725 108.696C280.546 108.124 281.092 107.114 281.092 105.963C281.092 104.18 279.781 102.734 278.165 102.734C277.262 102.734 276.455 103.184 275.918 103.893C275.381 103.184 274.574 102.734 273.672 102.734C272.055 102.734 270.745 104.18 270.745 105.963C270.745 107.114 271.29 108.124 272.111 108.696L275.918 112.617L279.725 108.696Z" fill="#2F80ED"/>
<rect x="0.822106" y="0.822105" width="79.6088" height="34.1743" transform="matrix(4.27523e-08 1 1 -4.4692e-08 292.298 67.4864)" stroke="#2F80ED" stroke-width="1.64421"/>
<path d="M309.995 69.3522L294.009 77.5447L309.995 85.7371L326.344 77.5447L309.995 69.3522Z" fill="#2F80ED"/>
<path d="M309.995 130.751L294.009 138.944L309.995 147.136L326.344 138.944L309.995 130.751Z" fill="#2F80ED"/>
<line y1="-0.822105" x2="55.2088" y2="-0.822105" transform="matrix(-0.612007 0.790853 0.777457 0.628936 327.2 86.9032)" stroke="#2F80ED" stroke-width="1.64421"/>
<line y1="-0.822105" x2="55.2088" y2="-0.822105" transform="matrix(0.612007 0.790853 -0.777457 0.628936 293.41 86.9032)" stroke="#2F80ED" stroke-width="1.64421"/>
<path d="M327.145 86.5233L320.784 86.5233L327.137 93.1131L327.145 86.5233Z" fill="#2F80ED"/>
<path d="M327.063 129.265L320.702 129.265L327.055 122.676L327.063 129.265Z" fill="#2F80ED"/>
<path d="M293.378 86.4867L299.738 86.4867L293.385 93.0765L293.378 86.4867Z" fill="#2F80ED"/>
<path d="M293.295 129.302L299.656 129.302L293.303 122.712L293.295 129.302Z" fill="#2F80ED"/>
<path fill-rule="evenodd" clip-rule="evenodd" d="M313.942 108.696C314.764 108.124 315.309 107.114 315.309 105.963C315.309 104.18 313.999 102.734 312.382 102.734C311.48 102.734 310.673 103.184 310.136 103.893C309.599 103.184 308.792 102.734 307.889 102.734C306.273 102.734 304.962 104.18 304.962 105.963C304.962 107.114 305.508 108.124 306.329 108.696L310.136 112.617L313.942 108.696Z" fill="#2F80ED"/>
<rect x="0.822106" y="0.822105" width="79.6088" height="34.1742" transform="matrix(4.27523e-08 1 1 -4.4692e-08 326.516 67.4864)" stroke="#2F80ED" stroke-width="1.64421"/>
<path d="M344.213 69.3522L328.227 77.5447L344.213 85.7371L360.562 77.5447L344.213 69.3522Z" fill="#2F80ED"/>
<path d="M344.213 130.751L328.227 138.944L344.213 147.136L360.562 138.944L344.213 130.751Z" fill="#2F80ED"/>
<line y1="-0.822105" x2="55.2088" y2="-0.822105" transform="matrix(-0.612007 0.790853 0.777457 0.628936 361.418 86.9032)" stroke="#2F80ED" stroke-width="1.64421"/>
<line y1="-0.822105" x2="55.2088" y2="-0.822105" transform="matrix(0.612007 0.790853 -0.777457 0.628936 327.628 86.9032)" stroke="#2F80ED" stroke-width="1.64421"/>
<path d="M361.363 86.5233L355.002 86.5233L361.355 93.1131L361.363 86.5233Z" fill="#2F80ED"/>
<path d="M361.28 129.265L354.92 129.265L361.273 122.676L361.28 129.265Z" fill="#2F80ED"/>
<path d="M327.595 86.4867L333.956 86.4867L327.603 93.0765L327.595 86.4867Z" fill="#2F80ED"/>
<path d="M327.513 129.302L333.874 129.302L327.521 122.712L327.513 129.302Z" fill="#2F80ED"/>
<path fill-rule="evenodd" clip-rule="evenodd" d="M348.16 108.696C348.981 108.124 349.527 107.114 349.527 105.963C349.527 104.18 348.216 102.734 346.6 102.734C345.697 102.734 344.89 103.184 344.353 103.893C343.816 103.184 343.009 102.734 342.107 102.734C340.49 102.734 339.18 104.18 339.18 105.963C339.18 107.114 339.725 108.124 340.547 108.696L344.353 112.617L348.16 108.696Z" fill="#2F80ED"/>
<rect x="0.822106" y="0.822105" width="79.6088" height="34.1743" transform="matrix(4.27523e-08 1 1 -4.4692e-08 360.733 67.4864)" stroke="#2F80ED" stroke-width="1.64421"/>
<path d="M378.43 69.3522L362.444 77.5447L378.43 85.7371L394.78 77.5447L378.43 69.3522Z" fill="#2F80ED"/>
<path d="M378.43 130.751L362.444 138.944L378.43 147.136L394.78 138.944L378.43 130.751Z" fill="#2F80ED"/>
<line y1="-0.822105" x2="55.2088" y2="-0.822105" transform="matrix(-0.612007 0.790853 0.777457 0.628936 395.635 86.9032)" stroke="#2F80ED" stroke-width="1.64421"/>
<line y1="-0.822105" x2="55.2088" y2="-0.822105" transform="matrix(0.612007 0.790853 -0.777457 0.628936 361.845 86.9032)" stroke="#2F80ED" stroke-width="1.64421"/>
<path d="M395.58 86.5233L389.22 86.5233L395.573 93.1131L395.58 86.5233Z" fill="#2F80ED"/>
<path d="M395.498 129.265L389.138 129.265L395.491 122.676L395.498 129.265Z" fill="#2F80ED"/>
<path d="M361.813 86.4867L368.173 86.4867L361.82 93.0765L361.813 86.4867Z" fill="#2F80ED"/>
<path d="M361.731 129.302L368.091 129.302L361.738 122.712L361.731 129.302Z" fill="#2F80ED"/>
<path fill-rule="evenodd" clip-rule="evenodd" d="M382.377 108.696C383.199 108.124 383.745 107.114 383.745 105.963C383.745 104.18 382.434 102.734 380.817 102.734C379.915 102.734 379.108 103.185 378.571 103.893C378.034 103.185 377.227 102.734 376.325 102.734C374.708 102.734 373.397 104.18 373.397 105.963C373.397 107.114 373.943 108.124 374.764 108.696L378.571 112.617L382.377 108.696Z" fill="#2F80ED"/>
<rect x="0.822106" y="0.822105" width="79.6088" height="34.1743" transform="matrix(4.27523e-08 1 1 -4.4692e-08 394.951 67.4864)" stroke="#2F80ED" stroke-width="1.64421"/>
<path d="M412.648 69.3522L396.662 77.5447L412.648 85.7371L428.997 77.5447L412.648 69.3522Z" fill="#2F80ED"/>
<path d="M412.648 130.751L396.662 138.944L412.648 147.136L428.997 138.944L412.648 130.751Z" fill="#2F80ED"/>
<line y1="-0.822105" x2="55.2088" y2="-0.822105" transform="matrix(-0.612007 0.790853 0.777457 0.628936 429.853 86.9032)" stroke="#2F80ED" stroke-width="1.64421"/>
<line y1="-0.822105" x2="55.2088" y2="-0.822105" transform="matrix(0.612007 0.790853 -0.777457 0.628936 396.063 86.9032)" stroke="#2F80ED" stroke-width="1.64421"/>
<path d="M429.798 86.5233L423.437 86.5233L429.79 93.1131L429.798 86.5233Z" fill="#2F80ED"/>
<path d="M429.716 129.265L423.355 129.265L429.708 122.676L429.716 129.265Z" fill="#2F80ED"/>
<path d="M396.03 86.4867L402.391 86.4867L396.038 93.0765L396.03 86.4867Z" fill="#2F80ED"/>
<path d="M395.948 129.302L402.309 129.302L395.956 122.712L395.948 129.302Z" fill="#2F80ED"/>
<path fill-rule="evenodd" clip-rule="evenodd" d="M416.595 108.696C417.417 108.124 417.962 107.114 417.962 105.963C417.962 104.18 416.652 102.734 415.035 102.734C414.133 102.734 413.326 103.184 412.789 103.893C412.252 103.184 411.445 102.734 410.542 102.734C408.926 102.734 407.615 104.18 407.615 105.963C407.615 107.114 408.16 108.124 408.982 108.696L412.789 112.617L416.595 108.696Z" fill="#2F80ED"/>
<rect x="0.822106" y="0.822105" width="79.6088" height="34.1743" transform="matrix(4.27523e-08 1 1 -4.46919e-08 429.168 67.4864)" stroke="#2F80ED" stroke-width="1.64421"/>
<path d="M446.865 69.3522L430.879 77.5447L446.865 85.7371L463.215 77.5447L446.865 69.3522Z" fill="#2F80ED"/>
<path d="M446.865 130.751L430.879 138.944L446.865 147.136L463.215 138.944L446.865 130.751Z" fill="#2F80ED"/>
<line y1="-0.822105" x2="55.2088" y2="-0.822105" transform="matrix(-0.612007 0.790853 0.777457 0.628936 464.07 86.9032)" stroke="#2F80ED" stroke-width="1.64421"/>
<line y1="-0.822105" x2="55.2088" y2="-0.822105" transform="matrix(0.612007 0.790853 -0.777457 0.628936 430.281 86.9032)" stroke="#2F80ED" stroke-width="1.64421"/>
<path d="M464.015 86.5233L457.655 86.5233L464.008 93.1131L464.015 86.5233Z" fill="#2F80ED"/>
<path d="M463.933 129.265L457.573 129.265L463.926 122.675L463.933 129.265Z" fill="#2F80ED"/>
<path d="M430.248 86.4867L436.608 86.4867L430.255 93.0765L430.248 86.4867Z" fill="#2F80ED"/>
<path d="M430.166 129.302L436.526 129.302L430.173 122.712L430.166 129.302Z" fill="#2F80ED"/>
<path fill-rule="evenodd" clip-rule="evenodd" d="M450.813 108.696C451.634 108.124 452.18 107.114 452.18 105.963C452.18 104.18 450.869 102.734 449.253 102.734C448.35 102.734 447.543 103.184 447.006 103.893C446.469 103.184 445.662 102.734 444.76 102.734C443.143 102.734 441.833 104.18 441.833 105.963C441.833 107.114 442.378 108.124 443.199 108.696L447.006 112.617L450.813 108.696Z" fill="#2F80ED"/>
<rect x="0.822106" y="0.822105" width="79.6088" height="34.1743" transform="matrix(4.27523e-08 1 1 -4.4692e-08 463.386 67.4864)" stroke="#2F80ED" stroke-width="1.64421"/>
<path d="M481.083 69.3522L465.097 77.5447L481.083 85.7371L497.432 77.5447L481.083 69.3522Z" fill="#2F80ED"/>
<path d="M481.083 130.751L465.097 138.944L481.083 147.136L497.432 138.944L481.083 130.751Z" fill="#2F80ED"/>
<line y1="-0.822105" x2="55.2088" y2="-0.822105" transform="matrix(-0.612007 0.790853 0.777457 0.628936 498.288 86.9032)" stroke="#2F80ED" stroke-width="1.64421"/>
<line y1="-0.822105" x2="55.2088" y2="-0.822105" transform="matrix(0.612007 0.790852 -0.777457 0.628936 464.498 86.9032)" stroke="#2F80ED" stroke-width="1.64421"/>
<path d="M498.233 86.5233L491.872 86.5233L498.225 93.1131L498.233 86.5233Z" fill="#2F80ED"/>
<path d="M498.151 129.265L491.79 129.265L498.143 122.675L498.151 129.265Z" fill="#2F80ED"/>
<path d="M464.466 86.4867L470.826 86.4867L464.473 93.0765L464.466 86.4867Z" fill="#2F80ED"/>
<path d="M464.383 129.302L470.744 129.302L464.391 122.712L464.383 129.302Z" fill="#2F80ED"/>
<path fill-rule="evenodd" clip-rule="evenodd" d="M485.03 108.696C485.852 108.124 486.397 107.114 486.397 105.963C486.397 104.18 485.087 102.734 483.47 102.734C482.568 102.734 481.761 103.184 481.224 103.893C480.687 103.184 479.88 102.734 478.977 102.734C477.361 102.734 476.05 104.18 476.05 105.963C476.05 107.114 476.596 108.124 477.417 108.696L481.224 112.617L485.03 108.696Z" fill="#2F80ED"/>
<path d="M515.367 68.0843L515.367 59M241.894 68.0843L241.894 59" stroke="#2F80ED" stroke-width="2.05526"/>
</g>
<rect x="1" y="1" width="630" height="344" stroke="#C4C4C4" stroke-width="2"/>
</g>
<defs>
<filter id="filter0_d" x="0" y="0" width="640" height="354" filterUnits="userSpaceOnUse" color-interpolation-filters="sRGB">
<feFlood flood-opacity="0" result="BackgroundImageFix"/>
<feColorMatrix in="SourceAlpha" type="matrix" values="0 0 0 0 0 0 0 0 0 0 0 0 0 0 0 0 0 0 127 0"/>
<feOffset dx="4" dy="4"/>
<feGaussianBlur stdDeviation="2"/>
<feColorMatrix type="matrix" values="0 0 0 0 0 0 0 0 0 0 0 0 0 0 0 0 0 0 0.25 0"/>
<feBlend mode="normal" in2="BackgroundImageFix" result="effect1_dropShadow"/>
<feBlend mode="normal" in="SourceGraphic" in2="effect1_dropShadow" result="shape"/>
</filter>
<filter id="filter1_d" x="240.003" y="58.1779" width="277.214" height="91.3837" filterUnits="userSpaceOnUse" color-interpolation-filters="sRGB">
<feFlood flood-opacity="0" result="BackgroundImageFix"/>
<feColorMatrix in="SourceAlpha" type="matrix" values="0 0 0 0 0 0 0 0 0 0 0 0 0 0 0 0 0 0 127 0"/>
<feOffset/>
<feGaussianBlur stdDeviation="0.411053"/>
<feColorMatrix type="matrix" values="0 0 0 0 0 0 0 0 0 0 0 0 0 0 0 0 0 0 1 0"/>
<feBlend mode="normal" in2="BackgroundImageFix" result="effect1_dropShadow"/>
<feBlend mode="normal" in="SourceGraphic" in2="effect1_dropShadow" result="shape"/>
</filter>
<radialGradient id="paint0_radial" cx="0" cy="0" r="1" gradientUnits="userSpaceOnUse" gradientTransform="translate(198.939 203.28) rotate(180) scale(27.7461)">
<stop offset="0.7777" stop-color="#1A1A1A"/>
<stop offset="0.8882" stop-color="#333333"/>
<stop offset="1"/>
</radialGradient>
<radialGradient id="paint1_radial" cx="0" cy="0" r="1" gradientUnits="userSpaceOnUse" gradientTransform="translate(199.031 203.187) rotate(180) scale(20.8326)">
<stop stop-color="#8D8C8C"/>
<stop offset="0.0810056" stop-color="#898989"/>
<stop offset="0.1659" stop-color="#808080"/>
<stop offset="0.2687" stop-color="#868686"/>
<stop offset="0.3295" stop-color="#A4A4A4"/>
<stop offset="0.3447" stop-color="#ACACAC"/>
<stop offset="0.5274" stop-color="#B3B3B3"/>
<stop offset="0.5715" stop-color="#A4A4A4"/>
<stop offset="0.6558" stop-color="#7D7D7D"/>
<stop offset="0.7012" stop-color="#666666"/>
<stop offset="0.7387" stop-color="#6F6F70"/>
<stop offset="0.8018" stop-color="#88898A"/>
<stop offset="0.8676" stop-color="#A8AAAC"/>
<stop offset="0.927" stop-color="#7E8486"/>
<stop offset="1" stop-color="#465053"/>
</radialGradient>
<radialGradient id="paint2_radial" cx="0" cy="0" r="1" gradientUnits="userSpaceOnUse" gradientTransform="translate(199.175 194.24) rotate(177.704) scale(1.68642)">
<stop offset="0.00561773" stop-color="#534741"/>
<stop offset="0.1684" stop-color="#5C5450"/>
<stop offset="0.4792" stop-color="#737577"/>
<stop offset="0.6742" stop-color="#838C92"/>
<stop offset="0.9793" stop-color="#333333"/>
<stop offset="0.9852" stop-color="#3E4042"/>
<stop offset="0.9965" stop-color="#5B6469"/>
<stop offset="1" stop-color="#657076"/>
</radialGradient>
<radialGradient id="paint3_radial" cx="0" cy="0" r="1" gradientUnits="userSpaceOnUse" gradientTransform="translate(199.175 212.308) rotate(177.704) scale(1.68642)">
<stop offset="0.00561773" stop-color="#534741"/>
<stop offset="0.1684" stop-color="#5C5450"/>
<stop offset="0.4792" stop-color="#737577"/>
<stop offset="0.6742" stop-color="#838C92"/>
<stop offset="0.9793" stop-color="#333333"/>
<stop offset="0.9852" stop-color="#3E4042"/>
<stop offset="0.9965" stop-color="#5B6469"/>
<stop offset="1" stop-color="#657076"/>
</radialGradient>
<radialGradient id="paint4_radial" cx="0" cy="0" r="1" gradientUnits="userSpaceOnUse" gradientTransform="translate(205.689 196.899) rotate(-137.298) scale(1.68644)">
<stop offset="0.00561773" stop-color="#534741"/>
<stop offset="0.1684" stop-color="#5C5450"/>
<stop offset="0.4792" stop-color="#737577"/>
<stop offset="0.6742" stop-color="#838C92"/>
<stop offset="0.9793" stop-color="#333333"/>
<stop offset="0.9852" stop-color="#3E4042"/>
<stop offset="0.9965" stop-color="#5B6469"/>
<stop offset="1" stop-color="#657076"/>
</radialGradient>
<radialGradient id="paint5_radial" cx="0" cy="0" r="1" gradientUnits="userSpaceOnUse" gradientTransform="translate(192.914 209.675) rotate(-137.298) scale(1.68644)">
<stop offset="0.00561773" stop-color="#534741"/>
<stop offset="0.1684" stop-color="#5C5450"/>
<stop offset="0.4792" stop-color="#737577"/>
<stop offset="0.6742" stop-color="#838C92"/>
<stop offset="0.9793" stop-color="#333333"/>
<stop offset="0.9852" stop-color="#3E4042"/>
<stop offset="0.9965" stop-color="#5B6469"/>
<stop offset="1" stop-color="#657076"/>
</radialGradient>
<radialGradient id="paint6_radial" cx="0" cy="0" r="1" gradientUnits="userSpaceOnUse" gradientTransform="translate(208.335 203.285) rotate(-92.2963) scale(1.68641)">
<stop offset="0.00561773" stop-color="#534741"/>
<stop offset="0.1684" stop-color="#5C5450"/>
<stop offset="0.4792" stop-color="#737577"/>
<stop offset="0.6742" stop-color="#838C92"/>
<stop offset="0.9793" stop-color="#333333"/>
<stop offset="0.9852" stop-color="#3E4042"/>
<stop offset="0.9965" stop-color="#5B6469"/>
<stop offset="1" stop-color="#657076"/>
</radialGradient>
<radialGradient id="paint7_radial" cx="0" cy="0" r="1" gradientUnits="userSpaceOnUse" gradientTransform="translate(190.268 203.285) rotate(-92.2963) scale(1.68641)">
<stop offset="0.00561773" stop-color="#534741"/>
<stop offset="0.1684" stop-color="#5C5450"/>
<stop offset="0.4792" stop-color="#737577"/>
<stop offset="0.6742" stop-color="#838C92"/>
<stop offset="0.9793" stop-color="#333333"/>
<stop offset="0.9852" stop-color="#3E4042"/>
<stop offset="0.9965" stop-color="#5B6469"/>
<stop offset="1" stop-color="#657076"/>
</radialGradient>
<radialGradient id="paint8_radial" cx="0" cy="0" r="1" gradientUnits="userSpaceOnUse" gradientTransform="translate(205.689 209.673) rotate(-47.2977) scale(1.68644)">
<stop offset="0.00561773" stop-color="#534741"/>
<stop offset="0.1684" stop-color="#5C5450"/>
<stop offset="0.4792" stop-color="#737577"/>
<stop offset="0.6742" stop-color="#838C92"/>
<stop offset="0.9793" stop-color="#333333"/>
<stop offset="0.9852" stop-color="#3E4042"/>
<stop offset="0.9965" stop-color="#5B6469"/>
<stop offset="1" stop-color="#657076"/>
</radialGradient>
<radialGradient id="paint9_radial" cx="0" cy="0" r="1" gradientUnits="userSpaceOnUse" gradientTransform="translate(192.913 196.897) rotate(-47.2977) scale(1.68643)">
<stop offset="0.00561773" stop-color="#534741"/>
<stop offset="0.1684" stop-color="#5C5450"/>
<stop offset="0.4792" stop-color="#737577"/>
<stop offset="0.6742" stop-color="#838C92"/>
<stop offset="0.9793" stop-color="#333333"/>
<stop offset="0.9852" stop-color="#3E4042"/>
<stop offset="0.9965" stop-color="#5B6469"/>
<stop offset="1" stop-color="#657076"/>
</radialGradient>
<radialGradient id="paint10_radial" cx="0" cy="0" r="1" gradientUnits="userSpaceOnUse" gradientTransform="translate(424.689 207.637) rotate(180) scale(27.7461)">
<stop offset="0.7777" stop-color="#1A1A1A"/>
<stop offset="0.8882" stop-color="#333333"/>
<stop offset="1"/>
</radialGradient>
<radialGradient id="paint11_radial" cx="0" cy="0" r="1" gradientUnits="userSpaceOnUse" gradientTransform="translate(424.781 207.545) rotate(180) scale(20.8326)">
<stop stop-color="#8D8C8C"/>
<stop offset="0.0810056" stop-color="#898989"/>
<stop offset="0.1659" stop-color="#808080"/>
<stop offset="0.2687" stop-color="#868686"/>
<stop offset="0.3295" stop-color="#A4A4A4"/>
<stop offset="0.3447" stop-color="#ACACAC"/>
<stop offset="0.5274" stop-color="#B3B3B3"/>
<stop offset="0.5715" stop-color="#A4A4A4"/>
<stop offset="0.6558" stop-color="#7D7D7D"/>
<stop offset="0.7012" stop-color="#666666"/>
<stop offset="0.7387" stop-color="#6F6F70"/>
<stop offset="0.8018" stop-color="#88898A"/>
<stop offset="0.8676" stop-color="#A8AAAC"/>
<stop offset="0.927" stop-color="#7E8486"/>
<stop offset="1" stop-color="#465053"/>
</radialGradient>
<radialGradient id="paint12_radial" cx="0" cy="0" r="1" gradientUnits="userSpaceOnUse" gradientTransform="translate(424.925 198.597) rotate(177.704) scale(1.68641)">
<stop offset="0.00561773" stop-color="#534741"/>
<stop offset="0.1684" stop-color="#5C5450"/>
<stop offset="0.4792" stop-color="#737577"/>
<stop offset="0.6742" stop-color="#838C92"/>
<stop offset="0.9793" stop-color="#333333"/>
<stop offset="0.9852" stop-color="#3E4042"/>
<stop offset="0.9965" stop-color="#5B6469"/>
<stop offset="1" stop-color="#657076"/>
</radialGradient>
<radialGradient id="paint13_radial" cx="0" cy="0" r="1" gradientUnits="userSpaceOnUse" gradientTransform="translate(424.925 216.665) rotate(177.704) scale(1.68641)">
<stop offset="0.00561773" stop-color="#534741"/>
<stop offset="0.1684" stop-color="#5C5450"/>
<stop offset="0.4792" stop-color="#737577"/>
<stop offset="0.6742" stop-color="#838C92"/>
<stop offset="0.9793" stop-color="#333333"/>
<stop offset="0.9852" stop-color="#3E4042"/>
<stop offset="0.9965" stop-color="#5B6469"/>
<stop offset="1" stop-color="#657076"/>
</radialGradient>
<radialGradient id="paint14_radial" cx="0" cy="0" r="1" gradientUnits="userSpaceOnUse" gradientTransform="translate(431.439 201.256) rotate(-137.298) scale(1.68644)">
<stop offset="0.00561773" stop-color="#534741"/>
<stop offset="0.1684" stop-color="#5C5450"/>
<stop offset="0.4792" stop-color="#737577"/>
<stop offset="0.6742" stop-color="#838C92"/>
<stop offset="0.9793" stop-color="#333333"/>
<stop offset="0.9852" stop-color="#3E4042"/>
<stop offset="0.9965" stop-color="#5B6469"/>
<stop offset="1" stop-color="#657076"/>
</radialGradient>
<radialGradient id="paint15_radial" cx="0" cy="0" r="1" gradientUnits="userSpaceOnUse" gradientTransform="translate(418.664 214.032) rotate(-137.298) scale(1.68644)">
<stop offset="0.00561773" stop-color="#534741"/>
<stop offset="0.1684" stop-color="#5C5450"/>
<stop offset="0.4792" stop-color="#737577"/>
<stop offset="0.6742" stop-color="#838C92"/>
<stop offset="0.9793" stop-color="#333333"/>
<stop offset="0.9852" stop-color="#3E4042"/>
<stop offset="0.9965" stop-color="#5B6469"/>
<stop offset="1" stop-color="#657076"/>
</radialGradient>
<radialGradient id="paint16_radial" cx="0" cy="0" r="1" gradientUnits="userSpaceOnUse" gradientTransform="translate(434.085 207.643) rotate(-92.2963) scale(1.68641)">
<stop offset="0.00561773" stop-color="#534741"/>
<stop offset="0.1684" stop-color="#5C5450"/>
<stop offset="0.4792" stop-color="#737577"/>
<stop offset="0.6742" stop-color="#838C92"/>
<stop offset="0.9793" stop-color="#333333"/>
<stop offset="0.9852" stop-color="#3E4042"/>
<stop offset="0.9965" stop-color="#5B6469"/>
<stop offset="1" stop-color="#657076"/>
</radialGradient>
<radialGradient id="paint17_radial" cx="0" cy="0" r="1" gradientUnits="userSpaceOnUse" gradientTransform="translate(416.018 207.642) rotate(-92.2963) scale(1.68641)">
<stop offset="0.00561773" stop-color="#534741"/>
<stop offset="0.1684" stop-color="#5C5450"/>
<stop offset="0.4792" stop-color="#737577"/>
<stop offset="0.6742" stop-color="#838C92"/>
<stop offset="0.9793" stop-color="#333333"/>
<stop offset="0.9852" stop-color="#3E4042"/>
<stop offset="0.9965" stop-color="#5B6469"/>
<stop offset="1" stop-color="#657076"/>
</radialGradient>
<radialGradient id="paint18_radial" cx="0" cy="0" r="1" gradientUnits="userSpaceOnUse" gradientTransform="translate(431.439 214.03) rotate(-47.2976) scale(1.68644)">
<stop offset="0.00561773" stop-color="#534741"/>
<stop offset="0.1684" stop-color="#5C5450"/>
<stop offset="0.4792" stop-color="#737577"/>
<stop offset="0.6742" stop-color="#838C92"/>
<stop offset="0.9793" stop-color="#333333"/>
<stop offset="0.9852" stop-color="#3E4042"/>
<stop offset="0.9965" stop-color="#5B6469"/>
<stop offset="1" stop-color="#657076"/>
</radialGradient>
<radialGradient id="paint19_radial" cx="0" cy="0" r="1" gradientUnits="userSpaceOnUse" gradientTransform="translate(418.663 201.254) rotate(-47.2977) scale(1.68643)">
<stop offset="0.00561773" stop-color="#534741"/>
<stop offset="0.1684" stop-color="#5C5450"/>
<stop offset="0.4792" stop-color="#737577"/>
<stop offset="0.6742" stop-color="#838C92"/>
<stop offset="0.9793" stop-color="#333333"/>
<stop offset="0.9852" stop-color="#3E4042"/>
<stop offset="0.9965" stop-color="#5B6469"/>
<stop offset="1" stop-color="#657076"/>
</radialGradient>
</defs>
</svg>
