<svg width="640" height="354" viewBox="0 0 640 354" fill="none" xmlns="http://www.w3.org/2000/svg">
<g filter="url(#filter0_d)">
<rect x="2" y="2" width="628" height="342" rx="6" fill="white"/>
<path d="M39.6814 307.622C36.7204 307.622 34.0414 306.973 31.6444 305.676C29.2756 304.351 27.4144 302.546 26.0608 300.262C24.7072 297.949 24.0304 295.355 24.0304 292.478C24.0304 289.602 24.7072 287.022 26.0608 284.737C27.4144 282.425 29.2897 280.62 31.6867 279.323C34.0837 277.998 36.7627 277.335 39.7237 277.335C42.0361 277.335 44.1511 277.73 46.0687 278.519C47.9863 279.281 49.6219 280.423 50.9755 281.946L48.226 284.611C45.9982 282.27 43.2205 281.1 39.8929 281.1C37.6933 281.1 35.7052 281.593 33.9286 282.58C32.152 283.567 30.7561 284.935 29.7409 286.683C28.7539 288.403 28.2604 290.335 28.2604 292.478C28.2604 294.622 28.7539 296.567 29.7409 298.316C30.7561 300.036 32.152 301.39 33.9286 302.377C35.7052 303.364 37.6933 303.857 39.8929 303.857C43.1923 303.857 45.97 302.673 48.226 300.304L50.9755 302.969C49.6219 304.492 47.9722 305.648 46.0264 306.437C44.1088 307.227 41.9938 307.622 39.6814 307.622ZM64.4352 307.537C62.2074 307.537 60.2052 307.044 58.4286 306.057C56.652 305.07 55.2561 303.716 54.2409 301.996C53.2539 300.247 52.7604 298.273 52.7604 296.074C52.7604 293.874 53.2539 291.914 54.2409 290.194C55.2561 288.446 56.652 287.092 58.4286 286.133C60.2052 285.146 62.2074 284.653 64.4352 284.653C66.663 284.653 68.6511 285.146 70.3995 286.133C72.1761 287.092 73.5579 288.446 74.5449 290.194C75.5601 291.914 76.0677 293.874 76.0677 296.074C76.0677 298.273 75.5601 300.247 74.5449 301.996C73.5579 303.716 72.1761 305.07 70.3995 306.057C68.6511 307.044 66.663 307.537 64.4352 307.537ZM64.4352 303.984C65.8734 303.984 67.1565 303.66 68.2845 303.011C69.4407 302.334 70.3431 301.404 70.9917 300.219C71.6403 299.007 71.9646 297.625 71.9646 296.074C71.9646 294.523 71.6403 293.155 70.9917 291.971C70.3431 290.758 69.4407 289.828 68.2845 289.179C67.1565 288.53 65.8734 288.206 64.4352 288.206C62.997 288.206 61.6998 288.53 60.5436 289.179C59.4156 289.828 58.5132 290.758 57.8364 291.971C57.1878 293.155 56.8635 294.523 56.8635 296.074C56.8635 297.625 57.1878 299.007 57.8364 300.219C58.5132 301.404 59.4156 302.334 60.5436 303.011C61.6998 303.66 62.997 303.984 64.4352 303.984ZM100.268 284.864L90.4546 307.283H86.3092L76.4956 284.864H80.7256L88.4242 302.842L96.292 284.864H100.268ZM123.066 296.201C123.066 296.511 123.037 296.92 122.981 297.427H104.792C105.046 299.401 105.906 300.995 107.372 302.207C108.867 303.392 110.714 303.984 112.914 303.984C115.593 303.984 117.75 303.082 119.386 301.277L121.627 303.899C120.612 305.084 119.343 305.986 117.82 306.607C116.326 307.227 114.648 307.537 112.787 307.537C110.418 307.537 108.317 307.058 106.484 306.099C104.651 305.112 103.227 303.744 102.212 301.996C101.225 300.247 100.731 298.273 100.731 296.074C100.731 293.902 101.211 291.943 102.169 290.194C103.156 288.446 104.496 287.092 106.188 286.133C107.908 285.146 109.84 284.653 111.983 284.653C114.126 284.653 116.03 285.146 117.694 286.133C119.386 287.092 120.697 288.446 121.627 290.194C122.586 291.943 123.066 293.945 123.066 296.201ZM111.983 288.079C110.037 288.079 108.402 288.671 107.076 289.856C105.779 291.04 105.018 292.591 104.792 294.509H119.174C118.948 292.619 118.173 291.082 116.848 289.898C115.55 288.685 113.929 288.079 111.983 288.079ZM131.961 288.629C132.666 287.332 133.71 286.345 135.092 285.668C136.473 284.991 138.151 284.653 140.125 284.653V288.587C139.9 288.559 139.59 288.544 139.195 288.544C136.995 288.544 135.261 289.207 133.992 290.533C132.751 291.83 132.131 293.691 132.131 296.116V307.283H128.07V284.864H131.961V288.629ZM164.551 296.201C164.551 296.511 164.523 296.92 164.466 297.427H146.277C146.531 299.401 147.391 300.995 148.858 302.207C150.352 303.392 152.199 303.984 154.399 303.984C157.078 303.984 159.235 303.082 160.871 301.277L163.113 303.899C162.098 305.084 160.829 305.986 159.306 306.607C157.811 307.227 156.133 307.537 154.272 307.537C151.903 307.537 149.802 307.058 147.969 306.099C146.136 305.112 144.712 303.744 143.697 301.996C142.71 300.247 142.217 298.273 142.217 296.074C142.217 293.902 142.696 291.943 143.655 290.194C144.642 288.446 145.981 287.092 147.673 286.133C149.394 285.146 151.325 284.653 153.468 284.653C155.612 284.653 157.515 285.146 159.179 286.133C160.871 287.092 162.182 288.446 163.113 290.194C164.072 291.943 164.551 293.945 164.551 296.201ZM153.468 288.079C151.523 288.079 149.887 288.671 148.562 289.856C147.264 291.04 146.503 292.591 146.277 294.509H160.659C160.434 292.619 159.658 291.082 158.333 289.898C157.036 288.685 155.414 288.079 153.468 288.079ZM190.705 275.897V307.283H186.814V303.73C185.911 304.971 184.769 305.916 183.387 306.564C182.006 307.213 180.483 307.537 178.819 307.537C176.648 307.537 174.702 307.058 172.982 306.099C171.261 305.14 169.908 303.801 168.921 302.08C167.962 300.332 167.483 298.33 167.483 296.074C167.483 293.818 167.962 291.83 168.921 290.11C169.908 288.389 171.261 287.05 172.982 286.091C174.702 285.132 176.648 284.653 178.819 284.653C180.426 284.653 181.907 284.963 183.26 285.583C184.614 286.176 185.742 287.064 186.644 288.248V275.897H190.705ZM179.157 303.984C180.567 303.984 181.85 303.66 183.007 303.011C184.163 302.334 185.065 301.404 185.714 300.219C186.362 299.007 186.687 297.625 186.687 296.074C186.687 294.523 186.362 293.155 185.714 291.971C185.065 290.758 184.163 289.828 183.007 289.179C181.85 288.53 180.567 288.206 179.157 288.206C177.719 288.206 176.422 288.53 175.266 289.179C174.138 289.828 173.235 290.758 172.559 291.971C171.91 293.155 171.586 294.523 171.586 296.074C171.586 297.625 171.91 299.007 172.559 300.219C173.235 301.404 174.138 302.334 175.266 303.011C176.422 303.66 177.719 303.984 179.157 303.984ZM220.62 277.673C224.455 277.673 227.472 278.59 229.672 280.423C231.871 282.256 232.971 284.78 232.971 287.995C232.971 291.209 231.871 293.733 229.672 295.566C227.472 297.399 224.455 298.316 220.62 298.316H213.302V307.283H209.072V277.673H220.62ZM220.493 294.636C223.172 294.636 225.216 294.072 226.626 292.944C228.036 291.787 228.741 290.138 228.741 287.995C228.741 285.851 228.036 284.216 226.626 283.088C225.216 281.932 223.172 281.353 220.493 281.353H213.302V294.636H220.493ZM237.587 284.864H241.648V307.283H237.587V284.864ZM239.618 280.55C238.828 280.55 238.165 280.296 237.63 279.788C237.122 279.281 236.868 278.66 236.868 277.927C236.868 277.194 237.122 276.574 237.63 276.066C238.165 275.53 238.828 275.262 239.618 275.262C240.407 275.262 241.056 275.516 241.563 276.024C242.099 276.503 242.367 277.109 242.367 277.843C242.367 278.604 242.099 279.253 241.563 279.788C241.056 280.296 240.407 280.55 239.618 280.55ZM258.538 307.537C256.254 307.537 254.21 307.044 252.405 306.057C250.628 305.07 249.232 303.716 248.217 301.996C247.202 300.247 246.694 298.273 246.694 296.074C246.694 293.874 247.202 291.914 248.217 290.194C249.232 288.446 250.628 287.092 252.405 286.133C254.21 285.146 256.254 284.653 258.538 284.653C260.569 284.653 262.373 285.062 263.953 285.88C265.56 286.697 266.801 287.882 267.675 289.433L264.587 291.421C263.882 290.349 263.008 289.546 261.965 289.01C260.921 288.474 259.765 288.206 258.496 288.206C257.03 288.206 255.704 288.53 254.52 289.179C253.364 289.828 252.447 290.758 251.77 291.971C251.122 293.155 250.797 294.523 250.797 296.074C250.797 297.653 251.122 299.049 251.77 300.262C252.447 301.446 253.364 302.362 254.52 303.011C255.704 303.66 257.03 303.984 258.496 303.984C259.765 303.984 260.921 303.716 261.965 303.18C263.008 302.644 263.882 301.841 264.587 300.769L267.675 302.715C266.801 304.266 265.56 305.464 263.953 306.31C262.373 307.128 260.569 307.537 258.538 307.537ZM280.723 296.835L276.07 301.15V307.283H272.009V275.897H276.07V296.032L288.294 284.864H293.201L283.768 294.128L294.132 307.283H289.14L280.723 296.835ZM317.923 284.864V307.283H314.074V303.899C313.256 305.056 312.17 305.958 310.817 306.607C309.491 307.227 308.039 307.537 306.46 307.537C303.471 307.537 301.116 306.719 299.396 305.084C297.676 303.42 296.816 300.981 296.816 297.766V284.864H300.876V297.301C300.876 299.472 301.398 301.122 302.441 302.25C303.485 303.349 304.979 303.899 306.925 303.899C309.068 303.899 310.76 303.251 312.001 301.954C313.242 300.656 313.862 298.823 313.862 296.455V284.864H317.923ZM336.906 284.653C339.077 284.653 341.023 285.132 342.743 286.091C344.463 287.05 345.803 288.389 346.762 290.11C347.749 291.83 348.242 293.818 348.242 296.074C348.242 298.33 347.749 300.332 346.762 302.08C345.803 303.801 344.463 305.14 342.743 306.099C341.023 307.058 339.077 307.537 336.906 307.537C335.298 307.537 333.818 307.227 332.464 306.607C331.139 305.986 330.011 305.084 329.08 303.899V315.49H325.019V284.864H328.911V288.418C329.813 287.177 330.955 286.246 332.337 285.626C333.719 284.977 335.242 284.653 336.906 284.653ZM336.567 303.984C338.005 303.984 339.289 303.66 340.417 303.011C341.573 302.334 342.475 301.404 343.124 300.219C343.801 299.007 344.139 297.625 344.139 296.074C344.139 294.523 343.801 293.155 343.124 291.971C342.475 290.758 341.573 289.828 340.417 289.179C339.289 288.53 338.005 288.206 336.567 288.206C335.157 288.206 333.874 288.544 332.718 289.221C331.59 289.87 330.688 290.786 330.011 291.971C329.362 293.155 329.038 294.523 329.038 296.074C329.038 297.625 329.362 299.007 330.011 300.219C330.659 301.404 331.562 302.334 332.718 303.011C333.874 303.66 335.157 303.984 336.567 303.984Z" fill="#737577"/>
<path d="M112.327 184.518H126.957C127.047 184.518 127.12 184.591 127.12 184.682V205.278C127.12 205.368 127.047 205.441 126.957 205.441H112.327C112.237 205.441 112.163 205.368 112.163 205.278V184.682C112.163 184.591 112.237 184.518 112.327 184.518Z" fill="#B8B8B8" stroke="black" stroke-width="0.326926"/>
<mask id="path-6-inside-1" fill="white">
<path fill-rule="evenodd" clip-rule="evenodd" d="M152.87 74.3186C153.215 73.7781 153.816 73.4449 154.457 73.4449H236.199C237.237 73.4449 238.079 74.2865 238.079 75.3247V172.49H224.843V85.1677C224.843 84.1295 224.001 83.2878 222.963 83.2878H153.662C152.964 83.2878 152.32 83.6829 151.995 84.2999C137.138 112.511 129.777 128.318 127.263 147.267L127.263 184.54C127.214 184.51 127.155 184.492 127.093 184.492H115.566V159.536C115.566 159.355 115.593 159.172 115.644 158.999C127.25 119.783 135.652 101.332 152.87 74.3186ZM127.42 205.628H172.206C172.206 205.553 172.205 205.478 172.205 205.403C172.205 187.328 186.786 172.657 204.834 172.491V172.49H205.142H224.761V85.1677C224.761 84.1746 223.956 83.3696 222.963 83.3696H153.662C152.995 83.3696 152.378 83.7474 152.067 84.338C137.211 112.548 129.858 128.342 127.345 147.273L127.345 184.611C127.392 184.667 127.42 184.74 127.42 184.819V205.628ZM155.956 86.9609C155.337 86.9722 154.762 87.288 154.424 87.807C144.579 102.941 138.306 118.822 136.19 127.631L131.402 142.7C130.948 144.129 132.267 145.488 133.709 145.077L221.776 119.976C221.951 119.926 222.072 119.766 222.072 119.583V87.6632C222.072 86.6115 221.21 85.7644 220.158 85.7837L155.956 86.9609Z"/>
</mask>
<path fill-rule="evenodd" clip-rule="evenodd" d="M152.87 74.3186C153.215 73.7781 153.816 73.4449 154.457 73.4449H236.199C237.237 73.4449 238.079 74.2865 238.079 75.3247V172.49H224.843V85.1677C224.843 84.1295 224.001 83.2878 222.963 83.2878H153.662C152.964 83.2878 152.32 83.6829 151.995 84.2999C137.138 112.511 129.777 128.318 127.263 147.267L127.263 184.54C127.214 184.51 127.155 184.492 127.093 184.492H115.566V159.536C115.566 159.355 115.593 159.172 115.644 158.999C127.25 119.783 135.652 101.332 152.87 74.3186ZM127.42 205.628H172.206C172.206 205.553 172.205 205.478 172.205 205.403C172.205 187.328 186.786 172.657 204.834 172.491V172.49H205.142H224.761V85.1677C224.761 84.1746 223.956 83.3696 222.963 83.3696H153.662C152.995 83.3696 152.378 83.7474 152.067 84.338C137.211 112.548 129.858 128.342 127.345 147.273L127.345 184.611C127.392 184.667 127.42 184.74 127.42 184.819V205.628ZM155.956 86.9609C155.337 86.9722 154.762 87.288 154.424 87.807C144.579 102.941 138.306 118.822 136.19 127.631L131.402 142.7C130.948 144.129 132.267 145.488 133.709 145.077L221.776 119.976C221.951 119.926 222.072 119.766 222.072 119.583V87.6632C222.072 86.6115 221.21 85.7644 220.158 85.7837L155.956 86.9609Z" fill="#FFF3DC"/>
<path d="M152.87 74.3186L153.146 74.4943L153.146 74.4943L152.87 74.3186ZM238.079 172.49V172.817H238.406V172.49H238.079ZM224.843 172.49H224.516V172.817H224.843V172.49ZM151.995 84.2999L152.284 84.4522L152.284 84.4522L151.995 84.2999ZM127.263 147.267L126.939 147.224L126.936 147.246L126.936 147.267L127.263 147.267ZM127.263 184.54L127.093 184.819L127.59 185.123L127.59 184.54L127.263 184.54ZM115.566 184.492H115.239V184.819H115.566V184.492ZM115.644 158.999L115.958 159.092L115.958 159.092L115.644 158.999ZM127.42 205.628H127.093V205.955H127.42V205.628ZM172.206 205.628V205.955H172.535L172.533 205.626L172.206 205.628ZM204.834 172.491L204.837 172.818L205.161 172.815V172.491H204.834ZM204.834 172.49V172.163H204.507V172.49H204.834ZM224.761 172.49V172.817H225.088V172.49H224.761ZM152.067 84.338L151.778 84.1856L151.778 84.1856L152.067 84.338ZM127.345 147.273L127.021 147.23L127.018 147.251L127.018 147.273L127.345 147.273ZM127.345 184.611L127.018 184.611L127.018 184.728L127.093 184.819L127.345 184.611ZM154.424 87.807L154.699 87.9853L154.699 87.9853L154.424 87.807ZM155.956 86.9609L155.962 87.2877L155.962 87.2877L155.956 86.9609ZM136.19 127.631L136.502 127.73L136.505 127.719L136.508 127.708L136.19 127.631ZM131.402 142.7L131.09 142.601L131.09 142.601L131.402 142.7ZM133.709 145.077L133.619 144.763L133.619 144.763L133.709 145.077ZM221.776 119.976L221.686 119.662L221.686 119.662L221.776 119.976ZM220.158 85.7837L220.164 86.1106L220.164 86.1106L220.158 85.7837ZM154.457 73.118C153.703 73.118 152.998 73.5092 152.594 74.1429L153.146 74.4943C153.431 74.047 153.929 73.7718 154.457 73.7718V73.118ZM236.199 73.118H154.457V73.7718H236.199V73.118ZM238.406 75.3247C238.406 74.106 237.418 73.118 236.199 73.118V73.7718C237.057 73.7718 237.752 74.4671 237.752 75.3247H238.406ZM238.406 172.49V75.3247H237.752V172.49H238.406ZM224.843 172.817H238.079V172.163H224.843V172.817ZM224.516 85.1677V172.49H225.17V85.1677H224.516ZM222.963 83.6148C223.821 83.6148 224.516 84.31 224.516 85.1677H225.17C225.17 83.9489 224.182 82.9609 222.963 82.9609V83.6148ZM153.662 83.6148H222.963V82.9609H153.662V83.6148ZM152.284 84.4522C152.553 83.9409 153.088 83.6148 153.662 83.6148V82.9609C152.841 82.9609 152.086 83.4248 151.705 84.1476L152.284 84.4522ZM127.587 147.31C130.093 128.426 137.425 112.667 152.284 84.4522L151.705 84.1476C136.851 112.356 129.462 128.209 126.939 147.224L127.587 147.31ZM127.59 184.54L127.59 147.267L126.936 147.267L126.936 184.54L127.59 184.54ZM127.093 184.819L127.093 184.819L127.434 184.261C127.334 184.2 127.217 184.165 127.093 184.165V184.819ZM115.566 184.819H127.093V184.165H115.566V184.819ZM115.239 159.536V184.492H115.893V159.536H115.239ZM115.331 158.906C115.271 159.108 115.239 159.323 115.239 159.536H115.893C115.893 159.387 115.915 159.235 115.958 159.092L115.331 158.906ZM152.594 74.1429C135.357 101.186 126.944 119.665 115.331 158.906L115.958 159.092C127.557 119.9 135.946 101.478 153.146 74.4943L152.594 74.1429ZM127.42 205.955H172.206V205.301H127.42V205.955ZM172.533 205.626C172.533 205.552 172.532 205.477 172.532 205.403H171.878C171.878 205.479 171.879 205.555 171.879 205.631L172.533 205.626ZM172.532 205.403C172.532 187.508 186.968 172.982 204.837 172.818L204.831 172.165C186.604 172.331 171.878 187.148 171.878 205.403H172.532ZM205.161 172.491V172.49H204.507V172.491H205.161ZM204.834 172.817H205.142V172.163H204.834V172.817ZM205.142 172.817H224.761V172.163H205.142V172.817ZM225.088 172.49V85.1677H224.434V172.49H225.088ZM225.088 85.1677C225.088 83.9941 224.136 83.0426 222.963 83.0426V83.6965C223.775 83.6965 224.434 84.3552 224.434 85.1677H225.088ZM222.963 83.0426H153.662V83.6965H222.963V83.0426ZM153.662 83.0426C152.872 83.0426 152.144 83.4893 151.778 84.1856L152.356 84.4903C152.611 84.0054 153.118 83.6965 153.662 83.6965V83.0426ZM151.778 84.1856C136.924 112.392 129.542 128.234 127.021 147.23L127.669 147.316C130.173 128.45 137.499 112.703 152.356 84.4903L151.778 84.1856ZM127.018 147.273L127.018 184.611L127.672 184.611L127.672 147.273L127.018 147.273ZM127.093 184.819L127.093 184.819H127.747C127.747 184.661 127.69 184.516 127.597 184.403L127.093 184.819ZM127.093 184.819V205.628H127.747V184.819H127.093ZM154.699 87.9853C154.976 87.5581 155.451 87.2971 155.962 87.2877L155.95 86.634C155.224 86.6473 154.548 87.0179 154.15 87.6288L154.699 87.9853ZM136.508 127.708C138.615 118.938 144.871 103.091 154.699 87.9853L154.15 87.6288C144.286 102.791 137.998 118.706 135.872 127.555L136.508 127.708ZM131.713 142.799L136.502 127.73L135.879 127.532L131.09 142.601L131.713 142.799ZM133.619 144.763C132.428 145.102 131.338 143.979 131.713 142.799L131.09 142.601C130.557 144.278 132.106 145.874 133.798 145.392L133.619 144.763ZM221.686 119.662L133.619 144.763L133.798 145.392L221.865 120.29L221.686 119.662ZM221.745 119.583C221.745 119.62 221.721 119.652 221.686 119.662L221.865 120.29C222.181 120.2 222.399 119.912 222.399 119.583H221.745ZM221.745 87.6632V119.583H222.399V87.6632H221.745ZM220.164 86.1106C221.033 86.0947 221.745 86.7944 221.745 87.6632H222.399C222.399 86.4286 221.386 85.4342 220.152 85.4568L220.164 86.1106ZM155.962 87.2877L220.164 86.1106L220.152 85.4568L155.95 86.634L155.962 87.2877Z" fill="black" mask="url(#path-6-inside-1)"/>
<mask id="path-8-inside-2" fill="white">
<path fill-rule="evenodd" clip-rule="evenodd" d="M246.213 74.0601H238.21V186.639H246.213L246.213 186.639H262.527L277.611 180.683H246.213L246.213 74.0601Z"/>
</mask>
<path fill-rule="evenodd" clip-rule="evenodd" d="M246.213 74.0601H238.21V186.639H246.213L246.213 186.639H262.527L277.611 180.683H246.213L246.213 74.0601Z" fill="#FFF3DC"/>
<path d="M238.21 74.0601V73.7331H237.883V74.0601H238.21ZM246.213 74.0601L246.54 74.0601L246.54 73.7331H246.213V74.0601ZM238.21 186.639H237.883V186.966H238.21V186.639ZM246.213 186.639L246.53 186.719L246.632 186.312H246.213V186.639ZM246.213 186.639L245.896 186.56L245.794 186.966H246.213V186.639ZM262.527 186.639V186.966H262.59L262.648 186.944L262.527 186.639ZM277.611 180.683L277.731 180.987L277.611 180.356V180.683ZM246.213 180.683L245.886 180.683L245.886 181.01H246.213V180.683ZM238.21 74.387H246.213V73.7331H238.21V74.387ZM238.537 186.639V74.0601H237.883V186.639H238.537ZM246.213 186.312H238.21V186.966H246.213V186.312ZM246.53 186.719L246.53 186.719L245.896 186.56L245.896 186.56L246.53 186.719ZM262.527 186.313H246.213V186.966H262.527V186.313ZM277.491 180.379L262.407 186.335L262.648 186.944L277.731 180.987L277.491 180.379ZM246.213 181.01H277.611V180.356H246.213V181.01ZM245.886 74.0601L245.886 180.683L246.54 180.683L246.54 74.0601L245.886 74.0601Z" fill="black" mask="url(#path-8-inside-2)"/>
<path d="M220.877 172.55L227.544 172.55C232.869 182.871 237.576 186.247 241.139 199.615C244.702 212.984 239.321 202.021 239.321 202.021C233.788 188.877 229.356 182.295 220.877 172.55Z" fill="black"/>
<path d="M204.379 175.855C219.629 175.855 231.982 188.208 231.982 203.457C231.982 218.707 219.629 231.06 204.379 231.06C189.13 231.06 176.776 218.707 176.776 203.457C176.776 188.208 189.167 175.855 204.379 175.855ZM204.379 224.132C215.816 224.132 225.054 214.858 225.054 203.457C225.054 192.057 215.78 182.783 204.379 182.783C192.979 182.783 183.705 192.057 183.705 203.457C183.705 214.858 192.979 224.132 204.379 224.132Z" fill="url(#paint0_radial)"/>
<path d="M204.489 224.059C193.051 224.059 183.778 214.786 183.778 203.347C183.778 191.909 193.051 182.636 204.489 182.636C215.928 182.636 225.2 191.909 225.2 203.347C225.2 214.786 215.928 224.059 204.489 224.059Z" fill="url(#paint1_radial)"/>
<path d="M203.683 192.937L205.479 192.863L206.432 194.366L205.589 195.979L203.793 196.053L202.84 194.513L203.683 192.937Z" fill="url(#paint2_radial)"/>
<path d="M203.683 210.899L205.479 210.825L206.432 212.328L205.589 213.941L203.793 214.014L202.84 212.475L203.683 210.899Z" fill="url(#paint3_radial)"/>
<path d="M211.491 195.356L212.81 196.566L212.444 198.325L210.721 198.839L209.401 197.629L209.804 195.869L211.491 195.356Z" fill="url(#paint4_radial)"/>
<path d="M198.807 208.039L200.127 209.249L199.724 211.009L198.001 211.559L196.681 210.312L197.084 208.589L198.807 208.039Z" fill="url(#paint5_radial)"/>
<path d="M215.266 202.504L215.34 204.264L213.8 205.253L212.224 204.41L212.151 202.614L213.653 201.661L215.266 202.504Z" fill="url(#paint6_radial)"/>
<path d="M197.304 202.504L197.378 204.264L195.838 205.253L194.262 204.41L194.189 202.614L195.691 201.661L197.304 202.504Z" fill="url(#paint7_radial)"/>
<path d="M212.847 210.202L211.637 211.522L209.878 211.119L209.365 209.396L210.574 208.076L212.334 208.479L212.847 210.202Z" fill="url(#paint8_radial)"/>
<path d="M200.164 197.482L198.954 198.802L197.194 198.399L196.645 196.712L197.891 195.393L199.614 195.759L200.164 197.482Z" fill="url(#paint9_radial)"/>
<path d="M428.814 180.186C444.063 180.186 456.417 192.54 456.417 207.789C456.417 223.038 444.063 235.392 428.814 235.392C413.565 235.392 401.211 223.038 401.211 207.789C401.211 192.54 413.601 180.186 428.814 180.186ZM428.814 228.464C440.251 228.464 449.489 219.189 449.489 207.789C449.489 196.389 440.214 187.115 428.814 187.115C417.414 187.115 408.14 196.389 408.14 207.789C408.14 219.189 417.414 228.464 428.814 228.464Z" fill="url(#paint10_radial)"/>
<path d="M428.924 228.39C417.486 228.39 408.213 219.118 408.213 207.679C408.213 196.241 417.486 186.968 428.924 186.968C440.363 186.968 449.635 196.241 449.635 207.679C449.635 219.118 440.363 228.39 428.924 228.39Z" fill="url(#paint11_radial)"/>
<path d="M428.118 197.268L429.914 197.195L430.867 198.698L430.024 200.311L428.228 200.384L427.275 198.845L428.118 197.268Z" fill="url(#paint12_radial)"/>
<path d="M428.118 215.23L429.914 215.157L430.867 216.66L430.024 218.273L428.228 218.346L427.275 216.807L428.118 215.23Z" fill="url(#paint13_radial)"/>
<path d="M435.926 199.688L437.245 200.898L436.879 202.657L435.156 203.17L433.836 201.961L434.239 200.201L435.926 199.688Z" fill="url(#paint14_radial)"/>
<path d="M423.242 212.371L424.562 213.581L424.159 215.34L422.436 215.89L421.116 214.644L421.519 212.921L423.242 212.371Z" fill="url(#paint15_radial)"/>
<path d="M439.701 206.836L439.775 208.596L438.235 209.585L436.659 208.742L436.585 206.946L438.088 205.993L439.701 206.836Z" fill="url(#paint16_radial)"/>
<path d="M421.739 206.836L421.813 208.596L420.273 209.585L418.697 208.742L418.623 206.946L420.126 205.993L421.739 206.836Z" fill="url(#paint17_radial)"/>
<path d="M437.282 214.534L436.072 215.854L434.313 215.45L433.8 213.727L435.009 212.408L436.769 212.811L437.282 214.534Z" fill="url(#paint18_radial)"/>
<path d="M424.599 201.814L423.389 203.134L421.629 202.73L421.08 201.044L422.326 199.724L424.049 200.091L424.599 201.814Z" fill="url(#paint19_radial)"/>
<mask id="path-31-inside-3" fill="white">
<path fill-rule="evenodd" clip-rule="evenodd" d="M314.403 180.758H317.481V196.138H351.342V180.758H354.42V196.138H388.28V180.758H391.359V199.214H388.28V199.214H354.42V199.214H351.342V199.214H317.481V199.214H314.403V199.214H280.543V199.214H277.465V180.759H280.543V196.138H314.403V180.758Z"/>
</mask>
<path fill-rule="evenodd" clip-rule="evenodd" d="M314.403 180.758H317.481V196.138H351.342V180.758H354.42V196.138H388.28V180.758H391.359V199.214H388.28V199.214H354.42V199.214H351.342V199.214H317.481V199.214H314.403V199.214H280.543V199.214H277.465V180.759H280.543V196.138H314.403V180.758Z" fill="#B8B8B8"/>
<path d="M317.481 180.758H317.808V180.431H317.481V180.758ZM314.403 180.758V180.431H314.076V180.758H314.403ZM317.481 196.138H317.155V196.465H317.481V196.138ZM351.342 196.138V196.465H351.669V196.138H351.342ZM351.342 180.758V180.431H351.015V180.758H351.342ZM354.42 180.758H354.747V180.431H354.42V180.758ZM354.42 196.138H354.093V196.465H354.42V196.138ZM388.28 196.138V196.465H388.607V196.138H388.28ZM388.28 180.758V180.431H387.953V180.758H388.28ZM391.359 180.758H391.685V180.431H391.359V180.758ZM391.359 199.214V199.541H391.685V199.214H391.359ZM388.28 199.214H387.953V199.541H388.28V199.214ZM388.28 199.214H388.607V198.887H388.28V199.214ZM354.42 199.214V198.887H354.093V199.214H354.42ZM354.42 199.214V199.541H354.747V199.214H354.42ZM351.342 199.214H351.015V199.541H351.342V199.214ZM351.342 199.214H351.669V198.887H351.342V199.214ZM317.481 199.214V198.887H317.155V199.214H317.481ZM317.481 199.214V199.541H317.808V199.214H317.481ZM314.403 199.214H314.076V199.541H314.403V199.214ZM314.403 199.214H314.73V198.887H314.403V199.214ZM280.543 199.214V198.887H280.216V199.214H280.543ZM280.543 199.214V199.541H280.87V199.214H280.543ZM277.465 199.214H277.138V199.541H277.465V199.214ZM277.465 180.759V180.432H277.138V180.759H277.465ZM280.543 180.759H280.87V180.432H280.543V180.759ZM280.543 196.138H280.216V196.465H280.543V196.138ZM314.403 196.138V196.465H314.73V196.138H314.403ZM317.481 180.431H314.403V181.085H317.481V180.431ZM317.808 196.138V180.758H317.155V196.138H317.808ZM317.481 196.465H351.342V195.811H317.481V196.465ZM351.669 196.138V180.758H351.015V196.138H351.669ZM351.342 181.085H354.42V180.431H351.342V181.085ZM354.093 180.758V196.138H354.747V180.758H354.093ZM354.42 196.465H388.28V195.811H354.42V196.465ZM387.953 180.758V196.138H388.607V180.758H387.953ZM391.359 180.431H388.28V181.085H391.359V180.431ZM391.685 199.214V180.758H391.032V199.214H391.685ZM388.28 199.541H391.359V198.887H388.28V199.541ZM387.953 199.214V199.214H388.607V199.214H387.953ZM388.28 198.887H354.42V199.541H388.28V198.887ZM354.093 199.214V199.214H354.747V199.214H354.093ZM354.42 198.887H351.342V199.541H354.42V198.887ZM351.669 199.214V199.214H351.015V199.214H351.669ZM351.342 198.887H317.481V199.541H351.342V198.887ZM317.808 199.214V199.214H317.155V199.214H317.808ZM314.403 199.541H317.481V198.887H314.403V199.541ZM314.076 199.214V199.214H314.73V199.214H314.076ZM314.403 198.887H280.543V199.541H314.403V198.887ZM280.87 199.214V199.214H280.216V199.214H280.87ZM277.465 199.541H280.543V198.888H277.465V199.541ZM277.138 180.759V199.214H277.792V180.759H277.138ZM280.543 180.432H277.465V181.086H280.543V180.432ZM280.87 196.138V180.759H280.216V196.138H280.87ZM280.543 196.465H314.403V195.811H280.543V196.465ZM314.076 180.758V196.138H314.73V180.758H314.076Z" fill="black" mask="url(#path-31-inside-3)"/>
<mask id="path-33-inside-4" fill="white">
<path fill-rule="evenodd" clip-rule="evenodd" d="M505.202 180.737H502.124V196.117H468.264V180.738H465.185V199.193H468.264V199.193H502.124V199.193H505.202V199.193H518.903C518.905 199.193 518.907 199.193 518.91 199.193H525.97C526.061 199.193 526.134 199.12 526.134 199.029V187.052C526.134 186.962 526.061 186.889 525.97 186.889H518.91C518.819 186.889 518.746 186.962 518.746 187.053V196.117H505.202V180.737Z"/>
</mask>
<path fill-rule="evenodd" clip-rule="evenodd" d="M505.202 180.737H502.124V196.117H468.264V180.738H465.185V199.193H468.264V199.193H502.124V199.193H505.202V199.193H518.903C518.905 199.193 518.907 199.193 518.91 199.193H525.97C526.061 199.193 526.134 199.12 526.134 199.029V187.052C526.134 186.962 526.061 186.889 525.97 186.889H518.91C518.819 186.889 518.746 186.962 518.746 187.053V196.117H505.202V180.737Z" fill="#B8B8B8"/>
<path d="M502.124 180.737V180.41H501.797V180.737H502.124ZM505.202 180.737H505.529V180.41H505.202V180.737ZM502.124 196.117V196.444H502.451V196.117H502.124ZM468.264 196.117H467.937V196.444H468.264V196.117ZM468.264 180.738H468.59V180.411H468.264V180.738ZM465.185 180.738V180.411H464.858V180.738H465.185ZM465.185 199.193H464.858V199.52H465.185V199.193ZM468.264 199.193V199.52H468.59V199.193H468.264ZM468.264 199.193V198.866H467.937V199.193H468.264ZM502.124 199.193H502.451V198.866H502.124V199.193ZM502.124 199.193H501.797V199.52H502.124V199.193ZM505.202 199.193V199.52H505.529V199.193H505.202ZM505.202 199.193V198.866H504.875V199.193H505.202ZM518.903 199.193L518.916 198.866H518.903V199.193ZM518.746 196.117V196.444H519.073V196.117H518.746ZM505.202 196.117H504.875V196.444H505.202V196.117ZM502.124 181.064H505.202V180.41H502.124V181.064ZM502.451 196.117V180.737H501.797V196.117H502.451ZM468.264 196.444H502.124V195.79H468.264V196.444ZM467.937 180.738V196.117H468.59V180.738H467.937ZM465.185 181.065H468.264V180.411H465.185V181.065ZM465.512 199.193V180.738H464.858V199.193H465.512ZM468.264 198.866H465.185V199.52H468.264V198.866ZM467.937 199.193V199.193H468.59V199.193H467.937ZM502.124 198.866H468.264V199.52H502.124V198.866ZM502.451 199.193V199.193H501.797V199.193H502.451ZM505.202 198.866H502.124V199.52H505.202V198.866ZM504.875 199.193V199.193H505.529V199.193H504.875ZM518.903 198.866H505.202V199.52H518.903V198.866ZM518.91 198.866C518.912 198.866 518.914 198.866 518.916 198.866L518.89 199.519C518.896 199.52 518.903 199.52 518.91 199.52V198.866ZM525.97 198.866H518.91V199.52H525.97V198.866ZM525.807 199.029C525.807 198.939 525.88 198.866 525.97 198.866V199.52C526.241 199.52 526.461 199.3 526.461 199.029H525.807ZM525.807 187.052V199.029H526.461V187.052H525.807ZM525.97 187.216C525.88 187.216 525.807 187.143 525.807 187.052H526.461C526.461 186.782 526.241 186.562 525.97 186.562V187.216ZM518.91 187.216H525.97V186.562H518.91V187.216ZM519.073 187.053C519.073 187.143 519 187.216 518.91 187.216V186.562C518.639 186.562 518.419 186.782 518.419 187.053H519.073ZM519.073 196.117V187.053H518.419V196.117H519.073ZM505.202 196.444H518.746V195.79H505.202V196.444ZM504.875 180.737V196.117H505.529V180.737H504.875Z" fill="black" mask="url(#path-33-inside-4)"/>
<rect x="246.18" y="149.556" width="273.634" height="31.0476" rx="0.245195" fill="#FFF3DC" stroke="black" stroke-width="0.326926"/>
<rect x="246.203" y="33.8458" width="273.637" height="115.242" rx="0.245195" fill="#2F80ED" stroke="black" stroke-width="0.326926"/>
<path d="M264.248 157.665L271.157 169.18C271.19 169.235 271.151 169.304 271.087 169.304H257.269C257.205 169.304 257.166 169.235 257.199 169.18L264.108 157.665C264.14 157.613 264.216 157.613 264.248 157.665Z" fill="#FF0000" stroke="black" stroke-width="0.163463"/>
<path d="M501.886 157.665L508.795 169.18C508.828 169.235 508.789 169.304 508.725 169.304H494.907C494.844 169.304 494.804 169.235 494.837 169.18L501.746 157.665C501.778 157.613 501.854 157.613 501.886 157.665Z" fill="#FF0000" stroke="black" stroke-width="0.163463"/>
<path d="M447.272 180.669L453.675 180.669C456.77 187.492 460.44 189.243 461.46 198.623C462.479 208.003 459.439 200.71 459.439 200.71C456.617 191.817 453.288 186.551 447.272 180.669Z" fill="black"/>
<path d="M410.551 180.669L404.148 180.669C401.053 187.492 397.383 189.243 396.363 198.623C395.343 208.003 398.384 200.71 398.384 200.71C401.206 191.817 404.535 186.551 410.551 180.669Z" fill="black"/>
<path d="M137.931 134.284C137.415 139.906 135.621 140.977 131.28 141.308" stroke="black" stroke-width="0.0817316"/>
<path d="M139.915 118.397C139.925 118.359 139.961 118.332 140 118.333L141.664 118.394C141.713 118.396 141.748 118.44 141.739 118.488L137.421 141.466C137.409 141.529 137.332 141.556 137.285 141.515L134.589 139.194C134.566 139.174 134.557 139.143 134.564 139.114L139.915 118.397Z" fill="black"/>
<path d="M520.413 75.856V173.566L525.644 176.549L523 110.302L521.313 77.4882L520.413 75.856Z" fill="#B8B8B8" stroke="black" stroke-width="0.326926"/>
<path d="M522.129 172.953H519.841V180.636H522.129C524.251 180.636 525.97 178.916 525.97 176.794C525.97 174.673 524.251 172.953 522.129 172.953Z" fill="#B8B8B8" stroke="black" stroke-width="0.326926"/>
<circle r="0.939913" transform="matrix(-1 0 0 1 522.66 176.754)" stroke="black" stroke-width="0.326926"/>
<ellipse opacity="0.5" cx="320" cy="232.5" rx="193" ry="5.5" fill="#403F45" fill-opacity="0.72"/>
<rect x="1" y="1" width="630" height="344" stroke="#C4C4C4" stroke-width="2"/>
</g>
<defs>
<filter id="filter0_d" x="0" y="0" width="640" height="354" filterUnits="userSpaceOnUse" color-interpolation-filters="sRGB">
<feFlood flood-opacity="0" result="BackgroundImageFix"/>
<feColorMatrix in="SourceAlpha" type="matrix" values="0 0 0 0 0 0 0 0 0 0 0 0 0 0 0 0 0 0 127 0"/>
<feOffset dx="4" dy="4"/>
<feGaussianBlur stdDeviation="2"/>
<feColorMatrix type="matrix" values="0 0 0 0 0 0 0 0 0 0 0 0 0 0 0 0 0 0 0.25 0"/>
<feBlend mode="normal" in2="BackgroundImageFix" result="effect1_dropShadow"/>
<feBlend mode="normal" in="SourceGraphic" in2="effect1_dropShadow" result="shape"/>
</filter>
<radialGradient id="paint0_radial" cx="0" cy="0" r="1" gradientUnits="userSpaceOnUse" gradientTransform="translate(204.398 203.439) rotate(180) scale(27.5844)">
<stop offset="0.7777" stop-color="#1A1A1A"/>
<stop offset="0.8882" stop-color="#333333"/>
<stop offset="1"/>
</radialGradient>
<radialGradient id="paint1_radial" cx="0" cy="0" r="1" gradientUnits="userSpaceOnUse" gradientTransform="translate(204.489 203.347) rotate(180) scale(20.7112)">
<stop stop-color="#8D8C8C"/>
<stop offset="0.0810056" stop-color="#898989"/>
<stop offset="0.1659" stop-color="#808080"/>
<stop offset="0.2687" stop-color="#868686"/>
<stop offset="0.3295" stop-color="#A4A4A4"/>
<stop offset="0.3447" stop-color="#ACACAC"/>
<stop offset="0.5274" stop-color="#B3B3B3"/>
<stop offset="0.5715" stop-color="#A4A4A4"/>
<stop offset="0.6558" stop-color="#7D7D7D"/>
<stop offset="0.7012" stop-color="#666666"/>
<stop offset="0.7387" stop-color="#6F6F70"/>
<stop offset="0.8018" stop-color="#88898A"/>
<stop offset="0.8676" stop-color="#A8AAAC"/>
<stop offset="0.927" stop-color="#7E8486"/>
<stop offset="1" stop-color="#465053"/>
</radialGradient>
<radialGradient id="paint2_radial" cx="0" cy="0" r="1" gradientUnits="userSpaceOnUse" gradientTransform="translate(204.632 194.452) rotate(177.704) scale(1.67659)">
<stop offset="0.00561773" stop-color="#534741"/>
<stop offset="0.1684" stop-color="#5C5450"/>
<stop offset="0.4792" stop-color="#737577"/>
<stop offset="0.6742" stop-color="#838C92"/>
<stop offset="0.9793" stop-color="#333333"/>
<stop offset="0.9852" stop-color="#3E4042"/>
<stop offset="0.9965" stop-color="#5B6469"/>
<stop offset="1" stop-color="#657076"/>
</radialGradient>
<radialGradient id="paint3_radial" cx="0" cy="0" r="1" gradientUnits="userSpaceOnUse" gradientTransform="translate(204.632 212.414) rotate(177.704) scale(1.67659)">
<stop offset="0.00561773" stop-color="#534741"/>
<stop offset="0.1684" stop-color="#5C5450"/>
<stop offset="0.4792" stop-color="#737577"/>
<stop offset="0.6742" stop-color="#838C92"/>
<stop offset="0.9793" stop-color="#333333"/>
<stop offset="0.9852" stop-color="#3E4042"/>
<stop offset="0.9965" stop-color="#5B6469"/>
<stop offset="1" stop-color="#657076"/>
</radialGradient>
<radialGradient id="paint4_radial" cx="0" cy="0" r="1" gradientUnits="userSpaceOnUse" gradientTransform="translate(211.108 197.095) rotate(-137.298) scale(1.67661)">
<stop offset="0.00561773" stop-color="#534741"/>
<stop offset="0.1684" stop-color="#5C5450"/>
<stop offset="0.4792" stop-color="#737577"/>
<stop offset="0.6742" stop-color="#838C92"/>
<stop offset="0.9793" stop-color="#333333"/>
<stop offset="0.9852" stop-color="#3E4042"/>
<stop offset="0.9965" stop-color="#5B6469"/>
<stop offset="1" stop-color="#657076"/>
</radialGradient>
<radialGradient id="paint5_radial" cx="0" cy="0" r="1" gradientUnits="userSpaceOnUse" gradientTransform="translate(198.407 209.797) rotate(-137.298) scale(1.67661)">
<stop offset="0.00561773" stop-color="#534741"/>
<stop offset="0.1684" stop-color="#5C5450"/>
<stop offset="0.4792" stop-color="#737577"/>
<stop offset="0.6742" stop-color="#838C92"/>
<stop offset="0.9793" stop-color="#333333"/>
<stop offset="0.9852" stop-color="#3E4042"/>
<stop offset="0.9965" stop-color="#5B6469"/>
<stop offset="1" stop-color="#657076"/>
</radialGradient>
<radialGradient id="paint6_radial" cx="0" cy="0" r="1" gradientUnits="userSpaceOnUse" gradientTransform="translate(213.739 203.445) rotate(-92.2963) scale(1.67659)">
<stop offset="0.00561773" stop-color="#534741"/>
<stop offset="0.1684" stop-color="#5C5450"/>
<stop offset="0.4792" stop-color="#737577"/>
<stop offset="0.6742" stop-color="#838C92"/>
<stop offset="0.9793" stop-color="#333333"/>
<stop offset="0.9852" stop-color="#3E4042"/>
<stop offset="0.9965" stop-color="#5B6469"/>
<stop offset="1" stop-color="#657076"/>
</radialGradient>
<radialGradient id="paint7_radial" cx="0" cy="0" r="1" gradientUnits="userSpaceOnUse" gradientTransform="translate(195.777 203.445) rotate(-92.2963) scale(1.67659)">
<stop offset="0.00561773" stop-color="#534741"/>
<stop offset="0.1684" stop-color="#5C5450"/>
<stop offset="0.4792" stop-color="#737577"/>
<stop offset="0.6742" stop-color="#838C92"/>
<stop offset="0.9793" stop-color="#333333"/>
<stop offset="0.9852" stop-color="#3E4042"/>
<stop offset="0.9965" stop-color="#5B6469"/>
<stop offset="1" stop-color="#657076"/>
</radialGradient>
<radialGradient id="paint8_radial" cx="0" cy="0" r="1" gradientUnits="userSpaceOnUse" gradientTransform="translate(211.108 209.795) rotate(-47.2977) scale(1.67661)">
<stop offset="0.00561773" stop-color="#534741"/>
<stop offset="0.1684" stop-color="#5C5450"/>
<stop offset="0.4792" stop-color="#737577"/>
<stop offset="0.6742" stop-color="#838C92"/>
<stop offset="0.9793" stop-color="#333333"/>
<stop offset="0.9852" stop-color="#3E4042"/>
<stop offset="0.9965" stop-color="#5B6469"/>
<stop offset="1" stop-color="#657076"/>
</radialGradient>
<radialGradient id="paint9_radial" cx="0" cy="0" r="1" gradientUnits="userSpaceOnUse" gradientTransform="translate(198.406 197.094) rotate(-47.2977) scale(1.67661)">
<stop offset="0.00561773" stop-color="#534741"/>
<stop offset="0.1684" stop-color="#5C5450"/>
<stop offset="0.4792" stop-color="#737577"/>
<stop offset="0.6742" stop-color="#838C92"/>
<stop offset="0.9793" stop-color="#333333"/>
<stop offset="0.9852" stop-color="#3E4042"/>
<stop offset="0.9965" stop-color="#5B6469"/>
<stop offset="1" stop-color="#657076"/>
</radialGradient>
<radialGradient id="paint10_radial" cx="0" cy="0" r="1" gradientUnits="userSpaceOnUse" gradientTransform="translate(428.832 207.771) rotate(180) scale(27.5844)">
<stop offset="0.7777" stop-color="#1A1A1A"/>
<stop offset="0.8882" stop-color="#333333"/>
<stop offset="1"/>
</radialGradient>
<radialGradient id="paint11_radial" cx="0" cy="0" r="1" gradientUnits="userSpaceOnUse" gradientTransform="translate(428.924 207.679) rotate(180) scale(20.7112)">
<stop stop-color="#8D8C8C"/>
<stop offset="0.0810056" stop-color="#898989"/>
<stop offset="0.1659" stop-color="#808080"/>
<stop offset="0.2687" stop-color="#868686"/>
<stop offset="0.3295" stop-color="#A4A4A4"/>
<stop offset="0.3447" stop-color="#ACACAC"/>
<stop offset="0.5274" stop-color="#B3B3B3"/>
<stop offset="0.5715" stop-color="#A4A4A4"/>
<stop offset="0.6558" stop-color="#7D7D7D"/>
<stop offset="0.7012" stop-color="#666666"/>
<stop offset="0.7387" stop-color="#6F6F70"/>
<stop offset="0.8018" stop-color="#88898A"/>
<stop offset="0.8676" stop-color="#A8AAAC"/>
<stop offset="0.927" stop-color="#7E8486"/>
<stop offset="1" stop-color="#465053"/>
</radialGradient>
<radialGradient id="paint12_radial" cx="0" cy="0" r="1" gradientUnits="userSpaceOnUse" gradientTransform="translate(429.067 198.784) rotate(177.704) scale(1.67658)">
<stop offset="0.00561773" stop-color="#534741"/>
<stop offset="0.1684" stop-color="#5C5450"/>
<stop offset="0.4792" stop-color="#737577"/>
<stop offset="0.6742" stop-color="#838C92"/>
<stop offset="0.9793" stop-color="#333333"/>
<stop offset="0.9852" stop-color="#3E4042"/>
<stop offset="0.9965" stop-color="#5B6469"/>
<stop offset="1" stop-color="#657076"/>
</radialGradient>
<radialGradient id="paint13_radial" cx="0" cy="0" r="1" gradientUnits="userSpaceOnUse" gradientTransform="translate(429.067 216.746) rotate(177.704) scale(1.67658)">
<stop offset="0.00561773" stop-color="#534741"/>
<stop offset="0.1684" stop-color="#5C5450"/>
<stop offset="0.4792" stop-color="#737577"/>
<stop offset="0.6742" stop-color="#838C92"/>
<stop offset="0.9793" stop-color="#333333"/>
<stop offset="0.9852" stop-color="#3E4042"/>
<stop offset="0.9965" stop-color="#5B6469"/>
<stop offset="1" stop-color="#657076"/>
</radialGradient>
<radialGradient id="paint14_radial" cx="0" cy="0" r="1" gradientUnits="userSpaceOnUse" gradientTransform="translate(435.543 201.427) rotate(-137.298) scale(1.67661)">
<stop offset="0.00561773" stop-color="#534741"/>
<stop offset="0.1684" stop-color="#5C5450"/>
<stop offset="0.4792" stop-color="#737577"/>
<stop offset="0.6742" stop-color="#838C92"/>
<stop offset="0.9793" stop-color="#333333"/>
<stop offset="0.9852" stop-color="#3E4042"/>
<stop offset="0.9965" stop-color="#5B6469"/>
<stop offset="1" stop-color="#657076"/>
</radialGradient>
<radialGradient id="paint15_radial" cx="0" cy="0" r="1" gradientUnits="userSpaceOnUse" gradientTransform="translate(422.842 214.128) rotate(-137.298) scale(1.67661)">
<stop offset="0.00561773" stop-color="#534741"/>
<stop offset="0.1684" stop-color="#5C5450"/>
<stop offset="0.4792" stop-color="#737577"/>
<stop offset="0.6742" stop-color="#838C92"/>
<stop offset="0.9793" stop-color="#333333"/>
<stop offset="0.9852" stop-color="#3E4042"/>
<stop offset="0.9965" stop-color="#5B6469"/>
<stop offset="1" stop-color="#657076"/>
</radialGradient>
<radialGradient id="paint16_radial" cx="0" cy="0" r="1" gradientUnits="userSpaceOnUse" gradientTransform="translate(438.174 207.776) rotate(-92.2963) scale(1.67659)">
<stop offset="0.00561773" stop-color="#534741"/>
<stop offset="0.1684" stop-color="#5C5450"/>
<stop offset="0.4792" stop-color="#737577"/>
<stop offset="0.6742" stop-color="#838C92"/>
<stop offset="0.9793" stop-color="#333333"/>
<stop offset="0.9852" stop-color="#3E4042"/>
<stop offset="0.9965" stop-color="#5B6469"/>
<stop offset="1" stop-color="#657076"/>
</radialGradient>
<radialGradient id="paint17_radial" cx="0" cy="0" r="1" gradientUnits="userSpaceOnUse" gradientTransform="translate(420.212 207.776) rotate(-92.2963) scale(1.67659)">
<stop offset="0.00561773" stop-color="#534741"/>
<stop offset="0.1684" stop-color="#5C5450"/>
<stop offset="0.4792" stop-color="#737577"/>
<stop offset="0.6742" stop-color="#838C92"/>
<stop offset="0.9793" stop-color="#333333"/>
<stop offset="0.9852" stop-color="#3E4042"/>
<stop offset="0.9965" stop-color="#5B6469"/>
<stop offset="1" stop-color="#657076"/>
</radialGradient>
<radialGradient id="paint18_radial" cx="0" cy="0" r="1" gradientUnits="userSpaceOnUse" gradientTransform="translate(435.543 214.126) rotate(-47.2976) scale(1.67661)">
<stop offset="0.00561773" stop-color="#534741"/>
<stop offset="0.1684" stop-color="#5C5450"/>
<stop offset="0.4792" stop-color="#737577"/>
<stop offset="0.6742" stop-color="#838C92"/>
<stop offset="0.9793" stop-color="#333333"/>
<stop offset="0.9852" stop-color="#3E4042"/>
<stop offset="0.9965" stop-color="#5B6469"/>
<stop offset="1" stop-color="#657076"/>
</radialGradient>
<radialGradient id="paint19_radial" cx="0" cy="0" r="1" gradientUnits="userSpaceOnUse" gradientTransform="translate(422.841 201.425) rotate(-47.2977) scale(1.67661)">
<stop offset="0.00561773" stop-color="#534741"/>
<stop offset="0.1684" stop-color="#5C5450"/>
<stop offset="0.4792" stop-color="#737577"/>
<stop offset="0.6742" stop-color="#838C92"/>
<stop offset="0.9793" stop-color="#333333"/>
<stop offset="0.9852" stop-color="#3E4042"/>
<stop offset="0.9965" stop-color="#5B6469"/>
<stop offset="1" stop-color="#657076"/>
</radialGradient>
</defs>
</svg>
