<svg width="150" height="129" viewBox="0 0 150 129" fill="none" xmlns="http://www.w3.org/2000/svg">
<path d="M37.7254 85.1392C48.1021 80.9181 58.0391 78.8076 67.5364 78.8076C77.0337 78.8076 86.8827 80.9181 97.0836 85.1392C107.46 89.1843 112.649 94.5485 112.649 101.232V112.576H22.4242V101.232C22.4242 94.5485 27.5246 89.1843 37.7254 85.1392ZM83.3652 60.8683C78.9683 65.2652 73.692 67.4636 67.5364 67.4636C61.3807 67.4636 56.1044 65.2652 51.7075 60.8683C47.3106 56.4714 45.1122 51.1951 45.1122 45.0394C45.1122 38.8838 47.3106 33.6075 51.7075 29.2106C56.1044 24.6378 61.3807 22.3514 67.5364 22.3514C73.692 22.3514 78.9683 24.6378 83.3652 29.2106C87.7621 33.6075 89.9606 38.8838 89.9606 45.0394C89.9606 51.1951 87.7621 56.4714 83.3652 60.8683Z" fill="#5B6469"/>
<path fill-rule="evenodd" clip-rule="evenodd" d="M77.5262 113L95.9317 102.374C90.4539 92.6031 79.998 86 67.9999 86C55.9267 86 45.415 92.6861 39.9658 102.558L58.0525 113H50.0525L38.2512 106.187C37.3907 108.352 36.7597 110.633 36.3883 113H32.3444C34.7781 95.4843 49.8143 82 67.9999 82C86.1855 82 101.222 95.4843 103.656 113H99.6116C99.2288 110.561 98.5705 108.213 97.6695 105.989L85.5262 113H77.5262Z" fill="white"/>
</svg>
