<svg width="1203" height="57" viewBox="0 0 1203 57" fill="none" xmlns="http://www.w3.org/2000/svg">
<path d="M35.7076 3V45H31.3276V25.62H5.04758V45H0.607579V3H5.04758V21.72H31.3276V3H35.7076ZM47.6162 13.44H51.8762V45H47.6162V13.44ZM49.7762 6.54C48.8962 6.54 48.1562 6.24 47.5562 5.64C46.9562 5.04 46.6562 4.32 46.6562 3.48C46.6562 2.68 46.9562 1.98 47.5562 1.38C48.1562 0.779997 48.8962 0.479997 49.7762 0.479997C50.6562 0.479997 51.3962 0.779997 51.9962 1.38C52.5962 1.94 52.8962 2.62 52.8962 3.42C52.8962 4.3 52.5962 5.04 51.9962 5.64C51.3962 6.24 50.6562 6.54 49.7762 6.54ZM66.9095 19.62C67.9095 17.5 69.3895 15.9 71.3495 14.82C73.3495 13.74 75.8095 13.2 78.7295 13.2V17.34L77.7095 17.28C74.3895 17.28 71.7895 18.3 69.9095 20.34C68.0295 22.38 67.0895 25.24 67.0895 28.92V45H62.8295V13.44H66.9095V19.62ZM112.73 30.54H86.3298C86.5698 33.82 87.8298 36.48 90.1098 38.52C92.3898 40.52 95.2698 41.52 98.7498 41.52C100.71 41.52 102.51 41.18 104.15 40.5C105.79 39.78 107.21 38.74 108.41 37.38L110.81 40.14C109.41 41.82 107.65 43.1 105.53 43.98C103.45 44.86 101.15 45.3 98.6298 45.3C95.3898 45.3 92.5098 44.62 89.9898 43.26C87.5098 41.86 85.5698 39.94 84.1698 37.5C82.7698 35.06 82.0698 32.3 82.0698 29.22C82.0698 26.14 82.7298 23.38 84.0498 20.94C85.4098 18.5 87.2498 16.6 89.5698 15.24C91.9298 13.88 94.5698 13.2 97.4898 13.2C100.41 13.2 103.03 13.88 105.35 15.24C107.67 16.6 109.49 18.5 110.81 20.94C112.13 23.34 112.79 26.1 112.79 29.22L112.73 30.54ZM97.4898 16.86C94.4498 16.86 91.8898 17.84 89.8098 19.8C87.7698 21.72 86.6098 24.24 86.3298 27.36H108.71C108.43 24.24 107.25 21.72 105.17 19.8C103.13 17.84 100.57 16.86 97.4898 16.86ZM119.901 3H124.941L124.041 32.4H120.741L119.901 3ZM122.421 45.3C121.541 45.3 120.781 45 120.141 44.4C119.541 43.76 119.241 43.02 119.241 42.18C119.241 41.3 119.541 40.58 120.141 40.02C120.741 39.42 121.501 39.12 122.421 39.12C123.301 39.12 124.041 39.42 124.641 40.02C125.241 40.58 125.541 41.3 125.541 42.18C125.541 43.02 125.241 43.76 124.641 44.4C124.041 45 123.301 45.3 122.421 45.3ZM166.67 3C172.03 3 176.23 4.28 179.27 6.84C182.31 9.4 183.83 12.92 183.83 17.4C183.83 21.88 182.31 25.4 179.27 27.96C176.23 30.48 172.03 31.74 166.67 31.74H155.39V45H150.95V3H166.67ZM166.55 27.84C170.71 27.84 173.89 26.94 176.09 25.14C178.29 23.3 179.39 20.72 179.39 17.4C179.39 14 178.29 11.4 176.09 9.6C173.89 7.76 170.71 6.84 166.55 6.84H155.39V27.84H166.55ZM202.377 13.2C206.497 13.2 209.657 14.24 211.857 16.32C214.057 18.36 215.157 21.4 215.157 25.44V45H211.077V40.08C210.117 41.72 208.697 43 206.817 43.92C204.977 44.84 202.777 45.3 200.217 45.3C196.697 45.3 193.897 44.46 191.817 42.78C189.737 41.1 188.697 38.88 188.697 36.12C188.697 33.44 189.657 31.28 191.577 29.64C193.537 28 196.637 27.18 200.877 27.18H210.897V25.26C210.897 22.54 210.137 20.48 208.617 19.08C207.097 17.64 204.877 16.92 201.957 16.92C199.957 16.92 198.037 17.26 196.197 17.94C194.357 18.58 192.777 19.48 191.457 20.64L189.537 17.46C191.137 16.1 193.057 15.06 195.297 14.34C197.537 13.58 199.897 13.2 202.377 13.2ZM200.877 41.94C203.277 41.94 205.337 41.4 207.057 40.32C208.777 39.2 210.057 37.6 210.897 35.52V30.36H200.997C195.597 30.36 192.897 32.24 192.897 36C192.897 37.84 193.597 39.3 194.997 40.38C196.397 41.42 198.357 41.94 200.877 41.94ZM239.025 45.3C235.905 45.3 233.105 44.62 230.625 43.26C228.185 41.9 226.265 40 224.865 37.56C223.465 35.08 222.765 32.3 222.765 29.22C222.765 26.14 223.465 23.38 224.865 20.94C226.265 18.5 228.185 16.6 230.625 15.24C233.105 13.88 235.905 13.2 239.025 13.2C241.745 13.2 244.165 13.74 246.285 14.82C248.445 15.86 250.145 17.4 251.385 19.44L248.205 21.6C247.165 20.04 245.845 18.88 244.245 18.12C242.645 17.32 240.905 16.92 239.025 16.92C236.745 16.92 234.685 17.44 232.845 18.48C231.045 19.48 229.625 20.92 228.585 22.8C227.585 24.68 227.085 26.82 227.085 29.22C227.085 31.66 227.585 33.82 228.585 35.7C229.625 37.54 231.045 38.98 232.845 40.02C234.685 41.02 236.745 41.52 239.025 41.52C240.905 41.52 242.645 41.14 244.245 40.38C245.845 39.62 247.165 38.46 248.205 36.9L251.385 39.06C250.145 41.1 248.445 42.66 246.285 43.74C244.125 44.78 241.705 45.3 239.025 45.3ZM270.085 29.16L262.645 36V45H258.385V0.479997H262.645V30.66L281.485 13.44H286.765L273.265 26.34L288.025 45H282.805L270.085 29.16ZM293.051 13.44H297.311V45H293.051V13.44ZM295.211 6.54C294.331 6.54 293.591 6.24 292.991 5.64C292.391 5.04 292.091 4.32 292.091 3.48C292.091 2.68 292.391 1.98 292.991 1.38C293.591 0.779997 294.331 0.479997 295.211 0.479997C296.091 0.479997 296.831 0.779997 297.431 1.38C298.031 1.94 298.331 2.62 298.331 3.42C298.331 4.3 298.031 5.04 297.431 5.64C296.831 6.24 296.091 6.54 295.211 6.54ZM324.345 13.2C328.305 13.2 331.445 14.36 333.765 16.68C336.125 18.96 337.305 22.3 337.305 26.7V45H333.045V27.12C333.045 23.84 332.225 21.34 330.585 19.62C328.945 17.9 326.605 17.04 323.565 17.04C320.165 17.04 317.465 18.06 315.465 20.1C313.505 22.1 312.525 24.88 312.525 28.44V45H308.265V13.44H312.345V19.26C313.505 17.34 315.105 15.86 317.145 14.82C319.225 13.74 321.625 13.2 324.345 13.2ZM377.307 13.44V41.16C377.307 46.52 375.987 50.48 373.347 53.04C370.747 55.64 366.807 56.94 361.527 56.94C358.607 56.94 355.827 56.5 353.187 55.62C350.587 54.78 348.467 53.6 346.827 52.08L348.987 48.84C350.507 50.2 352.347 51.26 354.507 52.02C356.707 52.78 359.007 53.16 361.407 53.16C365.407 53.16 368.347 52.22 370.227 50.34C372.107 48.5 373.047 45.62 373.047 41.7V37.68C371.727 39.68 369.987 41.2 367.827 42.24C365.707 43.28 363.347 43.8 360.747 43.8C357.787 43.8 355.087 43.16 352.647 41.88C350.247 40.56 348.347 38.74 346.947 36.42C345.587 34.06 344.907 31.4 344.907 28.44C344.907 25.48 345.587 22.84 346.947 20.52C348.347 18.2 350.247 16.4 352.647 15.12C355.047 13.84 357.747 13.2 360.747 13.2C363.427 13.2 365.847 13.74 368.007 14.82C370.167 15.9 371.907 17.46 373.227 19.5V13.44H377.307ZM361.167 40.02C363.447 40.02 365.507 39.54 367.347 38.58C369.187 37.58 370.607 36.2 371.607 34.44C372.647 32.68 373.167 30.68 373.167 28.44C373.167 26.2 372.647 24.22 371.607 22.5C370.607 20.74 369.187 19.38 367.347 18.42C365.547 17.42 363.487 16.92 361.167 16.92C358.887 16.92 356.827 17.4 354.987 18.36C353.187 19.32 351.767 20.68 350.727 22.44C349.727 24.2 349.227 26.2 349.227 28.44C349.227 30.68 349.727 32.68 350.727 34.44C351.767 36.2 353.187 37.58 354.987 38.58C356.827 39.54 358.887 40.02 361.167 40.02ZM414.163 13.2C418.283 13.2 421.443 14.24 423.643 16.32C425.843 18.36 426.943 21.4 426.943 25.44V45H422.863V40.08C421.903 41.72 420.483 43 418.603 43.92C416.763 44.84 414.563 45.3 412.003 45.3C408.483 45.3 405.683 44.46 403.603 42.78C401.523 41.1 400.483 38.88 400.483 36.12C400.483 33.44 401.443 31.28 403.363 29.64C405.323 28 408.423 27.18 412.663 27.18H422.683V25.26C422.683 22.54 421.923 20.48 420.403 19.08C418.883 17.64 416.663 16.92 413.743 16.92C411.743 16.92 409.823 17.26 407.983 17.94C406.143 18.58 404.563 19.48 403.243 20.64L401.323 17.46C402.923 16.1 404.843 15.06 407.083 14.34C409.323 13.58 411.683 13.2 414.163 13.2ZM412.663 41.94C415.063 41.94 417.123 41.4 418.843 40.32C420.563 39.2 421.843 37.6 422.683 35.52V30.36H412.783C407.383 30.36 404.683 32.24 404.683 36C404.683 37.84 405.383 39.3 406.783 40.38C408.183 41.42 410.143 41.94 412.663 41.94ZM453.694 13.2C457.654 13.2 460.794 14.36 463.114 16.68C465.474 18.96 466.654 22.3 466.654 26.7V45H462.394V27.12C462.394 23.84 461.574 21.34 459.934 19.62C458.294 17.9 455.954 17.04 452.914 17.04C449.514 17.04 446.814 18.06 444.814 20.1C442.854 22.1 441.874 24.88 441.874 28.44V45H437.614V13.44H441.694V19.26C442.854 17.34 444.454 15.86 446.494 14.82C448.574 13.74 450.974 13.2 453.694 13.2ZM506.236 0.479997V45H502.156V38.76C500.876 40.88 499.176 42.5 497.056 43.62C494.976 44.74 492.616 45.3 489.976 45.3C487.016 45.3 484.336 44.62 481.936 43.26C479.536 41.9 477.656 40 476.296 37.56C474.936 35.12 474.256 32.34 474.256 29.22C474.256 26.1 474.936 23.32 476.296 20.88C477.656 18.44 479.536 16.56 481.936 15.24C484.336 13.88 487.016 13.2 489.976 13.2C492.536 13.2 494.836 13.74 496.876 14.82C498.956 15.86 500.656 17.4 501.976 19.44V0.479997H506.236ZM490.336 41.52C492.536 41.52 494.516 41.02 496.276 40.02C498.076 38.98 499.476 37.52 500.476 35.64C501.516 33.76 502.036 31.62 502.036 29.22C502.036 26.82 501.516 24.68 500.476 22.8C499.476 20.92 498.076 19.48 496.276 18.48C494.516 17.44 492.536 16.92 490.336 16.92C488.096 16.92 486.076 17.44 484.276 18.48C482.516 19.48 481.116 20.92 480.076 22.8C479.076 24.68 478.576 26.82 478.576 29.22C478.576 31.62 479.076 33.76 480.076 35.64C481.116 37.52 482.516 38.98 484.276 40.02C486.076 41.02 488.096 41.52 490.336 41.52ZM541.064 6.84H526.304V3H560.264V6.84H545.504V45H541.064V6.84ZM568.817 19.62C569.817 17.5 571.297 15.9 573.257 14.82C575.257 13.74 577.717 13.2 580.637 13.2V17.34L579.617 17.28C576.297 17.28 573.697 18.3 571.817 20.34C569.937 22.38 568.997 25.24 568.997 28.92V45H564.737V13.44H568.817V19.62ZM598.431 13.2C602.551 13.2 605.711 14.24 607.911 16.32C610.111 18.36 611.211 21.4 611.211 25.44V45H607.131V40.08C606.171 41.72 604.751 43 602.871 43.92C601.031 44.84 598.831 45.3 596.271 45.3C592.751 45.3 589.951 44.46 587.871 42.78C585.791 41.1 584.751 38.88 584.751 36.12C584.751 33.44 585.711 31.28 587.631 29.64C589.591 28 592.691 27.18 596.931 27.18H606.951V25.26C606.951 22.54 606.191 20.48 604.671 19.08C603.151 17.64 600.931 16.92 598.011 16.92C596.011 16.92 594.091 17.26 592.251 17.94C590.411 18.58 588.831 19.48 587.511 20.64L585.591 17.46C587.191 16.1 589.111 15.06 591.351 14.34C593.591 13.58 595.951 13.2 598.431 13.2ZM596.931 41.94C599.331 41.94 601.391 41.4 603.111 40.32C604.831 39.2 606.111 37.6 606.951 35.52V30.36H597.051C591.651 30.36 588.951 32.24 588.951 36C588.951 37.84 589.651 39.3 591.051 40.38C592.451 41.42 594.411 41.94 596.931 41.94ZM637.962 13.2C641.922 13.2 645.062 14.36 647.382 16.68C649.742 18.96 650.922 22.3 650.922 26.7V45H646.662V27.12C646.662 23.84 645.842 21.34 644.202 19.62C642.562 17.9 640.222 17.04 637.182 17.04C633.782 17.04 631.082 18.06 629.082 20.1C627.122 22.1 626.142 24.88 626.142 28.44V45H621.882V13.44H625.962V19.26C627.122 17.34 628.722 15.86 630.762 14.82C632.842 13.74 635.242 13.2 637.962 13.2ZM670.047 45.3C667.487 45.3 665.027 44.94 662.667 44.22C660.347 43.46 658.527 42.52 657.207 41.4L659.127 38.04C660.447 39.08 662.107 39.94 664.107 40.62C666.107 41.26 668.187 41.58 670.347 41.58C673.227 41.58 675.347 41.14 676.707 40.26C678.107 39.34 678.807 38.06 678.807 36.42C678.807 35.26 678.427 34.36 677.667 33.72C676.907 33.04 675.947 32.54 674.787 32.22C673.627 31.86 672.087 31.52 670.167 31.2C667.607 30.72 665.547 30.24 663.987 29.76C662.427 29.24 661.087 28.38 659.967 27.18C658.887 25.98 658.347 24.32 658.347 22.2C658.347 19.56 659.447 17.4 661.647 15.72C663.847 14.04 666.907 13.2 670.827 13.2C672.867 13.2 674.907 13.48 676.947 14.04C678.987 14.56 680.667 15.26 681.987 16.14L680.127 19.56C677.527 17.76 674.427 16.86 670.827 16.86C668.107 16.86 666.047 17.34 664.647 18.3C663.287 19.26 662.607 20.52 662.607 22.08C662.607 23.28 662.987 24.24 663.747 24.96C664.547 25.68 665.527 26.22 666.687 26.58C667.847 26.9 669.447 27.24 671.487 27.6C674.007 28.08 676.027 28.56 677.547 29.04C679.067 29.52 680.367 30.34 681.447 31.5C682.527 32.66 683.067 34.26 683.067 36.3C683.067 39.06 681.907 41.26 679.587 42.9C677.307 44.5 674.127 45.3 670.047 45.3ZM706.303 13.2C709.263 13.2 711.943 13.88 714.343 15.24C716.743 16.56 718.623 18.44 719.983 20.88C721.343 23.32 722.023 26.1 722.023 29.22C722.023 32.38 721.343 35.18 719.983 37.62C718.623 40.06 716.743 41.96 714.343 43.32C711.983 44.64 709.303 45.3 706.303 45.3C703.743 45.3 701.423 44.78 699.343 43.74C697.303 42.66 695.623 41.1 694.303 39.06V56.64H690.043V13.44H694.123V19.68C695.403 17.6 697.083 16 699.163 14.88C701.283 13.76 703.663 13.2 706.303 13.2ZM706.003 41.52C708.203 41.52 710.203 41.02 712.003 40.02C713.803 38.98 715.203 37.52 716.203 35.64C717.243 33.76 717.763 31.62 717.763 29.22C717.763 26.82 717.243 24.7 716.203 22.86C715.203 20.98 713.803 19.52 712.003 18.48C710.203 17.44 708.203 16.92 706.003 16.92C703.763 16.92 701.743 17.44 699.943 18.48C698.183 19.52 696.783 20.98 695.743 22.86C694.743 24.7 694.243 26.82 694.243 29.22C694.243 31.62 694.743 33.76 695.743 35.64C696.783 37.52 698.183 38.98 699.943 40.02C701.743 41.02 703.763 41.52 706.003 41.52ZM742.707 45.3C739.667 45.3 736.927 44.62 734.487 43.26C732.047 41.86 730.127 39.94 728.727 37.5C727.327 35.06 726.627 32.3 726.627 29.22C726.627 26.14 727.327 23.38 728.727 20.94C730.127 18.5 732.047 16.6 734.487 15.24C736.927 13.88 739.667 13.2 742.707 13.2C745.747 13.2 748.487 13.88 750.927 15.24C753.367 16.6 755.267 18.5 756.627 20.94C758.027 23.38 758.727 26.14 758.727 29.22C758.727 32.3 758.027 35.06 756.627 37.5C755.267 39.94 753.367 41.86 750.927 43.26C748.487 44.62 745.747 45.3 742.707 45.3ZM742.707 41.52C744.947 41.52 746.947 41.02 748.707 40.02C750.507 38.98 751.907 37.52 752.907 35.64C753.907 33.76 754.407 31.62 754.407 29.22C754.407 26.82 753.907 24.68 752.907 22.8C751.907 20.92 750.507 19.48 748.707 18.48C746.947 17.44 744.947 16.92 742.707 16.92C740.467 16.92 738.447 17.44 736.647 18.48C734.887 19.48 733.487 20.92 732.447 22.8C731.447 24.68 730.947 26.82 730.947 29.22C730.947 31.62 731.447 33.76 732.447 35.64C733.487 37.52 734.887 38.98 736.647 40.02C738.447 41.02 740.467 41.52 742.707 41.52ZM770.604 19.62C771.604 17.5 773.084 15.9 775.044 14.82C777.044 13.74 779.504 13.2 782.424 13.2V17.34L781.404 17.28C778.084 17.28 775.484 18.3 773.604 20.34C771.724 22.38 770.784 25.24 770.784 28.92V45H766.524V13.44H770.604V19.62ZM807.205 43.08C806.405 43.8 805.405 44.36 804.205 44.76C803.045 45.12 801.825 45.3 800.545 45.3C797.585 45.3 795.305 44.5 793.705 42.9C792.105 41.3 791.305 39.04 791.305 36.12V17.04H785.665V13.44H791.305V6.54H795.565V13.44H805.165V17.04H795.565V35.88C795.565 37.76 796.025 39.2 796.945 40.2C797.905 41.16 799.265 41.64 801.025 41.64C801.905 41.64 802.745 41.5 803.545 41.22C804.385 40.94 805.105 40.54 805.705 40.02L807.205 43.08ZM825.1 13.2C829.22 13.2 832.38 14.24 834.58 16.32C836.78 18.36 837.88 21.4 837.88 25.44V45H833.8V40.08C832.84 41.72 831.42 43 829.54 43.92C827.7 44.84 825.5 45.3 822.94 45.3C819.42 45.3 816.62 44.46 814.54 42.78C812.46 41.1 811.42 38.88 811.42 36.12C811.42 33.44 812.38 31.28 814.3 29.64C816.26 28 819.36 27.18 823.6 27.18H833.62V25.26C833.62 22.54 832.86 20.48 831.34 19.08C829.82 17.64 827.6 16.92 824.68 16.92C822.68 16.92 820.76 17.26 818.92 17.94C817.08 18.58 815.5 19.48 814.18 20.64L812.26 17.46C813.86 16.1 815.78 15.06 818.02 14.34C820.26 13.58 822.62 13.2 825.1 13.2ZM823.6 41.94C826 41.94 828.06 41.4 829.78 40.32C831.5 39.2 832.78 37.6 833.62 35.52V30.36H823.72C818.32 30.36 815.62 32.24 815.62 36C815.62 37.84 816.32 39.3 817.72 40.38C819.12 41.42 821.08 41.94 823.6 41.94ZM865.171 43.08C864.371 43.8 863.371 44.36 862.171 44.76C861.011 45.12 859.791 45.3 858.511 45.3C855.551 45.3 853.271 44.5 851.671 42.9C850.071 41.3 849.271 39.04 849.271 36.12V17.04H843.631V13.44H849.271V6.54H853.531V13.44H863.131V17.04H853.531V35.88C853.531 37.76 853.991 39.2 854.911 40.2C855.871 41.16 857.231 41.64 858.991 41.64C859.871 41.64 860.711 41.5 861.511 41.22C862.351 40.94 863.071 40.54 863.671 40.02L865.171 43.08ZM872.026 13.44H876.286V45H872.026V13.44ZM874.186 6.54C873.306 6.54 872.566 6.24 871.966 5.64C871.366 5.04 871.066 4.32 871.066 3.48C871.066 2.68 871.366 1.98 871.966 1.38C872.566 0.779997 873.306 0.479997 874.186 0.479997C875.066 0.479997 875.806 0.779997 876.406 1.38C877.006 1.94 877.306 2.62 877.306 3.42C877.306 4.3 877.006 5.04 876.406 5.64C875.806 6.24 875.066 6.54 874.186 6.54ZM900.139 45.3C897.099 45.3 894.359 44.62 891.919 43.26C889.479 41.86 887.559 39.94 886.159 37.5C884.759 35.06 884.059 32.3 884.059 29.22C884.059 26.14 884.759 23.38 886.159 20.94C887.559 18.5 889.479 16.6 891.919 15.24C894.359 13.88 897.099 13.2 900.139 13.2C903.179 13.2 905.919 13.88 908.359 15.24C910.799 16.6 912.699 18.5 914.059 20.94C915.459 23.38 916.159 26.14 916.159 29.22C916.159 32.3 915.459 35.06 914.059 37.5C912.699 39.94 910.799 41.86 908.359 43.26C905.919 44.62 903.179 45.3 900.139 45.3ZM900.139 41.52C902.379 41.52 904.379 41.02 906.139 40.02C907.939 38.98 909.339 37.52 910.339 35.64C911.339 33.76 911.839 31.62 911.839 29.22C911.839 26.82 911.339 24.68 910.339 22.8C909.339 20.92 907.939 19.48 906.139 18.48C904.379 17.44 902.379 16.92 900.139 16.92C897.899 16.92 895.879 17.44 894.079 18.48C892.319 19.48 890.919 20.92 889.879 22.8C888.879 24.68 888.379 26.82 888.379 29.22C888.379 31.62 888.879 33.76 889.879 35.64C890.919 37.52 892.319 38.98 894.079 40.02C895.879 41.02 897.899 41.52 900.139 41.52ZM940.036 13.2C943.996 13.2 947.136 14.36 949.456 16.68C951.816 18.96 952.996 22.3 952.996 26.7V45H948.736V27.12C948.736 23.84 947.916 21.34 946.276 19.62C944.636 17.9 942.296 17.04 939.256 17.04C935.856 17.04 933.156 18.06 931.156 20.1C929.196 22.1 928.216 24.88 928.216 28.44V45H923.956V13.44H928.036V19.26C929.196 17.34 930.796 15.86 932.836 14.82C934.916 13.74 937.316 13.2 940.036 13.2ZM986.925 45.3C984.365 45.3 981.905 44.94 979.545 44.22C977.225 43.46 975.405 42.52 974.085 41.4L976.005 38.04C977.325 39.08 978.985 39.94 980.985 40.62C982.985 41.26 985.065 41.58 987.225 41.58C990.105 41.58 992.225 41.14 993.585 40.26C994.985 39.34 995.685 38.06 995.685 36.42C995.685 35.26 995.305 34.36 994.545 33.72C993.785 33.04 992.825 32.54 991.665 32.22C990.505 31.86 988.965 31.52 987.045 31.2C984.485 30.72 982.425 30.24 980.865 29.76C979.305 29.24 977.965 28.38 976.845 27.18C975.765 25.98 975.225 24.32 975.225 22.2C975.225 19.56 976.325 17.4 978.525 15.72C980.725 14.04 983.785 13.2 987.705 13.2C989.745 13.2 991.785 13.48 993.825 14.04C995.865 14.56 997.545 15.26 998.865 16.14L997.005 19.56C994.405 17.76 991.305 16.86 987.705 16.86C984.985 16.86 982.925 17.34 981.525 18.3C980.165 19.26 979.485 20.52 979.485 22.08C979.485 23.28 979.865 24.24 980.625 24.96C981.425 25.68 982.405 26.22 983.565 26.58C984.725 26.9 986.325 27.24 988.365 27.6C990.885 28.08 992.905 28.56 994.425 29.04C995.945 29.52 997.245 30.34 998.325 31.5C999.405 32.66 999.945 34.26 999.945 36.3C999.945 39.06 998.785 41.26 996.465 42.9C994.185 44.5 991.005 45.3 986.925 45.3ZM1034.4 30.54H1008C1008.24 33.82 1009.5 36.48 1011.78 38.52C1014.06 40.52 1016.94 41.52 1020.42 41.52C1022.38 41.52 1024.18 41.18 1025.82 40.5C1027.46 39.78 1028.88 38.74 1030.08 37.38L1032.48 40.14C1031.08 41.82 1029.32 43.1 1027.2 43.98C1025.12 44.86 1022.82 45.3 1020.3 45.3C1017.06 45.3 1014.18 44.62 1011.66 43.26C1009.18 41.86 1007.24 39.94 1005.84 37.5C1004.44 35.06 1003.74 32.3 1003.74 29.22C1003.74 26.14 1004.4 23.38 1005.72 20.94C1007.08 18.5 1008.92 16.6 1011.24 15.24C1013.6 13.88 1016.24 13.2 1019.16 13.2C1022.08 13.2 1024.7 13.88 1027.02 15.24C1029.34 16.6 1031.16 18.5 1032.48 20.94C1033.8 23.34 1034.46 26.1 1034.46 29.22L1034.4 30.54ZM1019.16 16.86C1016.12 16.86 1013.56 17.84 1011.48 19.8C1009.44 21.72 1008.28 24.24 1008 27.36H1030.38C1030.1 24.24 1028.92 21.72 1026.84 19.8C1024.8 17.84 1022.24 16.86 1019.16 16.86ZM1046.31 19.62C1047.31 17.5 1048.79 15.9 1050.75 14.82C1052.75 13.74 1055.21 13.2 1058.13 13.2V17.34L1057.11 17.28C1053.79 17.28 1051.19 18.3 1049.31 20.34C1047.43 22.38 1046.49 25.24 1046.49 28.92V45H1042.23V13.44H1046.31V19.62ZM1092.81 13.44L1078.77 45H1074.39L1060.41 13.44H1064.85L1076.67 40.32L1088.61 13.44H1092.81ZM1097.91 13.44H1102.17V45H1097.91V13.44ZM1100.07 6.54C1099.19 6.54 1098.45 6.24 1097.85 5.64C1097.25 5.04 1096.95 4.32 1096.95 3.48C1096.95 2.68 1097.25 1.98 1097.85 1.38C1098.45 0.779997 1099.19 0.479997 1100.07 0.479997C1100.95 0.479997 1101.69 0.779997 1102.29 1.38C1102.89 1.94 1103.19 2.62 1103.19 3.42C1103.19 4.3 1102.89 5.04 1102.29 5.64C1101.69 6.24 1100.95 6.54 1100.07 6.54ZM1126.2 45.3C1123.08 45.3 1120.28 44.62 1117.8 43.26C1115.36 41.9 1113.44 40 1112.04 37.56C1110.64 35.08 1109.94 32.3 1109.94 29.22C1109.94 26.14 1110.64 23.38 1112.04 20.94C1113.44 18.5 1115.36 16.6 1117.8 15.24C1120.28 13.88 1123.08 13.2 1126.2 13.2C1128.92 13.2 1131.34 13.74 1133.46 14.82C1135.62 15.86 1137.32 17.4 1138.56 19.44L1135.38 21.6C1134.34 20.04 1133.02 18.88 1131.42 18.12C1129.82 17.32 1128.08 16.92 1126.2 16.92C1123.92 16.92 1121.86 17.44 1120.02 18.48C1118.22 19.48 1116.8 20.92 1115.76 22.8C1114.76 24.68 1114.26 26.82 1114.26 29.22C1114.26 31.66 1114.76 33.82 1115.76 35.7C1116.8 37.54 1118.22 38.98 1120.02 40.02C1121.86 41.02 1123.92 41.52 1126.2 41.52C1128.08 41.52 1129.82 41.14 1131.42 40.38C1133.02 39.62 1134.34 38.46 1135.38 36.9L1138.56 39.06C1137.32 41.1 1135.62 42.66 1133.46 43.74C1131.3 44.78 1128.88 45.3 1126.2 45.3ZM1172.99 30.54H1146.59C1146.83 33.82 1148.09 36.48 1150.37 38.52C1152.65 40.52 1155.53 41.52 1159.01 41.52C1160.97 41.52 1162.77 41.18 1164.41 40.5C1166.05 39.78 1167.47 38.74 1168.67 37.38L1171.07 40.14C1169.67 41.82 1167.91 43.1 1165.79 43.98C1163.71 44.86 1161.41 45.3 1158.89 45.3C1155.65 45.3 1152.77 44.62 1150.25 43.26C1147.77 41.86 1145.83 39.94 1144.43 37.5C1143.03 35.06 1142.33 32.3 1142.33 29.22C1142.33 26.14 1142.99 23.38 1144.31 20.94C1145.67 18.5 1147.51 16.6 1149.83 15.24C1152.19 13.88 1154.83 13.2 1157.75 13.2C1160.67 13.2 1163.29 13.88 1165.61 15.24C1167.93 16.6 1169.75 18.5 1171.07 20.94C1172.39 23.34 1173.05 26.1 1173.05 29.22L1172.99 30.54ZM1157.75 16.86C1154.71 16.86 1152.15 17.84 1150.07 19.8C1148.03 21.72 1146.87 24.24 1146.59 27.36H1168.97C1168.69 24.24 1167.51 21.72 1165.43 19.8C1163.39 17.84 1160.83 16.86 1157.75 16.86ZM1189.28 45.3C1186.72 45.3 1184.26 44.94 1181.9 44.22C1179.58 43.46 1177.76 42.52 1176.44 41.4L1178.36 38.04C1179.68 39.08 1181.34 39.94 1183.34 40.62C1185.34 41.26 1187.42 41.58 1189.58 41.58C1192.46 41.58 1194.58 41.14 1195.94 40.26C1197.34 39.34 1198.04 38.06 1198.04 36.42C1198.04 35.26 1197.66 34.36 1196.9 33.72C1196.14 33.04 1195.18 32.54 1194.02 32.22C1192.86 31.86 1191.32 31.52 1189.4 31.2C1186.84 30.72 1184.78 30.24 1183.22 29.76C1181.66 29.24 1180.32 28.38 1179.2 27.18C1178.12 25.98 1177.58 24.32 1177.58 22.2C1177.58 19.56 1178.68 17.4 1180.88 15.72C1183.08 14.04 1186.14 13.2 1190.06 13.2C1192.1 13.2 1194.14 13.48 1196.18 14.04C1198.22 14.56 1199.9 15.26 1201.22 16.14L1199.36 19.56C1196.76 17.76 1193.66 16.86 1190.06 16.86C1187.34 16.86 1185.28 17.34 1183.88 18.3C1182.52 19.26 1181.84 20.52 1181.84 22.08C1181.84 23.28 1182.22 24.24 1182.98 24.96C1183.78 25.68 1184.76 26.22 1185.92 26.58C1187.08 26.9 1188.68 27.24 1190.72 27.6C1193.24 28.08 1195.26 28.56 1196.78 29.04C1198.3 29.52 1199.6 30.34 1200.68 31.5C1201.76 32.66 1202.3 34.26 1202.3 36.3C1202.3 39.06 1201.14 41.26 1198.82 42.9C1196.54 44.5 1193.36 45.3 1189.28 45.3Z" fill="#737577"/>
</svg>
