<svg width="1096" height="151" viewBox="0 0 1096 151" fill="none" xmlns="http://www.w3.org/2000/svg">
<mask id="path-1-inside-1" fill="white">
<path fill-rule="evenodd" clip-rule="evenodd" d="M216.606 63.9714C218.187 66.1411 219.099 68.726 219.23 71.4077L220.835 104.321H200.513C198.431 95.0951 190.186 88.2048 180.33 88.2048C169.714 88.2048 160.965 96.2008 159.778 106.499H67.1615C65.9741 96.2008 57.2253 88.2048 46.6089 88.2048C35.9925 88.2048 27.2437 96.2008 26.0563 106.499H11.1095V96.2629H0.00228882V83.4134H135.902H141.129V22.8685H180.685C184.431 22.8685 187.951 24.6588 190.158 27.6859L216.606 63.9714ZM179.269 27.1596C182.494 27.1596 185.523 28.7077 187.412 31.3216L208.799 60.9128H148.828V27.1596H179.269Z"/>
</mask>
<path fill-rule="evenodd" clip-rule="evenodd" d="M216.606 63.9714C218.187 66.1411 219.099 68.726 219.23 71.4077L220.835 104.321H200.513C198.431 95.0951 190.186 88.2048 180.33 88.2048C169.714 88.2048 160.965 96.2008 159.778 106.499H67.1615C65.9741 96.2008 57.2253 88.2048 46.6089 88.2048C35.9925 88.2048 27.2437 96.2008 26.0563 106.499H11.1095V96.2629H0.00228882V83.4134H135.902H141.129V22.8685H180.685C184.431 22.8685 187.951 24.6588 190.158 27.6859L216.606 63.9714ZM179.269 27.1596C182.494 27.1596 185.523 28.7077 187.412 31.3216L208.799 60.9128H148.828V27.1596H179.269Z" fill="#FFF3DC"/>
<path d="M219.23 71.4077L219.648 71.3873L219.648 71.3873L219.23 71.4077ZM216.606 63.9714L216.944 63.7248L216.944 63.7248L216.606 63.9714ZM220.835 104.321L221.253 104.301L221.275 104.74H220.835V104.321ZM200.513 104.321V104.74H200.178L200.105 104.413L200.513 104.321ZM159.778 106.499L160.194 106.547L160.151 106.918H159.778V106.499ZM67.1615 106.499V106.918H66.7884L66.7456 106.547L67.1615 106.499ZM26.0563 106.499L26.4722 106.547L26.4294 106.918H26.0563V106.499ZM11.1095 106.499V106.918H10.6908V106.499H11.1095ZM11.1095 96.2629V95.8442H11.5281V96.2629H11.1095ZM0.00228882 96.2629V96.6815H-0.416356V96.2629H0.00228882ZM0.00228882 83.4134H-0.416356V82.9948H0.00228882V83.4134ZM141.129 83.4134H141.547V83.8321H141.129V83.4134ZM141.129 22.8685H140.71V22.4498H141.129V22.8685ZM190.158 27.6859L190.496 27.4394L190.496 27.4394L190.158 27.6859ZM187.412 31.3216L187.073 31.5668L187.073 31.5668L187.412 31.3216ZM208.799 60.9128L209.138 60.6676L209.618 61.3315H208.799V60.9128ZM148.828 60.9128V61.3315H148.41V60.9128H148.828ZM148.828 27.1596H148.41V26.741H148.828V27.1596ZM218.812 71.4281C218.685 68.828 217.801 66.3217 216.267 64.2179L216.944 63.7248C218.573 65.9605 219.514 68.624 219.648 71.3873L218.812 71.4281ZM220.417 104.341L218.812 71.4281L219.648 71.3873L221.253 104.301L220.417 104.341ZM200.513 103.902H220.835V104.74H200.513V103.902ZM180.33 87.7861C190.385 87.7861 198.798 94.8162 200.921 104.229L200.105 104.413C198.065 95.374 189.986 88.6234 180.33 88.6234V87.7861ZM159.362 106.451C160.573 95.944 169.499 87.7861 180.33 87.7861V88.6234C169.929 88.6234 161.357 96.4575 160.194 106.547L159.362 106.451ZM67.1615 106.08H159.778V106.918H67.1615V106.08ZM46.6089 87.7861C57.4404 87.7861 66.3659 95.944 67.5774 106.451L66.7456 106.547C65.5823 96.4575 57.0102 88.6234 46.6089 88.6234V87.7861ZM25.6404 106.451C26.8519 95.944 35.7774 87.7861 46.6089 87.7861V88.6234C36.2076 88.6234 27.6355 96.4575 26.4722 106.547L25.6404 106.451ZM11.1095 106.08H26.0563V106.918H11.1095V106.08ZM11.5281 96.2629V106.499H10.6908V96.2629H11.5281ZM0.00228882 95.8442H11.1095V96.6815H0.00228882V95.8442ZM0.420933 83.4134V96.2629H-0.416356V83.4134H0.420933ZM135.902 83.8321H0.00228882V82.9948H135.902V83.8321ZM141.129 83.8321H135.902V82.9948H141.129V83.8321ZM141.547 22.8685V83.4134H140.71V22.8685H141.547ZM180.685 23.2871H141.129V22.4498H180.685V23.2871ZM189.819 27.9325C187.692 25.0135 184.297 23.2871 180.685 23.2871V22.4498C184.565 22.4498 188.211 24.3041 190.496 27.4394L189.819 27.9325ZM216.267 64.2179L189.819 27.9325L190.496 27.4394L216.944 63.7248L216.267 64.2179ZM187.073 31.5668C185.263 29.0619 182.36 27.5782 179.269 27.5782V26.741C182.629 26.741 185.784 28.3536 187.752 31.0764L187.073 31.5668ZM208.46 61.1581L187.073 31.5668L187.752 31.0764L209.138 60.6676L208.46 61.1581ZM148.828 60.4942H208.799V61.3315H148.828V60.4942ZM149.247 27.1596V60.9128H148.41V27.1596H149.247ZM179.269 27.5782H148.828V26.741H179.269V27.5782Z" fill="black" mask="url(#path-1-inside-1)"/>
<path d="M222.411 90.4519L213.038 90.4519V104.181H222.411V90.4519Z" fill="#B8B8B8" stroke="black" stroke-width="0.209322"/>
<path fill-rule="evenodd" clip-rule="evenodd" d="M180.337 127.739C169.933 127.739 161.498 119.304 161.498 108.9C161.498 98.4955 169.933 90.061 180.337 90.061C190.742 90.061 199.176 98.4955 199.176 108.9C199.176 119.304 190.742 127.739 180.337 127.739ZM180.337 121.564C173.343 121.564 167.673 115.894 167.673 108.9C167.673 101.906 173.343 96.236 180.337 96.236C187.332 96.236 193.001 101.906 193.001 108.9C193.001 115.894 187.332 121.564 180.337 121.564Z" fill="#333333"/>
<path fill-rule="evenodd" clip-rule="evenodd" d="M46.6266 127.948C36.2221 127.948 27.7876 119.514 27.7876 109.109C27.7876 98.7048 36.2221 90.2703 46.6266 90.2703C57.0311 90.2703 65.4656 98.7048 65.4656 109.109C65.4656 119.514 57.0311 127.948 46.6266 127.948ZM46.6266 121.773C39.6324 121.773 33.9626 116.103 33.9626 109.109C33.9626 102.115 39.6324 96.4453 46.6266 96.4453C53.6207 96.4453 59.2906 102.115 59.2906 109.109C59.2906 116.103 53.6207 121.773 46.6266 121.773Z" fill="#333333"/>
<circle r="12.664" transform="matrix(-1 0 0 1 180.337 108.9)" fill="#B8B8B8"/>
<circle r="12.664" transform="matrix(-1 0 0 1 46.6328 109.109)" fill="#B8B8B8"/>
<path d="M141.031 0.784945H0.261749C0.232834 0.784945 0.209412 0.808384 0.209412 0.837275V83.3626H141.083V0.837272C141.083 0.808374 141.06 0.784945 141.031 0.784945Z" fill="#2F80ED" stroke="black" stroke-width="0.418645"/>
<g filter="url(#filter0_d)">
<path d="M24.1537 23.8484L79.0207 34.1748V76.0264L24.1537 60.6858V23.8484Z" fill="#D3B875"/>
<path d="M79.0206 34.1749L111.092 20.0754V59.0475L79.0206 76.0265V34.1749Z" fill="#B78C59"/>
<path d="M82.0751 61.6252C82.0751 61.4026 82.2071 61.2012 82.4111 61.1123L89.5453 58.0022C89.7037 57.9331 89.881 58.0492 89.881 58.222V66.9235C89.881 67.1314 89.7656 67.3223 89.5815 67.4189L82.4264 71.1751C82.2667 71.259 82.0751 71.1431 82.0751 70.9628V61.6252Z" fill="white"/>
<path d="M56.7345 13.1746L111.092 20.0754L79.0207 34.1748L24.1537 23.8485L56.7345 13.1746Z" fill="#F2CF8B"/>
<path d="M45.0824 27.7872L52.8882 29.2599V68.7285L45.0824 66.544V27.7872Z" fill="#6F5D3A" fill-opacity="0.62"/>
<path d="M79.8125 16.1037L85.978 16.8484L52.8881 29.2599L45.0823 27.7874L79.8125 16.1037Z" fill="#6F5D3A" fill-opacity="0.62"/>
<path d="M40.6704 18.4368L45.3652 16.8977L98.4221 25.6355L92.087 28.4157L40.6704 18.4368Z" fill="#6F5D3A" fill-opacity="0.62"/>
<path d="M83.6318 62.5692L88.9081 60.2775M83.6318 63.4579L88.9081 61.1194M83.6318 64.44L88.9081 62.1015M83.6318 65.4222L88.9081 63.0369M86.8195 65.4222L88.9081 64.44M86.8195 66.2641L88.9081 65.2351M86.8195 67.1527L88.9081 66.077" stroke="#585050" stroke-opacity="0.7" stroke-width="0.319775"/>
<path fill-rule="evenodd" clip-rule="evenodd" d="M98.4222 25.6356L92.087 28.4158L92.087 39.5629L93.1051 40.8769V39.7351L93.9535 40.3805L94.2363 39.7351V39.2883C94.2363 38.8911 94.5757 38.0968 94.7454 37.7492L95.0282 39.2883V40.3805C95.2356 39.8675 95.6844 38.9308 95.8201 39.2883C95.9559 39.6457 96.103 40.1653 96.1595 40.3805L97.008 39.7351V37.7492L97.6302 35.9123L98.4221 38.5885L98.4222 25.6356Z" fill="#6F5D3A" fill-opacity="0.62"/>
</g>
<g filter="url(#filter1_d)">
<path d="M301.89 52.579C301.89 60.2411 299.267 66.143 294.02 70.2847C288.809 74.3919 281.336 76.4455 271.603 76.4455H262.699V106.214H253.898V30.5244H273.519C292.433 30.5244 301.89 37.8759 301.89 52.579ZM262.699 68.8869H270.62C278.42 68.8869 284.063 67.6272 287.549 65.1076C291.035 62.5881 292.778 58.5499 292.778 52.9931C292.778 47.9886 291.139 44.2611 287.86 41.8106C284.581 39.36 279.473 38.1348 272.535 38.1348H262.699V68.8869ZM351.383 106.214L349.675 98.1377H349.26C346.43 101.693 343.6 104.109 340.77 105.386C337.974 106.628 334.471 107.249 330.26 107.249C324.635 107.249 320.217 105.8 317.007 102.901C313.832 100.001 312.244 95.877 312.244 90.5273C312.244 79.0686 321.407 73.0631 339.734 72.5109L349.364 72.2003V68.6798C349.364 64.2275 348.398 60.9487 346.465 58.8433C344.566 56.7034 341.512 55.6335 337.301 55.6335C332.573 55.6335 327.223 57.0831 321.252 59.9823L318.612 53.4073C321.407 51.8887 324.462 50.698 327.775 49.8351C331.123 48.9722 334.471 48.5408 337.819 48.5408C344.584 48.5408 349.588 50.0422 352.833 53.0449C356.111 56.0476 357.751 60.8624 357.751 67.4891V106.214H351.383ZM331.969 100.157C337.318 100.157 341.512 98.6899 344.549 95.7562C347.621 92.8225 349.157 88.7153 349.157 83.4346V78.3093L340.563 78.6717C333.729 78.9133 328.793 79.9832 325.756 81.8815C322.753 83.7453 321.252 86.6617 321.252 90.6308C321.252 93.7371 322.184 96.1013 324.048 97.7235C325.946 99.3457 328.586 100.157 331.969 100.157ZM398.184 107.249C389.97 107.249 383.602 104.73 379.081 99.6908C374.594 94.6172 372.35 87.4555 372.35 78.2057C372.35 68.7143 374.628 61.3801 379.184 56.203C383.775 51.0258 390.298 48.4373 398.754 48.4373C401.48 48.4373 404.207 48.7306 406.934 49.3174C409.66 49.9041 411.8 50.5944 413.353 51.3882L410.713 58.688C408.815 57.9287 406.744 57.3074 404.5 56.8242C402.257 56.3065 400.272 56.0476 398.547 56.0476C387.019 56.0476 381.255 63.3992 381.255 78.1022C381.255 85.0741 382.653 90.4238 385.448 94.1513C388.279 97.8788 392.455 99.7426 397.977 99.7426C402.706 99.7426 407.555 98.7244 412.525 96.6881V104.298C408.728 106.266 403.948 107.249 398.184 107.249ZM434.528 77.1703C436.012 75.065 438.272 72.3038 441.31 68.8869L459.637 49.4727H469.836L446.849 73.6499L471.441 106.214H461.034L440.999 79.3965L434.528 84.9878V106.214H426.037V25.6579H434.528V68.3692C434.528 70.2675 434.39 73.2012 434.113 77.1703H434.528ZM531.029 52.579C531.029 60.2411 528.406 66.143 523.16 70.2847C517.948 74.3919 510.476 76.4455 500.743 76.4455H491.838V106.214H483.037V30.5244H502.659C521.572 30.5244 531.029 37.8759 531.029 52.579ZM491.838 68.8869H499.759C507.56 68.8869 513.203 67.6272 516.689 65.1076C520.175 62.5881 521.917 58.5499 521.917 52.9931C521.917 47.9886 520.278 44.2611 516.999 41.8106C513.72 39.36 508.612 38.1348 501.675 38.1348H491.838V68.8869ZM554.223 106.214H545.629V49.4727H554.223V106.214ZM544.904 34.0966C544.904 32.1293 545.387 30.697 546.354 29.7996C547.32 28.8677 548.528 28.4018 549.977 28.4018C551.358 28.4018 552.549 28.8677 553.55 29.7996C554.551 30.7315 555.051 32.1638 555.051 34.0966C555.051 36.0294 554.551 37.479 553.55 38.4454C552.549 39.3773 551.358 39.8432 549.977 39.8432C548.528 39.8432 547.32 39.3773 546.354 38.4454C545.387 37.479 544.904 36.0294 544.904 34.0966ZM595.122 107.249C586.908 107.249 580.54 104.73 576.018 99.6908C571.532 94.6172 569.288 87.4555 569.288 78.2057C569.288 68.7143 571.566 61.3801 576.122 56.203C580.712 51.0258 587.236 48.4373 595.692 48.4373C598.418 48.4373 601.145 48.7306 603.871 49.3174C606.598 49.9041 608.738 50.5944 610.291 51.3882L607.651 58.688C605.752 57.9287 603.682 57.3074 601.438 56.8242C599.195 56.3065 597.21 56.0476 595.484 56.0476C583.957 56.0476 578.193 63.3992 578.193 78.1022C578.193 85.0741 579.591 90.4238 582.386 94.1513C585.216 97.8788 589.393 99.7426 594.915 99.7426C599.643 99.7426 604.493 98.7244 609.463 96.6881V104.298C605.666 106.266 600.886 107.249 595.122 107.249ZM631.465 77.1703C632.95 75.065 635.21 72.3038 638.247 68.8869L656.575 49.4727H666.773L643.787 73.6499L668.378 106.214H657.972L637.937 79.3965L631.465 84.9878V106.214H622.975V25.6579H631.465V68.3692C631.465 70.2675 631.327 73.2012 631.051 77.1703H631.465ZM686.757 49.4727V86.2821C686.757 90.907 687.81 94.3584 689.915 96.6363C692.021 98.9142 695.317 100.053 699.804 100.053C705.74 100.053 710.071 98.431 712.798 95.1867C715.559 91.9424 716.94 86.6445 716.94 79.2929V49.4727H725.534V106.214H718.441L717.199 98.6036H716.733C714.972 101.399 712.522 103.539 709.381 105.023C706.275 106.507 702.72 107.249 698.716 107.249C691.813 107.249 686.636 105.61 683.185 102.331C679.768 99.0523 678.06 93.8061 678.06 86.5927V49.4727H686.757ZM770.212 107.249C766.519 107.249 763.137 106.576 760.065 105.23C757.028 103.85 754.474 101.744 752.403 98.9142H751.782C752.196 102.228 752.403 105.368 752.403 108.337V131.685H743.809V49.4727H750.798L751.989 57.2384H752.403C754.612 54.1321 757.183 51.8887 760.117 50.5081C763.051 49.1276 766.416 48.4373 770.212 48.4373C777.736 48.4373 783.535 51.0086 787.608 56.1512C791.715 61.2938 793.768 68.5073 793.768 77.7916C793.768 87.1104 791.68 94.3584 787.504 99.5355C783.362 104.678 777.598 107.249 770.212 107.249ZM768.97 55.737C763.172 55.737 758.978 57.3419 756.389 60.5517C753.801 63.7616 752.472 68.8697 752.403 75.876V77.7916C752.403 85.7643 753.732 91.4764 756.389 94.9279C759.047 98.3448 763.31 100.053 769.177 100.053C774.078 100.053 777.909 98.0686 780.67 94.0995C783.466 90.1304 784.864 84.6599 784.864 77.688C784.864 70.6126 783.466 65.1939 780.67 61.4319C777.909 57.6353 774.009 55.737 768.97 55.737ZM807.591 100.726C807.591 98.4138 808.109 96.6708 809.144 95.4973C810.214 94.2893 811.733 93.6853 813.7 93.6853C815.702 93.6853 817.255 94.2893 818.36 95.4973C819.499 96.6708 820.068 98.4138 820.068 100.726C820.068 102.97 819.499 104.695 818.36 105.903C817.221 107.111 815.668 107.715 813.7 107.715C811.94 107.715 810.473 107.18 809.3 106.11C808.161 105.006 807.591 103.211 807.591 100.726ZM859.777 107.249C851.562 107.249 845.194 104.73 840.673 99.6908C836.186 94.6172 833.943 87.4555 833.943 78.2057C833.943 68.7143 836.221 61.3801 840.777 56.203C845.367 51.0258 851.89 48.4373 860.346 48.4373C863.073 48.4373 865.799 48.7306 868.526 49.3174C871.253 49.9041 873.393 50.5944 874.946 51.3882L872.305 58.688C870.407 57.9287 868.336 57.3074 866.093 56.8242C863.849 56.3065 861.865 56.0476 860.139 56.0476C848.611 56.0476 842.847 63.3992 842.847 78.1022C842.847 85.0741 844.245 90.4238 847.041 94.1513C849.871 97.8788 854.047 99.7426 859.57 99.7426C864.298 99.7426 869.147 98.7244 874.117 96.6881V104.298C870.321 106.266 865.541 107.249 859.777 107.249ZM936.605 77.7916C936.605 87.0414 934.275 94.2721 929.616 99.4837C924.957 104.661 918.52 107.249 910.305 107.249C905.232 107.249 900.728 106.059 896.793 103.677C892.858 101.296 889.821 97.8788 887.681 93.4265C885.541 88.9742 884.472 83.7625 884.472 77.7916C884.472 68.5418 886.784 61.3456 891.409 56.203C896.034 51.0258 902.453 48.4373 910.668 48.4373C918.606 48.4373 924.905 51.0776 929.564 56.3583C934.258 61.6389 936.605 68.7834 936.605 77.7916ZM893.376 77.7916C893.376 85.0395 894.826 90.5618 897.725 94.3584C900.624 98.1549 904.887 100.053 910.512 100.053C916.138 100.053 920.401 98.1722 923.3 94.4101C926.234 90.6136 927.701 85.0741 927.701 77.7916C927.701 70.5781 926.234 65.1076 923.3 61.3801C920.401 57.618 916.104 55.737 910.409 55.737C904.783 55.737 900.538 57.5835 897.673 61.2765C894.809 64.9696 893.376 70.4746 893.376 77.7916ZM1024.05 106.214V69.3011C1024.05 64.7797 1023.08 61.3973 1021.15 59.1539C1019.21 56.876 1016.21 55.737 1012.14 55.737C1006.79 55.737 1002.84 57.2729 1000.28 60.3447C997.73 63.4164 996.453 68.1449 996.453 74.53V106.214H987.859V69.3011C987.859 64.7797 986.892 61.3973 984.96 59.1539C983.027 56.876 980.007 55.737 975.9 55.737C970.515 55.737 966.563 57.3592 964.044 60.6035C961.559 63.8133 960.316 69.094 960.316 76.4455V106.214H951.722V49.4727H958.712L960.109 57.2384H960.524C962.146 54.4773 964.424 52.3201 967.357 50.767C970.326 49.2138 973.639 48.4373 977.297 48.4373C986.168 48.4373 991.966 51.6471 994.693 58.0667H995.107C996.798 55.0985 999.248 52.7515 1002.46 51.0258C1005.67 49.3001 1009.33 48.4373 1013.43 48.4373C1019.85 48.4373 1024.65 50.094 1027.83 53.4073C1031.04 56.6862 1032.64 61.9496 1032.64 69.1975V106.214H1024.05Z" fill="#2F80ED"/>
</g>
<defs>
<filter id="filter0_d" x="23.8339" y="0" width="87.5783" height="76.666" filterUnits="userSpaceOnUse" color-interpolation-filters="sRGB">
<feFlood flood-opacity="0" result="BackgroundImageFix"/>
<feColorMatrix in="SourceAlpha" type="matrix" values="0 0 0 0 0 0 0 0 0 0 0 0 0 0 0 0 0 0 127 0"/>
<feOffset dy="0.319775"/>
<feGaussianBlur stdDeviation="0.159887"/>
<feColorMatrix type="matrix" values="0 0 0 0 0 0 0 0 0 0 0 0 0 0 0 0 0 0 0.25 0"/>
<feBlend mode="normal" in2="BackgroundImageFix" result="effect1_dropShadow"/>
<feBlend mode="normal" in="SourceGraphic" in2="effect1_dropShadow" result="shape"/>
</filter>
<filter id="filter1_d" x="253.898" y="25.6579" width="782.406" height="109.69" filterUnits="userSpaceOnUse" color-interpolation-filters="sRGB">
<feFlood flood-opacity="0" result="BackgroundImageFix"/>
<feColorMatrix in="SourceAlpha" type="matrix" values="0 0 0 0 0 0 0 0 0 0 0 0 0 0 0 0 0 0 127 0"/>
<feOffset dx="2.89166" dy="2.89166"/>
<feGaussianBlur stdDeviation="0.385555"/>
<feColorMatrix type="matrix" values="0 0 0 0 0 0 0 0 0 0 0 0 0 0 0 0 0 0 0.17 0"/>
<feBlend mode="normal" in2="BackgroundImageFix" result="effect1_dropShadow"/>
<feBlend mode="normal" in="SourceGraphic" in2="effect1_dropShadow" result="shape"/>
</filter>
</defs>
</svg>
