<svg width="1324" height="149" viewBox="0 0 1324 149" fill="none" xmlns="http://www.w3.org/2000/svg">
<g filter="url(#filter0_d)">
<rect x="2" y="2" width="1312" height="137" rx="6" fill="white"/>
<path d="M613.654 86.3134C610.665 86.3134 607.972 85.6648 605.575 84.3676C603.178 83.0422 601.289 81.2233 599.907 78.9109C598.553 76.5985 597.877 74.0182 597.877 71.17C597.877 68.3218 598.553 65.7415 599.907 63.4291C601.289 61.1167 603.178 59.3119 605.575 58.0147C607.972 56.6893 610.665 56.0266 613.654 56.0266C616.615 56.0266 619.294 56.6893 621.691 58.0147C624.088 59.3119 625.964 61.1167 627.317 63.4291C628.671 65.7133 629.348 68.2936 629.348 71.17C629.348 74.0464 628.671 76.6408 627.317 78.9532C625.964 81.2374 624.088 83.0422 621.691 84.3676C619.294 85.6648 616.615 86.3134 613.654 86.3134ZM613.654 82.5487C615.826 82.5487 617.772 82.0552 619.492 81.0682C621.24 80.0812 622.608 78.7276 623.595 77.0074C624.61 75.259 625.118 73.3132 625.118 71.17C625.118 69.0268 624.61 67.0951 623.595 65.3749C622.608 63.6265 621.24 62.2588 619.492 61.2718C617.772 60.2848 615.826 59.7913 613.654 59.7913C611.483 59.7913 609.509 60.2848 607.732 61.2718C605.984 62.2588 604.602 63.6265 603.587 65.3749C602.6 67.0951 602.107 69.0268 602.107 71.17C602.107 73.3132 602.6 75.259 603.587 77.0074C604.602 78.7276 605.984 80.0812 607.732 81.0682C609.509 82.0552 611.483 82.5487 613.654 82.5487ZM647.398 84.6637C646.806 85.1713 646.073 85.5661 645.199 85.8481C644.324 86.1019 643.422 86.2288 642.491 86.2288C640.235 86.2288 638.487 85.6225 637.246 84.4099C636.005 83.1973 635.385 81.463 635.385 79.207V66.8977H631.578V63.556H635.385V58.6492H639.446V63.556H645.875V66.8977H639.446V79.0378C639.446 80.2504 639.742 81.181 640.334 81.8296C640.955 82.4782 641.829 82.8025 642.957 82.8025C644.198 82.8025 645.255 82.45 646.129 81.745L647.398 84.6637ZM663.644 63.3445C666.492 63.3445 668.748 64.1764 670.412 65.8402C672.104 67.4758 672.95 69.8869 672.95 73.0735V85.975H668.889V73.5388C668.889 71.3674 668.368 69.7318 667.324 68.632C666.281 67.5322 664.786 66.9823 662.84 66.9823C660.641 66.9823 658.907 67.6309 657.638 68.9281C656.369 70.1971 655.734 72.0301 655.734 74.4271V85.975H651.673V54.5884H655.734V66.7285C656.58 65.6569 657.68 64.825 659.033 64.2328C660.415 63.6406 661.952 63.3445 663.644 63.3445ZM700.216 74.8924C700.216 75.2026 700.188 75.6115 700.132 76.1191H681.943C682.197 78.0931 683.057 79.6864 684.523 80.899C686.018 82.0834 687.865 82.6756 690.064 82.6756C692.743 82.6756 694.901 81.7732 696.536 79.9684L698.778 82.591C697.763 83.7754 696.494 84.6778 694.971 85.2982C693.477 85.9186 691.799 86.2288 689.938 86.2288C687.569 86.2288 685.468 85.7494 683.635 84.7906C681.802 83.8036 680.378 82.4359 679.363 80.6875C678.376 78.9391 677.882 76.9651 677.882 74.7655C677.882 72.5941 678.361 70.6342 679.32 68.8858C680.307 67.1374 681.647 65.7838 683.339 64.825C685.059 63.838 686.991 63.3445 689.134 63.3445C691.277 63.3445 693.181 63.838 694.844 64.825C696.536 65.7838 697.848 67.1374 698.778 68.8858C699.737 70.6342 700.216 72.6364 700.216 74.8924ZM689.134 66.7708C687.188 66.7708 685.552 67.363 684.227 68.5474C682.93 69.7318 682.168 71.2828 681.943 73.2004H696.325C696.099 71.311 695.324 69.7741 693.998 68.5897C692.701 67.3771 691.08 66.7708 689.134 66.7708ZM709.112 67.3207C709.817 66.0235 710.861 65.0365 712.242 64.3597C713.624 63.6829 715.302 63.3445 717.276 63.3445V67.2784C717.051 67.2502 716.74 67.2361 716.346 67.2361C714.146 67.2361 712.412 67.8988 711.143 69.2242C709.902 70.5214 709.281 72.3826 709.281 74.8078V85.975H705.221V63.556H709.112V67.3207ZM728.241 86.2288C726.408 86.2288 724.646 85.9891 722.954 85.5097C721.262 85.0021 719.937 84.3676 718.978 83.6062L720.67 80.3914C721.657 81.0964 722.855 81.6604 724.265 82.0834C725.675 82.5064 727.099 82.7179 728.538 82.7179C732.091 82.7179 733.867 81.7027 733.867 79.6723C733.867 78.9955 733.628 78.4597 733.148 78.0649C732.669 77.6701 732.063 77.3881 731.329 77.2189C730.624 77.0215 729.609 76.81 728.284 76.5844C726.479 76.3024 724.998 75.9781 723.842 75.6115C722.714 75.2449 721.741 74.6245 720.924 73.7503C720.106 72.8761 719.697 71.6494 719.697 70.0702C719.697 68.0398 720.543 66.4183 722.235 65.2057C723.927 63.9649 726.197 63.3445 729.045 63.3445C730.54 63.3445 732.034 63.5278 733.529 63.8944C735.024 64.261 736.25 64.7545 737.209 65.3749L735.475 68.5897C733.642 67.4053 731.484 66.8131 729.003 66.8131C727.283 66.8131 725.971 67.0951 725.069 67.6591C724.167 68.2231 723.715 68.9704 723.715 69.901C723.715 70.6342 723.969 71.2123 724.477 71.6353C724.984 72.0583 725.605 72.3685 726.338 72.5659C727.099 72.7633 728.157 72.9889 729.51 73.2427C731.315 73.5529 732.768 73.8913 733.867 74.2579C734.995 74.5963 735.954 75.1885 736.744 76.0345C737.533 76.8805 737.928 78.0649 737.928 79.5877C737.928 81.6181 737.054 83.2396 735.306 84.4522C733.585 85.6366 731.231 86.2288 728.241 86.2288Z" fill="#737577"/>
<rect x="1" y="1" width="1314" height="139" stroke="#C4C4C4" stroke-width="2"/>
</g>
<defs>
<filter id="filter0_d" x="0" y="0" width="1324" height="149" filterUnits="userSpaceOnUse" color-interpolation-filters="sRGB">
<feFlood flood-opacity="0" result="BackgroundImageFix"/>
<feColorMatrix in="SourceAlpha" type="matrix" values="0 0 0 0 0 0 0 0 0 0 0 0 0 0 0 0 0 0 127 0"/>
<feOffset dx="4" dy="4"/>
<feGaussianBlur stdDeviation="2"/>
<feColorMatrix type="matrix" values="0 0 0 0 0 0 0 0 0 0 0 0 0 0 0 0 0 0 0.25 0"/>
<feBlend mode="normal" in2="BackgroundImageFix" result="effect1_dropShadow"/>
<feBlend mode="normal" in="SourceGraphic" in2="effect1_dropShadow" result="shape"/>
</filter>
</defs>
</svg>
