<svg width="640" height="354" viewBox="0 0 640 354" fill="none" xmlns="http://www.w3.org/2000/svg">
<g filter="url(#filter0_d)">
<rect x="2" y="2" width="628" height="342" rx="6" fill="white"/>
<path d="M46.2379 307.283L39.8506 298.189C39.061 298.245 38.4406 298.273 37.9894 298.273H30.6715V307.283H26.4415V277.673H37.9894C41.8246 277.673 44.842 278.59 47.0416 280.423C49.2412 282.256 50.341 284.78 50.341 287.995C50.341 290.279 49.777 292.225 48.649 293.832C47.521 295.439 45.9136 296.61 43.8268 297.343L50.8486 307.283H46.2379ZM37.8625 294.678C40.5415 294.678 42.586 294.1 43.996 292.944C45.406 291.787 46.111 290.138 46.111 287.995C46.111 285.851 45.406 284.216 43.996 283.088C42.586 281.932 40.5415 281.353 37.8625 281.353H30.6715V294.678H37.8625ZM76.2101 296.201C76.2101 296.511 76.1819 296.92 76.1255 297.427H57.9365C58.1903 299.401 59.0504 300.995 60.5168 302.207C62.0114 303.392 63.8585 303.984 66.0581 303.984C68.7371 303.984 70.8944 303.082 72.53 301.277L74.7719 303.899C73.7567 305.084 72.4877 305.986 70.9649 306.607C69.4703 307.227 67.7924 307.537 65.9312 307.537C63.5624 307.537 61.4615 307.058 59.6285 306.099C57.7955 305.112 56.3714 303.744 55.3562 301.996C54.3692 300.247 53.8757 298.273 53.8757 296.074C53.8757 293.902 54.3551 291.943 55.3139 290.194C56.3009 288.446 57.6404 287.092 59.3324 286.133C61.0526 285.146 62.9843 284.653 65.1275 284.653C67.2707 284.653 69.1742 285.146 70.838 286.133C72.53 287.092 73.8413 288.446 74.7719 290.194C75.7307 291.943 76.2101 293.945 76.2101 296.201ZM65.1275 288.079C63.1817 288.079 61.5461 288.671 60.2207 289.856C58.9235 291.04 58.1621 292.591 57.9365 294.509H72.3185C72.0929 292.619 71.3174 291.082 69.992 289.898C68.6948 288.685 67.0733 288.079 65.1275 288.079ZM90.9857 307.537C88.7015 307.537 86.657 307.044 84.8522 306.057C83.0756 305.07 81.6797 303.716 80.6645 301.996C79.6493 300.247 79.1417 298.273 79.1417 296.074C79.1417 293.874 79.6493 291.914 80.6645 290.194C81.6797 288.446 83.0756 287.092 84.8522 286.133C86.657 285.146 88.7015 284.653 90.9857 284.653C93.0161 284.653 94.8209 285.062 96.4001 285.88C98.0075 286.697 99.2483 287.882 100.122 289.433L97.0346 291.421C96.3296 290.349 95.4554 289.546 94.412 289.01C93.3686 288.474 92.2124 288.206 90.9434 288.206C89.477 288.206 88.1516 288.53 86.9672 289.179C85.811 289.828 84.8945 290.758 84.2177 291.971C83.5691 293.155 83.2448 294.523 83.2448 296.074C83.2448 297.653 83.5691 299.049 84.2177 300.262C84.8945 301.446 85.811 302.362 86.9672 303.011C88.1516 303.66 89.477 303.984 90.9434 303.984C92.2124 303.984 93.3686 303.716 94.412 303.18C95.4554 302.644 96.3296 301.841 97.0346 300.769L100.122 302.715C99.2483 304.266 98.0075 305.464 96.4001 306.31C94.8209 307.128 93.0161 307.537 90.9857 307.537ZM114.017 307.537C111.789 307.537 109.787 307.044 108.01 306.057C106.234 305.07 104.838 303.716 103.823 301.996C102.836 300.247 102.342 298.273 102.342 296.074C102.342 293.874 102.836 291.914 103.823 290.194C104.838 288.446 106.234 287.092 108.01 286.133C109.787 285.146 111.789 284.653 114.017 284.653C116.245 284.653 118.233 285.146 119.981 286.133C121.758 287.092 123.14 288.446 124.127 290.194C125.142 291.914 125.65 293.874 125.65 296.074C125.65 298.273 125.142 300.247 124.127 301.996C123.14 303.716 121.758 305.07 119.981 306.057C118.233 307.044 116.245 307.537 114.017 307.537ZM114.017 303.984C115.455 303.984 116.738 303.66 117.866 303.011C119.023 302.334 119.925 301.404 120.574 300.219C121.222 299.007 121.546 297.625 121.546 296.074C121.546 294.523 121.222 293.155 120.574 291.971C119.925 290.758 119.023 289.828 117.866 289.179C116.738 288.53 115.455 288.206 114.017 288.206C112.579 288.206 111.282 288.53 110.125 289.179C108.997 289.828 108.095 290.758 107.418 291.971C106.77 293.155 106.445 294.523 106.445 296.074C106.445 297.625 106.77 299.007 107.418 300.219C108.095 301.404 108.997 302.334 110.125 303.011C111.282 303.66 112.579 303.984 114.017 303.984ZM149.85 284.864L140.036 307.283H135.891L126.077 284.864H130.307L138.006 302.842L145.874 284.864H149.85ZM172.647 296.201C172.647 296.511 172.619 296.92 172.563 297.427H154.374C154.628 299.401 155.488 300.995 156.954 302.207C158.449 303.392 160.296 303.984 162.495 303.984C165.174 303.984 167.332 303.082 168.967 301.277L171.209 303.899C170.194 305.084 168.925 305.986 167.402 306.607C165.908 307.227 164.23 307.537 162.369 307.537C160 307.537 157.899 307.058 156.066 306.099C154.233 305.112 152.809 303.744 151.794 301.996C150.807 300.247 150.313 298.273 150.313 296.074C150.313 293.902 150.792 291.943 151.751 290.194C152.738 288.446 154.078 287.092 155.77 286.133C157.49 285.146 159.422 284.653 161.565 284.653C163.708 284.653 165.612 285.146 167.275 286.133C168.967 287.092 170.279 288.446 171.209 290.194C172.168 291.943 172.647 293.945 172.647 296.201ZM161.565 288.079C159.619 288.079 157.983 288.671 156.658 289.856C155.361 291.04 154.599 292.591 154.374 294.509H168.756C168.53 292.619 167.755 291.082 166.429 289.898C165.132 288.685 163.511 288.079 161.565 288.079ZM181.543 288.629C182.248 287.332 183.292 286.345 184.674 285.668C186.055 284.991 187.733 284.653 189.707 284.653V288.587C189.482 288.559 189.171 288.544 188.777 288.544C186.577 288.544 184.843 289.207 183.574 290.533C182.333 291.83 181.713 293.691 181.713 296.116V307.283H177.652V284.864H181.543V288.629ZM214.825 284.864L203.954 309.525C202.995 311.809 201.867 313.417 200.57 314.347C199.301 315.278 197.764 315.743 195.959 315.743C194.86 315.743 193.788 315.56 192.745 315.193C191.729 314.855 190.883 314.347 190.207 313.671L191.941 310.625C193.097 311.725 194.437 312.275 195.959 312.275C196.946 312.275 197.764 312.007 198.413 311.471C199.09 310.963 199.696 310.075 200.232 308.806L200.951 307.241L191.053 284.864H195.283L203.108 302.8L210.849 284.864H214.825Z" fill="#657076"/>
<path d="M536.216 184.238H521.613C521.477 184.238 521.368 184.347 521.368 184.483V205.045C521.368 205.181 521.477 205.29 521.613 205.29H536.216C536.351 205.29 536.461 205.181 536.461 205.045V184.483C536.461 184.347 536.351 184.238 536.216 184.238Z" fill="#B8B8B8" stroke="black" stroke-width="0.163463"/>
<mask id="path-6-inside-1" fill="white">
<path fill-rule="evenodd" clip-rule="evenodd" d="M495.746 74.2972C495.401 73.7566 494.8 73.4234 494.159 73.4234H412.565C411.527 73.4234 410.686 74.265 410.686 75.3032V172.31H423.898V85.1304C423.898 84.0922 424.74 83.2506 425.778 83.2506H494.952C495.65 83.2506 496.295 83.6457 496.619 84.2628C511.449 112.428 518.797 128.209 521.306 147.128L521.306 184.341C521.356 184.311 521.414 184.293 521.477 184.293H532.983V159.377C532.983 159.196 532.956 159.013 532.905 158.84C521.319 119.688 512.933 101.266 495.746 74.2972ZM521.15 205.395H476.443C476.443 205.32 476.443 205.245 476.443 205.17C476.443 187.125 461.889 172.477 443.872 172.312V172.31H443.564H423.98V85.1304C423.98 84.1374 424.785 83.3323 425.778 83.3323H494.952C495.619 83.3323 496.236 83.7102 496.547 84.3008C511.376 112.464 518.717 128.233 521.224 147.133L521.224 184.412C521.178 184.469 521.15 184.541 521.15 184.62V205.395ZM492.662 86.9177C493.281 86.9291 493.856 87.2449 494.194 87.764C504.022 102.873 510.283 118.728 512.395 127.523L517.173 142.563C517.627 143.991 516.308 145.351 514.866 144.94L426.961 119.88C426.785 119.83 426.664 119.67 426.664 119.487V87.6221C426.664 86.5704 427.527 85.7233 428.578 85.7425L492.662 86.9177Z"/>
</mask>
<path fill-rule="evenodd" clip-rule="evenodd" d="M495.746 74.2972C495.401 73.7566 494.8 73.4234 494.159 73.4234H412.565C411.527 73.4234 410.686 74.265 410.686 75.3032V172.31H423.898V85.1304C423.898 84.0922 424.74 83.2506 425.778 83.2506H494.952C495.65 83.2506 496.295 83.6457 496.619 84.2628C511.449 112.428 518.797 128.209 521.306 147.128L521.306 184.341C521.356 184.311 521.414 184.293 521.477 184.293H532.983V159.377C532.983 159.196 532.956 159.013 532.905 158.84C521.319 119.688 512.933 101.266 495.746 74.2972ZM521.15 205.395H476.443C476.443 205.32 476.443 205.245 476.443 205.17C476.443 187.125 461.889 172.477 443.872 172.312V172.31H443.564H423.98V85.1304C423.98 84.1374 424.785 83.3323 425.778 83.3323H494.952C495.619 83.3323 496.236 83.7102 496.547 84.3008C511.376 112.464 518.717 128.233 521.224 147.133L521.224 184.412C521.178 184.469 521.15 184.541 521.15 184.62V205.395ZM492.662 86.9177C493.281 86.9291 493.856 87.2449 494.194 87.764C504.022 102.873 510.283 118.728 512.395 127.523L517.173 142.563C517.627 143.991 516.308 145.351 514.866 144.94L426.961 119.88C426.785 119.83 426.664 119.67 426.664 119.487V87.6221C426.664 86.5704 427.527 85.7233 428.578 85.7425L492.662 86.9177Z" fill="#FFF3DC"/>
<path d="M495.746 74.2972L495.47 74.4729L495.47 74.4729L495.746 74.2972ZM410.686 172.31V172.637H410.359V172.31H410.686ZM423.898 172.31H424.225V172.637H423.898V172.31ZM496.619 84.2628L496.33 84.4151L496.33 84.4151L496.619 84.2628ZM521.306 147.128L521.63 147.085L521.633 147.106L521.633 147.128L521.306 147.128ZM521.306 184.341L521.477 184.62L520.979 184.925L520.979 184.341L521.306 184.341ZM532.983 184.293H533.31V184.62H532.983V184.293ZM532.905 158.84L532.591 158.933L532.591 158.933L532.905 158.84ZM521.15 205.395H521.477V205.722H521.15V205.395ZM476.443 205.395V205.722H476.113L476.116 205.393L476.443 205.395ZM443.872 172.312L443.869 172.639L443.545 172.636V172.312H443.872ZM443.872 172.31V171.983H444.199V172.31H443.872ZM423.98 172.31V172.637H423.653V172.31H423.98ZM496.547 84.3008L496.836 84.1485L496.836 84.1485L496.547 84.3008ZM521.224 147.133L521.549 147.09L521.551 147.112L521.551 147.133L521.224 147.133ZM521.224 184.412L521.551 184.412L521.551 184.529L521.477 184.62L521.224 184.412ZM494.194 87.764L494.468 87.5858L494.468 87.5858L494.194 87.764ZM492.662 86.9177L492.656 87.2446L492.656 87.2446L492.662 86.9177ZM512.395 127.523L512.084 127.622L512.08 127.611L512.077 127.599L512.395 127.523ZM517.173 142.563L516.862 142.662L516.862 142.662L517.173 142.563ZM514.866 144.94L514.777 145.254L514.777 145.254L514.866 144.94ZM426.961 119.88L426.871 120.195L426.871 120.195L426.961 119.88ZM428.578 85.7425L428.584 85.4157L428.584 85.4157L428.578 85.7425ZM494.159 73.0964C494.913 73.0964 495.617 73.4877 496.021 74.1215L495.47 74.4729C495.185 74.0255 494.687 73.7503 494.159 73.7503V73.0964ZM412.565 73.0964H494.159V73.7503H412.565V73.0964ZM410.359 75.3032C410.359 74.0844 411.347 73.0964 412.565 73.0964V73.7503C411.708 73.7503 411.012 74.4456 411.012 75.3032H410.359ZM410.359 172.31V75.3032H411.012V172.31H410.359ZM423.898 172.637H410.686V171.983H423.898V172.637ZM424.225 85.1304V172.31H423.572V85.1304H424.225ZM425.778 83.5775C424.921 83.5775 424.225 84.2728 424.225 85.1304H423.572C423.572 83.9117 424.56 82.9237 425.778 82.9237V83.5775ZM494.952 83.5775H425.778V82.9237H494.952V83.5775ZM496.33 84.4151C496.061 83.9037 495.526 83.5775 494.952 83.5775V82.9237C495.773 82.9237 496.528 83.3876 496.909 84.1105L496.33 84.4151ZM520.982 147.171C518.481 128.317 511.162 112.584 496.33 84.4151L496.909 84.1105C511.737 112.272 519.112 128.101 521.63 147.085L520.982 147.171ZM520.979 184.341L520.979 147.128L521.633 147.128L521.633 184.341L520.979 184.341ZM521.477 184.62L521.477 184.62L521.135 184.062C521.235 184.001 521.352 183.966 521.477 183.966V184.62ZM532.983 184.62H521.477V183.966H532.983V184.62ZM533.31 159.377V184.293H532.656V159.377H533.31ZM533.218 158.747C533.278 158.95 533.31 159.164 533.31 159.377H532.656C532.656 159.228 532.634 159.076 532.591 158.933L533.218 158.747ZM496.021 74.1215C513.228 101.12 521.626 119.57 533.218 158.747L532.591 158.933C521.013 119.805 512.638 101.412 495.47 74.4729L496.021 74.1215ZM521.15 205.722H476.443V205.069H521.15V205.722ZM476.116 205.393C476.116 205.319 476.116 205.245 476.116 205.17H476.77C476.77 205.246 476.77 205.322 476.769 205.398L476.116 205.393ZM476.116 205.17C476.116 187.304 461.707 172.802 443.869 172.639L443.875 171.985C462.071 172.151 476.77 186.945 476.77 205.17H476.116ZM443.545 172.312V172.31H444.199V172.312H443.545ZM443.872 172.637H443.564V171.983H443.872V172.637ZM443.564 172.637H423.98V171.983H443.564V172.637ZM423.653 172.31V85.1304H424.307V172.31H423.653ZM423.653 85.1304C423.653 83.9568 424.605 83.0054 425.778 83.0054V83.6593C424.966 83.6593 424.307 84.3179 424.307 85.1304H423.653ZM425.778 83.0054H494.952V83.6593H425.778V83.0054ZM494.952 83.0054C495.742 83.0054 496.47 83.4521 496.836 84.1485L496.258 84.4532C496.002 83.9682 495.496 83.6593 494.952 83.6593V83.0054ZM496.836 84.1485C511.663 112.309 519.032 128.125 521.549 147.09L520.9 147.176C518.401 128.341 511.088 112.62 496.258 84.4532L496.836 84.1485ZM521.551 147.133L521.551 184.412L520.898 184.412L520.898 147.133L521.551 147.133ZM521.477 184.62L521.477 184.62H520.823C520.823 184.462 520.879 184.317 520.972 184.204L521.477 184.62ZM521.477 184.62V205.395H520.823V184.62H521.477ZM493.92 87.9423C493.642 87.515 493.168 87.254 492.656 87.2446L492.668 86.5908C493.395 86.6042 494.071 86.9748 494.468 87.5858L493.92 87.9423ZM512.077 127.599C509.974 118.844 503.729 103.023 493.92 87.9423L494.468 87.5858C504.314 102.723 510.591 118.612 512.713 127.447L512.077 127.599ZM516.862 142.662L512.084 127.622L512.707 127.424L517.485 142.464L516.862 142.662ZM514.956 144.625C516.147 144.965 517.237 143.842 516.862 142.662L517.485 142.464C518.018 144.141 516.469 145.736 514.777 145.254L514.956 144.625ZM427.05 119.566L514.956 144.625L514.777 145.254L426.871 120.195L427.05 119.566ZM426.991 119.487C426.991 119.524 427.015 119.556 427.05 119.566L426.871 120.195C426.555 120.105 426.337 119.816 426.337 119.487H426.991ZM426.991 87.6221V119.487H426.337V87.6221H426.991ZM428.572 86.0694C427.704 86.0535 426.991 86.7533 426.991 87.6221H426.337C426.337 86.3875 427.35 85.393 428.584 85.4157L428.572 86.0694ZM492.656 87.2446L428.572 86.0694L428.584 85.4157L492.668 86.5908L492.656 87.2446Z" fill="black" mask="url(#path-6-inside-1)"/>
<path d="M427.857 172.371L421.202 172.371C415.886 182.675 411.188 186.045 407.631 199.392C404.074 212.739 409.446 201.794 409.446 201.794C414.969 188.671 419.393 182.1 427.857 172.371Z" fill="black"/>
<mask id="path-9-inside-2" fill="white">
<path fill-rule="evenodd" clip-rule="evenodd" d="M387.018 172.81H390.904V180.626H390.911V185.068H390.904V199.463H390.1V199.493H244.433V194.994H247.097V172.81H250.983V180.626H387.018V172.81ZM387.018 185.068V194.994H250.983V185.068H387.018Z"/>
</mask>
<path fill-rule="evenodd" clip-rule="evenodd" d="M387.018 172.81H390.904V180.626H390.911V185.068H390.904V199.463H390.1V199.493H244.433V194.994H247.097V172.81H250.983V180.626H387.018V172.81ZM387.018 185.068V194.994H250.983V185.068H387.018Z" fill="#B8B8B8"/>
<path d="M390.904 172.81V172.483H391.231V172.81H390.904ZM387.018 172.81H386.691V172.483H387.018V172.81ZM390.904 180.626V180.953H390.577V180.626H390.904ZM390.911 180.626V180.299H391.237V180.626H390.911ZM390.911 185.068H391.237V185.395H390.911V185.068ZM390.904 185.068H390.577V184.741H390.904V185.068ZM390.904 199.463H391.231V199.79H390.904V199.463ZM390.1 199.463H389.773V199.136H390.1V199.463ZM390.1 199.493H390.427V199.82H390.1V199.493ZM244.433 199.493V199.82H244.106V199.493H244.433ZM244.433 194.994H244.106V194.667H244.433V194.994ZM247.097 194.994H247.424V195.32H247.097V194.994ZM247.097 172.81H246.77V172.483H247.097V172.81ZM250.983 172.81V172.483H251.31V172.81H250.983ZM250.983 180.626V180.953H250.657V180.626H250.983ZM387.018 180.626H387.344V180.953H387.018V180.626ZM387.018 185.068V184.741H387.344V185.068H387.018ZM387.018 194.994H387.344V195.32H387.018V194.994ZM250.983 194.994V195.32H250.657V194.994H250.983ZM250.983 185.068H250.657V184.741H250.983V185.068ZM390.904 173.137H387.018V172.483H390.904V173.137ZM390.577 180.626V172.81H391.231V180.626H390.577ZM390.911 180.953H390.904V180.299H390.911V180.953ZM390.584 185.068V180.626H391.237V185.068H390.584ZM390.904 184.741H390.911V185.395H390.904V184.741ZM390.577 199.463V185.068H391.231V199.463H390.577ZM390.1 199.136H390.904V199.79H390.1V199.136ZM389.773 199.493V199.463H390.427V199.493H389.773ZM244.433 199.167H390.1V199.82H244.433V199.167ZM244.76 194.994V199.493H244.106V194.994H244.76ZM247.097 195.32H244.433V194.667H247.097V195.32ZM247.424 172.81V194.994H246.77V172.81H247.424ZM250.983 173.137H247.097V172.483H250.983V173.137ZM250.657 180.626V172.81H251.31V180.626H250.657ZM387.018 180.953H250.983V180.299H387.018V180.953ZM387.344 172.81V180.626H386.691V172.81H387.344ZM387.344 185.068V194.994H386.691V185.068H387.344ZM387.018 195.32H250.983V194.667H387.018V195.32ZM250.657 194.994V185.068H251.31V194.994H250.657ZM250.983 184.741H387.018V185.395H250.983V184.741Z" fill="black" mask="url(#path-9-inside-2)"/>
<mask id="path-11-inside-3" fill="white">
<path fill-rule="evenodd" clip-rule="evenodd" d="M122.023 172.973H125.69V194.393L166.031 194.393V172.974H169.698V198.678H166.031V198.677H125.69V198.677H122.023V198.677H105.732C105.729 198.677 105.726 198.677 105.723 198.677H97.2483C97.158 198.677 97.0848 198.604 97.0848 198.514V181.705C97.0848 181.614 97.158 181.541 97.2483 181.541H105.723C105.813 181.541 105.886 181.614 105.886 181.705V194.393H122.023V172.973Z"/>
</mask>
<path fill-rule="evenodd" clip-rule="evenodd" d="M122.023 172.973H125.69V194.393L166.031 194.393V172.974H169.698V198.678H166.031V198.677H125.69V198.677H122.023V198.677H105.732C105.729 198.677 105.726 198.677 105.723 198.677H97.2483C97.158 198.677 97.0848 198.604 97.0848 198.514V181.705C97.0848 181.614 97.158 181.541 97.2483 181.541H105.723C105.813 181.541 105.886 181.614 105.886 181.705V194.393H122.023V172.973Z" fill="#B8B8B8"/>
<path d="M125.69 172.973V172.646H126.017V172.973H125.69ZM122.023 172.973H121.696V172.646H122.023V172.973ZM125.69 194.393L125.69 194.72L125.363 194.72V194.393H125.69ZM166.031 194.393H166.358V194.72L166.031 194.72L166.031 194.393ZM166.031 172.974H165.704V172.647H166.031V172.974ZM169.698 172.974V172.647H170.025V172.974H169.698ZM169.698 198.678H170.025V199.005H169.698V198.678ZM166.031 198.678V199.005H165.704V198.678H166.031ZM166.031 198.677V198.35H166.358V198.677H166.031ZM125.69 198.677H125.363V198.35H125.69V198.677ZM125.69 198.677H126.017V199.004H125.69V198.677ZM122.023 198.677V199.004H121.696V198.677H122.023ZM122.023 198.677V198.35H122.35V198.677H122.023ZM105.732 198.677L105.714 198.351L105.723 198.35H105.732V198.677ZM105.886 194.393V194.72H105.56V194.393H105.886ZM122.023 194.393H122.35V194.72H122.023V194.393ZM125.69 173.3H122.023V172.646H125.69V173.3ZM125.363 194.393V172.973H126.017V194.393H125.363ZM166.031 194.72L125.69 194.72L125.69 194.066L166.031 194.066L166.031 194.72ZM166.358 172.974V194.393H165.704V172.974H166.358ZM169.698 173.301H166.031V172.647H169.698V173.301ZM169.371 198.678V172.974H170.025V198.678H169.371ZM166.031 198.351H169.698V199.005H166.031V198.351ZM166.358 198.677V198.678H165.704V198.677H166.358ZM125.69 198.35H166.031V199.004H125.69V198.35ZM125.363 198.677V198.677H126.017V198.677H125.363ZM122.023 198.35H125.69V199.004H122.023V198.35ZM122.35 198.677V198.677H121.696V198.677H122.35ZM105.732 198.35H122.023V199.004H105.732V198.35ZM105.723 198.35C105.72 198.35 105.717 198.351 105.714 198.351L105.751 199.003C105.742 199.004 105.732 199.004 105.723 199.004V198.35ZM97.2483 198.35H105.723V199.004H97.2483V198.35ZM97.4117 198.514C97.4117 198.424 97.3386 198.35 97.2483 198.35V199.004C96.9774 199.004 96.7579 198.785 96.7579 198.514H97.4117ZM97.4117 181.705V198.514H96.7579V181.705H97.4117ZM97.2483 181.868C97.3386 181.868 97.4117 181.795 97.4117 181.705H96.7579C96.7579 181.434 96.9774 181.214 97.2483 181.214V181.868ZM105.723 181.868H97.2483V181.214H105.723V181.868ZM105.56 181.705C105.56 181.795 105.633 181.868 105.723 181.868V181.214C105.994 181.214 106.213 181.434 106.213 181.705H105.56ZM105.56 194.393V181.705H106.213V194.393H105.56ZM122.023 194.72H105.886V194.066H122.023V194.72ZM122.35 172.973V194.393H121.696V172.973H122.35Z" fill="black" mask="url(#path-11-inside-3)"/>
<path d="M510.657 134.166C511.172 139.778 512.963 140.847 517.296 141.178" stroke="black" stroke-width="0.0817316"/>
<path d="M508.677 118.304C508.667 118.265 508.631 118.239 508.592 118.24L506.931 118.301C506.882 118.303 506.847 118.347 506.856 118.395L511.167 141.335C511.179 141.398 511.255 141.426 511.303 141.385L513.994 139.067C514.016 139.048 514.026 139.017 514.018 138.987L508.677 118.304Z" fill="black"/>
<path d="M390.842 73.42V171.831H91.2921C79.2824 171.831 50.2806 164.595 37.2809 160.978H373.219L381.826 73.42H390.842Z" fill="#FFF3DC" stroke="black" stroke-width="0.326926"/>
<path fill-rule="evenodd" clip-rule="evenodd" d="M228.604 172.239H186.342V172.569L170.759 199.564L173.868 201.359L188.03 176.237H226.813L241.291 201.404L244.4 199.609L228.695 172.402L228.604 172.402V172.239Z" fill="black"/>
<mask id="path-17-inside-4" fill="white">
<path fill-rule="evenodd" clip-rule="evenodd" d="M405.972 154.537C408.796 152.786 410.676 149.659 410.676 146.092C410.676 140.608 406.23 136.162 400.746 136.162C395.261 136.162 390.815 140.608 390.815 146.092C390.815 149.659 392.696 152.786 395.52 154.537H394.555C392.524 154.537 390.877 156.184 390.877 158.215V169.112C390.877 171.143 392.524 172.79 394.555 172.79H406.998C409.029 172.79 410.676 171.143 410.676 169.112V158.215C410.676 156.184 409.029 154.537 406.998 154.537H405.972Z"/>
</mask>
<path fill-rule="evenodd" clip-rule="evenodd" d="M405.972 154.537C408.796 152.786 410.676 149.659 410.676 146.092C410.676 140.608 406.23 136.162 400.746 136.162C395.261 136.162 390.815 140.608 390.815 146.092C390.815 149.659 392.696 152.786 395.52 154.537H394.555C392.524 154.537 390.877 156.184 390.877 158.215V169.112C390.877 171.143 392.524 172.79 394.555 172.79H406.998C409.029 172.79 410.676 171.143 410.676 169.112V158.215C410.676 156.184 409.029 154.537 406.998 154.537H405.972Z" fill="#B8B8B8"/>
<path d="M405.972 154.537V154.864H404.825L405.8 154.26L405.972 154.537ZM395.52 154.537L395.692 154.26L396.667 154.864H395.52V154.537ZM411.003 146.092C411.003 149.777 409.06 153.007 406.144 154.815L405.8 154.26C408.531 152.566 410.349 149.541 410.349 146.092H411.003ZM400.746 135.835C406.411 135.835 411.003 140.427 411.003 146.092H410.349C410.349 140.788 406.05 136.489 400.746 136.489V135.835ZM390.488 146.092C390.488 140.427 395.081 135.835 400.746 135.835V136.489C395.442 136.489 391.142 140.788 391.142 146.092H390.488ZM395.347 154.815C392.431 153.007 390.488 149.777 390.488 146.092H391.142C391.142 149.541 392.96 152.566 395.692 154.26L395.347 154.815ZM394.555 154.211H395.52V154.864H394.555V154.211ZM390.55 158.215C390.55 156.004 392.343 154.211 394.555 154.211V154.864C392.704 154.864 391.204 156.365 391.204 158.215H390.55ZM390.55 169.112V158.215H391.204V169.112H390.55ZM394.555 173.117C392.343 173.117 390.55 171.323 390.55 169.112H391.204C391.204 170.962 392.704 172.463 394.555 172.463V173.117ZM406.998 173.117H394.555V172.463H406.998V173.117ZM411.003 169.112C411.003 171.323 409.21 173.117 406.998 173.117V172.463C408.849 172.463 410.349 170.962 410.349 169.112H411.003ZM411.003 158.215V169.112H410.349V158.215H411.003ZM406.998 154.211C409.21 154.211 411.003 156.004 411.003 158.215H410.349C410.349 156.365 408.849 154.864 406.998 154.864V154.211ZM405.972 154.211H406.998V154.864H405.972V154.211Z" fill="black" mask="url(#path-17-inside-4)"/>
<rect x="191.23" y="84.1393" width="153.385" height="66.1078" stroke="white" stroke-width="0.0408658"/>
<path d="M207.696 178.593C192.005 178.593 179.294 191.121 179.294 206.586C179.294 222.051 192.005 234.579 207.696 234.579C223.386 234.579 236.097 222.051 236.097 206.586C236.097 191.121 223.349 178.593 207.696 178.593ZM207.696 227.553C195.928 227.553 186.423 218.147 186.423 206.586C186.423 195.024 195.965 185.619 207.696 185.619C219.426 185.619 228.969 195.024 228.969 206.586C228.969 218.147 219.426 227.553 207.696 227.553Z" fill="url(#paint0_radial)"/>
<path d="M207.583 227.478C219.352 227.478 228.893 218.074 228.893 206.474C228.893 194.874 219.352 185.47 207.583 185.47C195.813 185.47 186.272 194.874 186.272 206.474C186.272 218.074 195.813 227.478 207.583 227.478Z" fill="url(#paint1_radial)"/>
<path d="M208.412 195.916L206.564 195.842L205.583 197.366L206.451 199.002L208.299 199.076L209.28 197.515L208.412 195.916Z" fill="url(#paint2_radial)"/>
<path d="M208.412 214.132L206.564 214.058L205.583 215.582L206.451 217.218L208.299 217.292L209.28 215.731L208.412 214.132Z" fill="url(#paint3_radial)"/>
<path d="M200.378 198.37L199.021 199.597L199.398 201.381L201.171 201.902L202.528 200.675L202.114 198.89L200.378 198.37Z" fill="url(#paint4_radial)"/>
<path d="M213.429 211.233L212.071 212.459L212.486 214.244L214.259 214.801L215.616 213.537L215.202 211.79L213.429 211.233Z" fill="url(#paint5_radial)"/>
<path d="M196.493 205.619L196.418 207.404L198.002 208.407L199.624 207.552L199.699 205.731L198.153 204.764L196.493 205.619Z" fill="url(#paint6_radial)"/>
<path d="M214.975 205.619L214.9 207.403L216.484 208.407L218.106 207.552L218.181 205.731L216.635 204.764L214.975 205.619Z" fill="url(#paint7_radial)"/>
<path d="M198.983 213.426L200.228 214.764L202.038 214.355L202.566 212.608L201.321 211.27L199.511 211.679L198.983 213.426Z" fill="url(#paint8_radial)"/>
<path d="M212.033 200.526L213.278 201.864L215.088 201.455L215.654 199.745L214.372 198.407L212.599 198.779L212.033 200.526Z" fill="url(#paint9_radial)"/>
<path d="M443.41 176.713C427.719 176.713 415.008 189.424 415.008 205.114C415.008 220.805 427.719 233.516 443.41 233.516C459.1 233.516 471.811 220.805 471.811 205.114C471.811 189.424 459.063 176.713 443.41 176.713ZM443.41 226.387C431.641 226.387 422.137 216.845 422.137 205.114C422.137 193.384 431.679 183.841 443.41 183.841C455.14 183.841 464.683 193.384 464.683 205.114C464.683 216.845 455.14 226.387 443.41 226.387Z" fill="url(#paint10_radial)"/>
<path d="M443.296 226.312C455.066 226.312 464.607 216.771 464.607 205.001C464.607 193.232 455.066 183.69 443.296 183.69C431.527 183.69 421.986 193.232 421.986 205.001C421.986 216.771 431.527 226.312 443.296 226.312Z" fill="url(#paint11_radial)"/>
<path d="M444.126 194.289L442.278 194.214L441.297 195.76L442.165 197.42L444.013 197.495L444.994 195.911L444.126 194.289Z" fill="url(#paint12_radial)"/>
<path d="M444.126 212.771L442.278 212.696L441.297 214.242L442.165 215.902L444.013 215.977L444.994 214.393L444.126 212.771Z" fill="url(#paint13_radial)"/>
<path d="M436.092 196.779L434.734 198.024L435.112 199.834L436.884 200.362L438.242 199.117L437.827 197.307L436.092 196.779Z" fill="url(#paint14_radial)"/>
<path d="M449.143 209.829L447.785 211.074L448.2 212.884L449.973 213.45L451.33 212.168L450.916 210.395L449.143 209.829Z" fill="url(#paint15_radial)"/>
<path d="M432.207 204.134L432.132 205.945L433.716 206.963L435.338 206.096L435.413 204.247L433.867 203.267L432.207 204.134Z" fill="url(#paint16_radial)"/>
<path d="M450.689 204.134L450.614 205.944L452.198 206.963L453.82 206.095L453.895 204.247L452.349 203.266L450.689 204.134Z" fill="url(#paint17_radial)"/>
<path d="M434.697 212.055L435.941 213.412L437.752 212.997L438.28 211.225L437.035 209.867L435.225 210.282L434.697 212.055Z" fill="url(#paint18_radial)"/>
<path d="M447.747 198.966L448.992 200.324L450.802 199.909L451.368 198.174L450.086 196.816L448.313 197.194L447.747 198.966Z" fill="url(#paint19_radial)"/>
<mask id="path-40-inside-5" fill="white">
<path fill-rule="evenodd" clip-rule="evenodd" d="M333.194 114.254L273.726 103.103C273.726 103.103 233.771 80.106 219.368 80.106H165.708C157.577 80.106 121.571 100.316 121.571 100.316C121.571 100.316 95.786 104.033 95.786 109.143V133.302H93.2307V145.315C93.2307 146.026 93.7392 146.636 94.4387 146.763L116.228 150.724L117.172 140.589C117.616 127.765 128.152 117.506 141.084 117.506C141.161 117.506 141.238 117.506 141.315 117.507L141.316 117.506L141.317 117.507C153.268 117.621 163.123 126.497 164.769 138.019L164.885 138.121L165.708 152.815L278.837 152.488L278.424 143.023C278.401 142.671 278.385 142.316 278.378 141.96L278.369 141.758L278.374 141.753C278.373 141.646 278.372 141.539 278.372 141.432C278.372 128.218 289.084 117.506 302.299 117.506H302.302L302.531 117.274L302.756 117.51C315.759 117.754 326.225 128.371 326.225 141.432C326.225 141.685 326.221 141.937 326.214 142.188L326.245 142.221L326.199 151.281L340.681 150.772C341.429 150.745 342.022 150.131 342.022 149.383V128.656L333.194 114.254Z"/>
</mask>
<path fill-rule="evenodd" clip-rule="evenodd" d="M333.194 114.254L273.726 103.103C273.726 103.103 233.771 80.106 219.368 80.106H165.708C157.577 80.106 121.571 100.316 121.571 100.316C121.571 100.316 95.786 104.033 95.786 109.143V133.302H93.2307V145.315C93.2307 146.026 93.7392 146.636 94.4387 146.763L116.228 150.724L117.172 140.589C117.616 127.765 128.152 117.506 141.084 117.506C141.161 117.506 141.238 117.506 141.315 117.507L141.316 117.506L141.317 117.507C153.268 117.621 163.123 126.497 164.769 138.019L164.885 138.121L165.708 152.815L278.837 152.488L278.424 143.023C278.401 142.671 278.385 142.316 278.378 141.96L278.369 141.758L278.374 141.753C278.373 141.646 278.372 141.539 278.372 141.432C278.372 128.218 289.084 117.506 302.299 117.506H302.302L302.531 117.274L302.756 117.51C315.759 117.754 326.225 128.371 326.225 141.432C326.225 141.685 326.221 141.937 326.214 142.188L326.245 142.221L326.199 151.281L340.681 150.772C341.429 150.745 342.022 150.131 342.022 149.383V128.656L333.194 114.254Z" fill="#2F80ED"/>
<path d="M273.726 103.103L273.606 103.746L273.496 103.726L273.4 103.67L273.726 103.103ZM333.194 114.254L333.315 113.611L333.6 113.665L333.752 113.912L333.194 114.254ZM121.571 100.316L121.891 100.886L121.785 100.946L121.664 100.963L121.571 100.316ZM95.786 133.302H96.4398V133.956H95.786V133.302ZM93.2307 133.302H92.5768V132.648H93.2307V133.302ZM94.4387 146.763L94.5556 146.119L94.5557 146.119L94.4387 146.763ZM116.228 150.724L116.879 150.785L116.813 151.495L116.111 151.368L116.228 150.724ZM117.172 140.589L117.825 140.611L117.825 140.63L117.823 140.649L117.172 140.589ZM141.315 117.507L141.741 118.003L141.554 118.163L141.309 118.161L141.315 117.507ZM141.316 117.506L140.891 117.009L141.32 116.641L141.746 117.013L141.316 117.506ZM141.317 117.507L141.311 118.161L141.069 118.158L140.887 117.999L141.317 117.507ZM164.769 138.019L164.339 138.511L164.156 138.352L164.122 138.112L164.769 138.019ZM164.885 138.121L165.316 137.629L165.523 137.81L165.538 138.084L164.885 138.121ZM165.708 152.815L165.709 153.469L165.089 153.471L165.055 152.852L165.708 152.815ZM278.837 152.488L279.49 152.46L279.519 153.14L278.838 153.142L278.837 152.488ZM278.424 143.023L279.077 142.98L279.077 142.987L279.077 142.995L278.424 143.023ZM278.378 141.96L279.031 141.932L279.031 141.939L279.031 141.946L278.378 141.96ZM278.369 141.758L277.716 141.787L277.703 141.502L277.904 141.299L278.369 141.758ZM278.374 141.753L279.028 141.744L279.032 142.018L278.84 142.212L278.374 141.753ZM302.302 117.506L302.767 117.965L302.575 118.16H302.302V117.506ZM302.531 117.274L302.066 116.814L302.54 116.334L303.005 116.823L302.531 117.274ZM302.756 117.51L302.744 118.164L302.47 118.159L302.282 117.961L302.756 117.51ZM326.214 142.188L325.74 142.638L325.552 142.441L325.56 142.168L326.214 142.188ZM326.245 142.221L326.719 141.771L326.9 141.961L326.899 142.224L326.245 142.221ZM326.199 151.281L326.222 151.934L325.542 151.958L325.546 151.277L326.199 151.281ZM340.681 150.772L340.704 151.425L340.704 151.425L340.681 150.772ZM342.022 128.656L342.579 128.315L342.675 128.472V128.656H342.022ZM273.847 102.461L333.315 113.611L333.074 114.896L273.606 103.746L273.847 102.461ZM219.368 79.4521C223.097 79.4521 228.392 80.9295 234.167 83.0868C239.965 85.2532 246.331 88.1378 252.235 91.017C258.14 93.8971 263.594 96.7765 267.57 98.9355C269.558 100.015 271.178 100.915 272.301 101.545C272.863 101.86 273.3 102.108 273.597 102.277C273.746 102.361 273.859 102.426 273.936 102.47C273.974 102.492 274.003 102.508 274.023 102.52C274.032 102.525 274.04 102.53 274.045 102.532C274.047 102.534 274.049 102.535 274.05 102.536C274.051 102.536 274.051 102.536 274.052 102.536C274.052 102.537 274.052 102.537 273.726 103.103C273.4 103.67 273.4 103.67 273.4 103.67C273.399 103.67 273.399 103.67 273.398 103.669C273.397 103.669 273.395 103.667 273.393 103.666C273.388 103.663 273.381 103.659 273.372 103.654C273.353 103.643 273.324 103.627 273.286 103.605C273.211 103.562 273.098 103.497 272.951 103.414C272.655 103.246 272.22 102.999 271.661 102.685C270.543 102.058 268.928 101.161 266.946 100.085C262.981 97.9317 257.545 95.0617 251.662 92.1924C245.776 89.3222 239.452 86.4575 233.709 84.3118C227.941 82.1571 222.841 80.7598 219.368 80.7598V79.4521ZM165.708 79.4521H219.368V80.7598H165.708V79.4521ZM121.571 100.316C121.251 99.7457 121.251 99.7456 121.251 99.7454C121.252 99.7453 121.252 99.745 121.253 99.7447C121.254 99.7441 121.256 99.7431 121.258 99.7419C121.262 99.7394 121.269 99.7357 121.278 99.7308C121.295 99.721 121.321 99.7064 121.355 99.6872C121.424 99.6488 121.526 99.5919 121.659 99.5177C121.925 99.3693 122.317 99.1518 122.818 98.8751C123.82 98.3217 125.26 97.5313 127.013 96.583C130.519 94.6864 135.28 92.1571 140.296 89.6271C145.31 87.0981 150.589 84.5641 155.128 82.6608C157.398 81.7093 159.492 80.9115 161.281 80.3504C163.054 79.7946 164.586 79.4521 165.708 79.4521V80.7598C164.797 80.7598 163.425 81.0489 161.672 81.5983C159.937 82.1425 157.884 82.9235 155.634 83.8668C151.136 85.7528 145.888 88.2712 140.885 90.7947C135.883 93.3172 131.134 95.8403 127.635 97.7332C125.886 98.6795 124.449 99.468 123.45 100.02C122.951 100.296 122.561 100.512 122.296 100.66C122.163 100.734 122.062 100.79 121.994 100.829C121.96 100.848 121.934 100.862 121.917 100.872C121.908 100.876 121.902 100.88 121.897 100.882C121.895 100.884 121.894 100.885 121.893 100.885C121.892 100.885 121.892 100.886 121.891 100.886C121.891 100.886 121.891 100.886 121.571 100.316ZM95.1321 109.143C95.1321 108.215 95.7143 107.432 96.474 106.795C97.2473 106.147 98.3184 105.554 99.5508 105.01C102.022 103.919 105.29 102.964 108.524 102.178C111.765 101.389 115.003 100.762 117.428 100.333C118.641 100.118 119.652 99.9519 120.361 99.8397C120.715 99.7837 120.994 99.741 121.184 99.7123C121.279 99.698 121.352 99.6871 121.402 99.6798C121.426 99.6762 121.445 99.6734 121.458 99.6716C121.464 99.6706 121.469 99.6699 121.473 99.6694C121.474 99.6692 121.475 99.669 121.476 99.6689C121.477 99.6688 121.477 99.6688 121.477 99.6688C121.478 99.6687 121.478 99.6687 121.571 100.316C121.664 100.963 121.664 100.963 121.664 100.963C121.664 100.963 121.664 100.963 121.663 100.963C121.663 100.963 121.662 100.963 121.66 100.964C121.657 100.964 121.653 100.965 121.647 100.966C121.635 100.967 121.616 100.97 121.592 100.974C121.544 100.981 121.473 100.991 121.379 101.005C121.192 101.034 120.916 101.076 120.565 101.131C119.864 101.242 118.86 101.407 117.656 101.62C115.247 102.047 112.038 102.669 108.833 103.448C105.621 104.23 102.443 105.163 100.079 106.206C98.8941 106.729 97.9507 107.264 97.3138 107.798C96.6634 108.343 96.4398 108.793 96.4398 109.143H95.1321ZM95.1321 133.302V109.143H96.4398V133.302H95.1321ZM93.2307 132.648H95.786V133.956H93.2307V132.648ZM92.5768 145.315V133.302H93.8845V145.315H92.5768ZM94.3217 147.406C93.3113 147.222 92.5768 146.342 92.5768 145.315H93.8845C93.8845 145.71 94.167 146.049 94.5556 146.119L94.3217 147.406ZM116.111 151.368L94.3217 147.406L94.5557 146.119L116.345 150.081L116.111 151.368ZM117.823 140.649L116.879 150.785L115.577 150.664L116.521 140.528L117.823 140.649ZM141.084 118.16C128.506 118.16 118.258 128.139 117.825 140.611L116.518 140.566C116.975 127.392 127.799 116.852 141.084 116.852V118.16ZM141.309 118.161C141.234 118.16 141.159 118.16 141.084 118.16V116.852C141.163 116.852 141.242 116.852 141.321 116.853L141.309 118.161ZM141.742 118.002L141.741 118.003L140.89 117.01L140.891 117.009L141.742 118.002ZM140.887 117.999L140.886 117.998L141.746 117.013L141.748 117.014L140.887 117.999ZM164.122 138.112C162.521 126.905 152.934 118.272 141.311 118.161L141.324 116.853C153.602 116.97 163.725 126.089 165.416 137.927L164.122 138.112ZM164.455 138.613L164.339 138.511L165.2 137.527L165.316 137.629L164.455 138.613ZM165.055 152.852L164.233 138.157L165.538 138.084L166.36 152.779L165.055 152.852ZM278.838 153.142L165.709 153.469L165.706 152.161L278.835 151.834L278.838 153.142ZM279.077 142.995L279.49 152.46L278.183 152.517L277.771 143.052L279.077 142.995ZM279.031 141.946C279.039 142.293 279.054 142.637 279.077 142.98L277.772 143.066C277.748 142.704 277.732 142.34 277.724 141.974L279.031 141.946ZM279.022 141.73L279.031 141.932L277.725 141.989L277.716 141.787L279.022 141.73ZM278.84 142.212L278.834 142.217L277.904 141.299L277.909 141.294L278.84 142.212ZM279.026 141.432C279.026 141.537 279.027 141.64 279.028 141.744L277.72 141.761C277.719 141.652 277.718 141.542 277.718 141.432H279.026ZM302.299 118.16C289.446 118.16 279.026 128.579 279.026 141.432H277.718C277.718 127.857 288.723 116.852 302.299 116.852V118.16ZM302.302 118.16H302.299V116.852H302.302V118.16ZM302.996 117.733L302.767 117.965L301.836 117.047L302.066 116.814L302.996 117.733ZM302.282 117.961L302.057 117.724L303.005 116.823L303.23 117.06L302.282 117.961ZM325.572 141.432C325.572 128.728 315.391 118.401 302.744 118.164L302.768 116.856C316.127 117.107 326.879 128.014 326.879 141.432H325.572ZM325.56 142.168C325.568 141.924 325.572 141.678 325.572 141.432H326.879C326.879 141.692 326.875 141.951 326.867 142.208L325.56 142.168ZM325.771 142.672L325.74 142.638L326.688 141.738L326.719 141.771L325.771 142.672ZM325.546 151.277L325.591 142.218L326.899 142.224L326.853 151.284L325.546 151.277ZM340.704 151.425L326.222 151.934L326.176 150.627L340.658 150.118L340.704 151.425ZM342.675 149.383C342.675 150.484 341.804 151.386 340.704 151.425L340.658 150.118C341.054 150.104 341.368 149.779 341.368 149.383H342.675ZM342.675 128.656V149.383H341.368V128.656H342.675ZM333.752 113.912L342.579 128.315L341.464 128.998L332.637 114.595L333.752 113.912Z" fill="black" mask="url(#path-40-inside-5)"/>
<path fill-rule="evenodd" clip-rule="evenodd" d="M141.084 160.693C130.319 160.693 121.591 151.966 121.591 141.2C121.591 130.435 130.319 121.707 141.084 121.707C151.85 121.707 160.577 130.435 160.577 141.2C160.577 151.966 151.85 160.693 141.084 160.693ZM141.084 154.304C133.848 154.304 127.981 148.437 127.981 141.2C127.981 133.964 133.848 128.097 141.084 128.097C148.321 128.097 154.188 133.964 154.188 141.2C154.188 148.437 148.321 154.304 141.084 154.304Z" fill="#333333"/>
<path d="M141.084 154.318C133.84 154.318 127.967 148.445 127.967 141.2C127.967 133.955 133.84 128.082 141.084 128.082C148.329 128.082 154.202 133.955 154.202 141.2C154.202 148.445 148.329 154.318 141.084 154.318Z" fill="#B8B8B8"/>
<path fill-rule="evenodd" clip-rule="evenodd" d="M302.096 160.939C291.33 160.939 282.603 152.211 282.603 141.446C282.603 130.68 291.33 121.953 302.096 121.953C312.861 121.953 321.589 130.68 321.589 141.446C321.589 152.211 312.861 160.939 302.096 160.939ZM302.096 154.549C294.859 154.549 288.992 148.682 288.992 141.446C288.992 134.209 294.859 128.342 302.096 128.342C309.332 128.342 315.199 134.209 315.199 141.446C315.199 148.682 309.332 154.549 302.096 154.549Z" fill="#333333"/>
<path d="M302.096 154.563C294.851 154.563 288.978 148.69 288.978 141.446C288.978 134.201 294.851 128.328 302.096 128.328C309.341 128.328 315.214 134.201 315.214 141.446C315.214 148.69 309.341 154.563 302.096 154.563Z" fill="#B8B8B8"/>
<path d="M201.169 84.8467L204.746 106.752C204.765 106.871 204.867 106.958 204.988 106.958H263.443C261.149 105.276 254.151 100.258 245.879 95.4252C241.243 92.716 236.212 90.0683 231.39 88.0988C226.562 86.1268 221.972 84.8467 218.207 84.8467H218.135H218.063H217.991H217.919H217.848H217.776H217.705H217.635H217.564H217.493H217.423H217.353H217.283H217.214H217.144H217.075H217.006H216.937H216.868H216.8H216.731H216.663H216.595H216.527H216.46H216.393H216.325H216.258H216.192H216.125H216.059H215.992H215.926H215.861H215.795H215.73H215.664H215.599H215.534H215.47H215.405H215.341H215.277H215.213H215.149H215.085H215.022H214.959H214.896H214.833H214.77H214.708H214.646H214.583H214.522H214.46H214.398H214.337H214.276H214.215H214.154H214.093H214.033H213.973H213.913H213.853H213.793H213.733H213.674H213.615H213.556H213.497H213.438H213.38H213.322H213.264H213.206H213.148H213.09H213.033H212.976H212.919H212.862H212.805H212.749H212.692H212.636H212.58H212.524H212.469H212.413H212.358H212.303H212.248H212.193H212.139H212.084H212.03H211.976H211.922H211.868H211.815H211.761H211.708H211.655H211.602H211.549H211.497H211.445H211.392H211.34H211.288H211.237H211.185H211.134H211.083H211.032H210.981H210.93H210.88H210.829H210.779H210.729H210.679H210.63H210.58H210.531H210.481H210.432H210.384H210.335H210.286H210.238H210.19H210.142H210.094H210.046H209.998H209.951H209.904H209.857H209.81H209.763H209.716H209.67H209.624H209.578H209.532H209.486H209.44H209.395H209.349H209.304H209.259H209.214H209.17H209.125H209.081H209.036H208.992H208.948H208.905H208.861H208.818H208.774H208.731H208.688H208.645H208.603H208.56H208.518H208.475H208.433H208.391H208.35H208.308H208.266H208.225H208.184H208.143H208.102H208.061H208.021H207.98H207.94H207.9H207.86H207.82H207.78H207.741H207.702H207.662H207.623H207.584H207.545H207.507H207.468H207.43H207.392H207.354H207.316H207.278H207.24H207.203H207.165H207.128H207.091H207.054H207.017H206.981H206.944H206.908H206.872H206.836H206.8H206.764H206.728H206.693H206.657H206.622H206.587H206.552H206.517H206.483H206.448H206.414H206.379H206.345H206.311H206.277H206.244H206.21H206.177H206.143H206.11H206.077H206.044H206.011H205.979H205.946H205.914H205.882H205.85H205.818H205.786H205.754H205.723H205.691H205.66H205.629H205.598H205.567H205.536H205.505H205.475H205.444H205.414H205.384H205.354H205.324H205.294H205.265H205.235H205.206H205.177H205.147H205.118H205.09H205.061H205.032H205.004H204.975H204.947H204.919H204.891H204.863H204.835H204.808H204.78H204.753H204.726H204.699H204.672H204.645H204.618H204.591H204.565H204.539H204.512H204.486H204.46H204.434H204.408H204.383H204.357H204.332H204.306H204.281H204.256H204.231H204.206H204.182H204.157H204.133H204.108H204.084H204.06H204.036H204.012H203.988H203.964H203.941H203.917H203.894H203.871H203.848H203.825H203.802H203.779H203.757H203.734H203.712H203.689H203.667H203.645H203.623H203.601H203.579H203.558H203.536H203.515H203.493H203.472H203.451H203.43H203.409H203.388H203.368H203.347H203.327H203.306H203.286H203.266H203.246H203.226H203.206H203.186H203.167H203.147H203.128H203.109H203.089H203.07H203.051H203.032H203.014H202.995H202.976H202.958H202.939H202.921H202.903H202.885H202.867H202.849H202.831H202.814H202.796H202.779H202.761H202.744H202.727H202.71H202.693H202.676H202.659H202.642H202.626H202.609H202.593H202.577H202.56H202.544H202.528H202.512H202.496H202.481H202.465H202.449H202.434H202.419H202.403H202.388H202.373H202.358H202.343H202.328H202.314H202.299H202.285H202.27H202.256H202.242H202.227H202.213H202.199H202.185H202.172H202.158H202.144H202.131H202.117H202.104H202.09H202.077H202.064H202.051H202.038H202.025H202.013H202H201.987H201.975H201.962H201.95H201.938H201.925H201.913H201.901H201.889H201.878H201.866H201.854H201.842H201.831H201.819H201.808H201.797H201.786H201.774H201.763H201.752H201.742H201.731H201.72H201.709H201.699H201.688H201.678H201.668H201.657H201.647H201.637H201.627H201.617H201.607H201.597H201.588H201.578H201.568H201.559H201.549H201.54H201.531H201.522H201.512H201.503H201.494H201.485H201.477H201.468H201.459H201.45H201.442H201.433H201.425H201.417H201.408H201.4H201.392H201.384H201.376H201.368H201.36H201.352H201.345H201.337H201.329H201.322H201.314H201.307H201.299H201.292H201.285H201.278H201.271H201.264H201.257H201.25H201.243H201.236H201.23H201.223H201.216H201.21H201.203H201.197H201.191H201.185H201.178H201.172H201.169Z" fill="#F2F2F2" stroke="black" stroke-width="0.653853"/>
<path d="M194.008 84.3821H172.645L172.563 84.4026C172.485 84.4224 172.369 84.4519 172.221 84.4902C171.926 84.5668 171.505 84.6788 170.998 84.82C169.985 85.1025 168.636 85.5013 167.289 85.9672C165.938 86.4342 164.603 86.9641 163.61 87.5066C163.113 87.7786 162.717 88.0454 162.45 88.2987C162.174 88.5598 162.085 88.7586 162.085 88.8947C162.085 90.8424 162.832 104.154 162.982 106.81C162.987 106.891 163.053 106.958 163.145 106.958H196.7L194.008 84.3821Z" fill="#F2F2F2" stroke="black" stroke-width="0.653853"/>
<path d="M159.327 106.492L158.664 90.1183C157.684 90.5442 155.197 91.6508 152.652 92.9786C151.324 93.671 149.986 94.4213 148.839 95.1645C147.686 95.9118 146.752 96.6367 146.212 97.2747C144.951 98.7645 143.833 100.684 143.585 102.311C143.462 103.118 143.558 103.819 143.916 104.365C144.272 104.906 144.923 105.35 146.026 105.57C150.098 106.385 157.625 106.481 159.327 106.492Z" fill="#F2F2F2" stroke="black" stroke-width="0.653853"/>
<ellipse opacity="0.5" cx="304.5" cy="233.795" rx="211.5" ry="5.79514" fill="#403F45" fill-opacity="0.72"/>
<path d="M382.288 157.207C382.264 157.167 382.207 157.167 382.183 157.207L376.999 165.846C376.975 165.887 377.004 165.939 377.052 165.939H387.419C387.466 165.939 387.496 165.887 387.471 165.846L382.288 157.207L382.34 157.175L382.288 157.207Z" fill="#FF0000" stroke="black" stroke-width="0.122637"/>
<rect x="1" y="1" width="630" height="344" stroke="#C4C4C4" stroke-width="2"/>
</g>
<defs>
<filter id="filter0_d" x="0" y="0" width="640" height="354" filterUnits="userSpaceOnUse" color-interpolation-filters="sRGB">
<feFlood flood-opacity="0" result="BackgroundImageFix"/>
<feColorMatrix in="SourceAlpha" type="matrix" values="0 0 0 0 0 0 0 0 0 0 0 0 0 0 0 0 0 0 127 0"/>
<feOffset dx="4" dy="4"/>
<feGaussianBlur stdDeviation="2"/>
<feColorMatrix type="matrix" values="0 0 0 0 0 0 0 0 0 0 0 0 0 0 0 0 0 0 0.25 0"/>
<feBlend mode="normal" in2="BackgroundImageFix" result="effect1_dropShadow"/>
<feBlend mode="normal" in="SourceGraphic" in2="effect1_dropShadow" result="shape"/>
</filter>
<radialGradient id="paint0_radial" cx="0" cy="0" r="1" gradientUnits="userSpaceOnUse" gradientTransform="translate(207.677 206.567) scale(28.3829 27.9745)">
<stop offset="0.7777" stop-color="#1A1A1A"/>
<stop offset="0.8882" stop-color="#333333"/>
<stop offset="1"/>
</radialGradient>
<radialGradient id="paint1_radial" cx="0" cy="0" r="1" gradientUnits="userSpaceOnUse" gradientTransform="translate(207.583 206.474) scale(21.3107 21.0041)">
<stop stop-color="#8D8C8C"/>
<stop offset="0.0810056" stop-color="#898989"/>
<stop offset="0.1659" stop-color="#808080"/>
<stop offset="0.2687" stop-color="#868686"/>
<stop offset="0.3295" stop-color="#A4A4A4"/>
<stop offset="0.3447" stop-color="#ACACAC"/>
<stop offset="0.5274" stop-color="#B3B3B3"/>
<stop offset="0.5715" stop-color="#A4A4A4"/>
<stop offset="0.6558" stop-color="#7D7D7D"/>
<stop offset="0.7012" stop-color="#666666"/>
<stop offset="0.7387" stop-color="#6F6F70"/>
<stop offset="0.8018" stop-color="#88898A"/>
<stop offset="0.8676" stop-color="#A8AAAC"/>
<stop offset="0.927" stop-color="#7E8486"/>
<stop offset="1" stop-color="#465053"/>
</radialGradient>
<radialGradient id="paint2_radial" cx="0" cy="0" r="1" gradientUnits="userSpaceOnUse" gradientTransform="translate(207.436 197.453) rotate(2.26328) scale(1.72508 1.70033)">
<stop offset="0.00561773" stop-color="#534741"/>
<stop offset="0.1684" stop-color="#5C5450"/>
<stop offset="0.4792" stop-color="#737577"/>
<stop offset="0.6742" stop-color="#838C92"/>
<stop offset="0.9793" stop-color="#333333"/>
<stop offset="0.9852" stop-color="#3E4042"/>
<stop offset="0.9965" stop-color="#5B6469"/>
<stop offset="1" stop-color="#657076"/>
</radialGradient>
<radialGradient id="paint3_radial" cx="0" cy="0" r="1" gradientUnits="userSpaceOnUse" gradientTransform="translate(207.436 215.669) rotate(2.26327) scale(1.72508 1.70033)">
<stop offset="0.00561773" stop-color="#534741"/>
<stop offset="0.1684" stop-color="#5C5450"/>
<stop offset="0.4792" stop-color="#737577"/>
<stop offset="0.6742" stop-color="#838C92"/>
<stop offset="0.9793" stop-color="#333333"/>
<stop offset="0.9852" stop-color="#3E4042"/>
<stop offset="0.9965" stop-color="#5B6469"/>
<stop offset="1" stop-color="#657076"/>
</radialGradient>
<radialGradient id="paint4_radial" cx="0" cy="0" r="1" gradientUnits="userSpaceOnUse" gradientTransform="translate(200.772 200.134) rotate(-42.2887) scale(1.71377 1.7116)">
<stop offset="0.00561773" stop-color="#534741"/>
<stop offset="0.1684" stop-color="#5C5450"/>
<stop offset="0.4792" stop-color="#737577"/>
<stop offset="0.6742" stop-color="#838C92"/>
<stop offset="0.9793" stop-color="#333333"/>
<stop offset="0.9852" stop-color="#3E4042"/>
<stop offset="0.9965" stop-color="#5B6469"/>
<stop offset="1" stop-color="#657076"/>
</radialGradient>
<radialGradient id="paint5_radial" cx="0" cy="0" r="1" gradientUnits="userSpaceOnUse" gradientTransform="translate(213.841 213.015) rotate(-42.2886) scale(1.71377 1.7116)">
<stop offset="0.00561773" stop-color="#534741"/>
<stop offset="0.1684" stop-color="#5C5450"/>
<stop offset="0.4792" stop-color="#737577"/>
<stop offset="0.6742" stop-color="#838C92"/>
<stop offset="0.9793" stop-color="#333333"/>
<stop offset="0.9852" stop-color="#3E4042"/>
<stop offset="0.9965" stop-color="#5B6469"/>
<stop offset="1" stop-color="#657076"/>
</radialGradient>
<radialGradient id="paint6_radial" cx="0" cy="0" r="1" gradientUnits="userSpaceOnUse" gradientTransform="translate(198.065 206.573) rotate(-87.6702) scale(1.70034 1.72507)">
<stop offset="0.00561773" stop-color="#534741"/>
<stop offset="0.1684" stop-color="#5C5450"/>
<stop offset="0.4792" stop-color="#737577"/>
<stop offset="0.6742" stop-color="#838C92"/>
<stop offset="0.9793" stop-color="#333333"/>
<stop offset="0.9852" stop-color="#3E4042"/>
<stop offset="0.9965" stop-color="#5B6469"/>
<stop offset="1" stop-color="#657076"/>
</radialGradient>
<radialGradient id="paint7_radial" cx="0" cy="0" r="1" gradientUnits="userSpaceOnUse" gradientTransform="translate(216.547 206.573) rotate(-87.6702) scale(1.70033 1.72508)">
<stop offset="0.00561773" stop-color="#534741"/>
<stop offset="0.1684" stop-color="#5C5450"/>
<stop offset="0.4792" stop-color="#737577"/>
<stop offset="0.6742" stop-color="#838C92"/>
<stop offset="0.9793" stop-color="#333333"/>
<stop offset="0.9852" stop-color="#3E4042"/>
<stop offset="0.9965" stop-color="#5B6469"/>
<stop offset="1" stop-color="#657076"/>
</radialGradient>
<radialGradient id="paint8_radial" cx="0" cy="0" r="1" gradientUnits="userSpaceOnUse" gradientTransform="translate(200.772 213.013) rotate(-133.116) scale(1.71178 1.71359)">
<stop offset="0.00561773" stop-color="#534741"/>
<stop offset="0.1684" stop-color="#5C5450"/>
<stop offset="0.4792" stop-color="#737577"/>
<stop offset="0.6742" stop-color="#838C92"/>
<stop offset="0.9793" stop-color="#333333"/>
<stop offset="0.9852" stop-color="#3E4042"/>
<stop offset="0.9965" stop-color="#5B6469"/>
<stop offset="1" stop-color="#657076"/>
</radialGradient>
<radialGradient id="paint9_radial" cx="0" cy="0" r="1" gradientUnits="userSpaceOnUse" gradientTransform="translate(213.841 200.132) rotate(-133.116) scale(1.71178 1.71359)">
<stop offset="0.00561773" stop-color="#534741"/>
<stop offset="0.1684" stop-color="#5C5450"/>
<stop offset="0.4792" stop-color="#737577"/>
<stop offset="0.6742" stop-color="#838C92"/>
<stop offset="0.9793" stop-color="#333333"/>
<stop offset="0.9852" stop-color="#3E4042"/>
<stop offset="0.9965" stop-color="#5B6469"/>
<stop offset="1" stop-color="#657076"/>
</radialGradient>
<radialGradient id="paint10_radial" cx="0" cy="0" r="1" gradientUnits="userSpaceOnUse" gradientTransform="translate(443.391 205.096) scale(28.3829)">
<stop offset="0.7777" stop-color="#1A1A1A"/>
<stop offset="0.8882" stop-color="#333333"/>
<stop offset="1"/>
</radialGradient>
<radialGradient id="paint11_radial" cx="0" cy="0" r="1" gradientUnits="userSpaceOnUse" gradientTransform="translate(443.296 205.001) scale(21.3107)">
<stop stop-color="#8D8C8C"/>
<stop offset="0.0810056" stop-color="#898989"/>
<stop offset="0.1659" stop-color="#808080"/>
<stop offset="0.2687" stop-color="#868686"/>
<stop offset="0.3295" stop-color="#A4A4A4"/>
<stop offset="0.3447" stop-color="#ACACAC"/>
<stop offset="0.5274" stop-color="#B3B3B3"/>
<stop offset="0.5715" stop-color="#A4A4A4"/>
<stop offset="0.6558" stop-color="#7D7D7D"/>
<stop offset="0.7012" stop-color="#666666"/>
<stop offset="0.7387" stop-color="#6F6F70"/>
<stop offset="0.8018" stop-color="#88898A"/>
<stop offset="0.8676" stop-color="#A8AAAC"/>
<stop offset="0.927" stop-color="#7E8486"/>
<stop offset="1" stop-color="#465053"/>
</radialGradient>
<radialGradient id="paint12_radial" cx="0" cy="0" r="1" gradientUnits="userSpaceOnUse" gradientTransform="translate(443.15 195.849) rotate(2.29628) scale(1.72511)">
<stop offset="0.00561773" stop-color="#534741"/>
<stop offset="0.1684" stop-color="#5C5450"/>
<stop offset="0.4792" stop-color="#737577"/>
<stop offset="0.6742" stop-color="#838C92"/>
<stop offset="0.9793" stop-color="#333333"/>
<stop offset="0.9852" stop-color="#3E4042"/>
<stop offset="0.9965" stop-color="#5B6469"/>
<stop offset="1" stop-color="#657076"/>
</radialGradient>
<radialGradient id="paint13_radial" cx="0" cy="0" r="1" gradientUnits="userSpaceOnUse" gradientTransform="translate(443.15 214.331) rotate(2.29628) scale(1.72511)">
<stop offset="0.00561773" stop-color="#534741"/>
<stop offset="0.1684" stop-color="#5C5450"/>
<stop offset="0.4792" stop-color="#737577"/>
<stop offset="0.6742" stop-color="#838C92"/>
<stop offset="0.9793" stop-color="#333333"/>
<stop offset="0.9852" stop-color="#3E4042"/>
<stop offset="0.9965" stop-color="#5B6469"/>
<stop offset="1" stop-color="#657076"/>
</radialGradient>
<radialGradient id="paint14_radial" cx="0" cy="0" r="1" gradientUnits="userSpaceOnUse" gradientTransform="translate(436.486 198.568) rotate(-42.7023) scale(1.72514)">
<stop offset="0.00561773" stop-color="#534741"/>
<stop offset="0.1684" stop-color="#5C5450"/>
<stop offset="0.4792" stop-color="#737577"/>
<stop offset="0.6742" stop-color="#838C92"/>
<stop offset="0.9793" stop-color="#333333"/>
<stop offset="0.9852" stop-color="#3E4042"/>
<stop offset="0.9965" stop-color="#5B6469"/>
<stop offset="1" stop-color="#657076"/>
</radialGradient>
<radialGradient id="paint15_radial" cx="0" cy="0" r="1" gradientUnits="userSpaceOnUse" gradientTransform="translate(449.554 211.637) rotate(-42.7022) scale(1.72514)">
<stop offset="0.00561773" stop-color="#534741"/>
<stop offset="0.1684" stop-color="#5C5450"/>
<stop offset="0.4792" stop-color="#737577"/>
<stop offset="0.6742" stop-color="#838C92"/>
<stop offset="0.9793" stop-color="#333333"/>
<stop offset="0.9852" stop-color="#3E4042"/>
<stop offset="0.9965" stop-color="#5B6469"/>
<stop offset="1" stop-color="#657076"/>
</radialGradient>
<radialGradient id="paint16_radial" cx="0" cy="0" r="1" gradientUnits="userSpaceOnUse" gradientTransform="translate(433.779 205.102) rotate(-87.7037) scale(1.72512)">
<stop offset="0.00561773" stop-color="#534741"/>
<stop offset="0.1684" stop-color="#5C5450"/>
<stop offset="0.4792" stop-color="#737577"/>
<stop offset="0.6742" stop-color="#838C92"/>
<stop offset="0.9793" stop-color="#333333"/>
<stop offset="0.9852" stop-color="#3E4042"/>
<stop offset="0.9965" stop-color="#5B6469"/>
<stop offset="1" stop-color="#657076"/>
</radialGradient>
<radialGradient id="paint17_radial" cx="0" cy="0" r="1" gradientUnits="userSpaceOnUse" gradientTransform="translate(452.261 205.101) rotate(-87.7037) scale(1.72512)">
<stop offset="0.00561773" stop-color="#534741"/>
<stop offset="0.1684" stop-color="#5C5450"/>
<stop offset="0.4792" stop-color="#737577"/>
<stop offset="0.6742" stop-color="#838C92"/>
<stop offset="0.9793" stop-color="#333333"/>
<stop offset="0.9852" stop-color="#3E4042"/>
<stop offset="0.9965" stop-color="#5B6469"/>
<stop offset="1" stop-color="#657076"/>
</radialGradient>
<radialGradient id="paint18_radial" cx="0" cy="0" r="1" gradientUnits="userSpaceOnUse" gradientTransform="translate(436.486 211.635) rotate(-132.702) scale(1.72514)">
<stop offset="0.00561773" stop-color="#534741"/>
<stop offset="0.1684" stop-color="#5C5450"/>
<stop offset="0.4792" stop-color="#737577"/>
<stop offset="0.6742" stop-color="#838C92"/>
<stop offset="0.9793" stop-color="#333333"/>
<stop offset="0.9852" stop-color="#3E4042"/>
<stop offset="0.9965" stop-color="#5B6469"/>
<stop offset="1" stop-color="#657076"/>
</radialGradient>
<radialGradient id="paint19_radial" cx="0" cy="0" r="1" gradientUnits="userSpaceOnUse" gradientTransform="translate(449.555 198.567) rotate(-132.702) scale(1.72514)">
<stop offset="0.00561773" stop-color="#534741"/>
<stop offset="0.1684" stop-color="#5C5450"/>
<stop offset="0.4792" stop-color="#737577"/>
<stop offset="0.6742" stop-color="#838C92"/>
<stop offset="0.9793" stop-color="#333333"/>
<stop offset="0.9852" stop-color="#3E4042"/>
<stop offset="0.9965" stop-color="#5B6469"/>
<stop offset="1" stop-color="#657076"/>
</radialGradient>
</defs>
</svg>
