<svg width="640" height="354" viewBox="0 0 640 354" fill="none" xmlns="http://www.w3.org/2000/svg">
<g filter="url(#filter0_d)">
<rect x="2" y="2" width="628" height="342" rx="6" fill="white"/>
<path d="M46.2379 307.283L39.8506 298.189C39.061 298.245 38.4406 298.273 37.9894 298.273H30.6715V307.283H26.4415V277.673H37.9894C41.8246 277.673 44.842 278.59 47.0416 280.423C49.2412 282.256 50.341 284.78 50.341 287.995C50.341 290.279 49.777 292.225 48.649 293.832C47.521 295.439 45.9136 296.61 43.8268 297.343L50.8486 307.283H46.2379ZM37.8625 294.678C40.5415 294.678 42.586 294.1 43.996 292.944C45.406 291.787 46.111 290.138 46.111 287.995C46.111 285.851 45.406 284.216 43.996 283.088C42.586 281.932 40.5415 281.353 37.8625 281.353H30.6715V294.678H37.8625ZM76.2101 296.201C76.2101 296.511 76.1819 296.92 76.1255 297.427H57.9365C58.1903 299.401 59.0504 300.995 60.5168 302.207C62.0114 303.392 63.8585 303.984 66.0581 303.984C68.7371 303.984 70.8944 303.082 72.53 301.277L74.7719 303.899C73.7567 305.084 72.4877 305.986 70.9649 306.607C69.4703 307.227 67.7924 307.537 65.9312 307.537C63.5624 307.537 61.4615 307.058 59.6285 306.099C57.7955 305.112 56.3714 303.744 55.3562 301.996C54.3692 300.247 53.8757 298.273 53.8757 296.074C53.8757 293.902 54.3551 291.943 55.3139 290.194C56.3009 288.446 57.6404 287.092 59.3324 286.133C61.0526 285.146 62.9843 284.653 65.1275 284.653C67.2707 284.653 69.1742 285.146 70.838 286.133C72.53 287.092 73.8413 288.446 74.7719 290.194C75.7307 291.943 76.2101 293.945 76.2101 296.201ZM65.1275 288.079C63.1817 288.079 61.5461 288.671 60.2207 289.856C58.9235 291.04 58.1621 292.591 57.9365 294.509H72.3185C72.0929 292.619 71.3174 291.082 69.992 289.898C68.6948 288.685 67.0733 288.079 65.1275 288.079ZM89.4206 278.985C86.9954 278.985 85.7828 280.296 85.7828 282.919V284.864H92.297V288.206H85.8674V307.283H81.8066V288.206H77.9996V284.864H81.8066V282.876C81.8066 280.648 82.4552 278.886 83.7524 277.589C85.0496 276.292 86.8685 275.643 89.2091 275.643C90.1115 275.643 90.9575 275.756 91.7471 275.981C92.5367 276.207 93.2135 276.531 93.7775 276.954L92.5508 280.042C91.6202 279.337 90.5768 278.985 89.4206 278.985ZM102.771 288.629C103.476 287.332 104.52 286.345 105.901 285.668C107.283 284.991 108.961 284.653 110.935 284.653V288.587C110.709 288.559 110.399 288.544 110.004 288.544C107.805 288.544 106.071 289.207 104.802 290.533C103.561 291.83 102.94 293.691 102.94 296.116V307.283H98.8796V284.864H102.771V288.629ZM115.306 284.864H119.366V307.283H115.306V284.864ZM117.336 280.55C116.546 280.55 115.884 280.296 115.348 279.788C114.84 279.281 114.586 278.66 114.586 277.927C114.586 277.194 114.84 276.574 115.348 276.066C115.884 275.53 116.546 275.262 117.336 275.262C118.126 275.262 118.774 275.516 119.282 276.024C119.818 276.503 120.085 277.109 120.085 277.843C120.085 278.604 119.818 279.253 119.282 279.788C118.774 280.296 118.126 280.55 117.336 280.55ZM147.931 284.864V304.238C147.931 308.158 146.958 311.048 145.013 312.909C143.067 314.799 140.162 315.743 136.299 315.743C134.184 315.743 132.168 315.447 130.25 314.855C128.332 314.291 126.781 313.473 125.597 312.402L127.543 309.271C128.586 310.174 129.869 310.879 131.392 311.386C132.943 311.922 134.536 312.19 136.172 312.19C138.795 312.19 140.726 311.57 141.967 310.329C143.236 309.088 143.871 307.199 143.871 304.661V302.884C142.912 304.04 141.727 304.915 140.317 305.507C138.936 306.071 137.427 306.353 135.791 306.353C133.648 306.353 131.702 305.902 129.954 304.999C128.234 304.069 126.88 302.785 125.893 301.15C124.906 299.486 124.413 297.597 124.413 295.482C124.413 293.367 124.906 291.491 125.893 289.856C126.88 288.192 128.234 286.909 129.954 286.006C131.702 285.104 133.648 284.653 135.791 284.653C137.483 284.653 139.048 284.963 140.487 285.583C141.953 286.204 143.151 287.12 144.082 288.333V284.864H147.931ZM136.257 302.8C137.723 302.8 139.034 302.489 140.19 301.869C141.375 301.249 142.291 300.388 142.94 299.289C143.617 298.161 143.955 296.892 143.955 295.482C143.955 293.31 143.236 291.562 141.798 290.236C140.36 288.883 138.513 288.206 136.257 288.206C133.972 288.206 132.111 288.883 130.673 290.236C129.235 291.562 128.516 293.31 128.516 295.482C128.516 296.892 128.84 298.161 129.489 299.289C130.165 300.388 131.082 301.249 132.238 301.869C133.422 302.489 134.762 302.8 136.257 302.8ZM175.318 296.201C175.318 296.511 175.289 296.92 175.233 297.427H157.044C157.298 299.401 158.158 300.995 159.624 302.207C161.119 303.392 162.966 303.984 165.166 303.984C167.845 303.984 170.002 303.082 171.638 301.277L173.879 303.899C172.864 305.084 171.595 305.986 170.072 306.607C168.578 307.227 166.9 307.537 165.039 307.537C162.67 307.537 160.569 307.058 158.736 306.099C156.903 305.112 155.479 303.744 154.464 301.996C153.477 300.247 152.983 298.273 152.983 296.074C152.983 293.902 153.463 291.943 154.421 290.194C155.408 288.446 156.748 287.092 158.44 286.133C160.16 285.146 162.092 284.653 164.235 284.653C166.378 284.653 168.282 285.146 169.946 286.133C171.638 287.092 172.949 288.446 173.879 290.194C174.838 291.943 175.318 293.945 175.318 296.201ZM164.235 288.079C162.289 288.079 160.654 288.671 159.328 289.856C158.031 291.04 157.27 292.591 157.044 294.509H171.426C171.2 292.619 170.425 291.082 169.1 289.898C167.802 288.685 166.181 288.079 164.235 288.079ZM184.214 288.629C184.919 287.332 185.962 286.345 187.344 285.668C188.726 284.991 190.403 284.653 192.377 284.653V288.587C192.152 288.559 191.842 288.544 191.447 288.544C189.247 288.544 187.513 289.207 186.244 290.533C185.003 291.83 184.383 293.691 184.383 296.116V307.283H180.322V284.864H184.214V288.629ZM204.87 284.653C207.973 284.653 210.341 285.414 211.977 286.937C213.641 288.46 214.473 290.73 214.473 293.747V307.283H210.623V304.322C209.947 305.366 208.974 306.169 207.705 306.733C206.464 307.269 204.983 307.537 203.263 307.537C200.753 307.537 198.737 306.931 197.214 305.718C195.72 304.506 194.972 302.912 194.972 300.938C194.972 298.964 195.691 297.385 197.13 296.201C198.568 294.988 200.852 294.382 203.982 294.382H210.412V293.578C210.412 291.83 209.904 290.49 208.889 289.56C207.874 288.629 206.379 288.164 204.405 288.164C203.08 288.164 201.783 288.389 200.514 288.841C199.245 289.264 198.173 289.842 197.299 290.575L195.607 287.529C196.763 286.599 198.145 285.894 199.752 285.414C201.36 284.907 203.066 284.653 204.87 284.653ZM203.94 304.407C205.491 304.407 206.83 304.069 207.958 303.392C209.086 302.687 209.904 301.7 210.412 300.431V297.301H204.151C200.711 297.301 198.991 298.457 198.991 300.769C198.991 301.897 199.428 302.785 200.302 303.434C201.176 304.083 202.389 304.407 203.94 304.407ZM233.958 305.972C233.366 306.48 232.633 306.874 231.759 307.156C230.885 307.41 229.982 307.537 229.052 307.537C226.796 307.537 225.047 306.931 223.806 305.718C222.566 304.506 221.945 302.771 221.945 300.515V288.206H218.138V284.864H221.945V279.958H226.006V284.864H232.436V288.206H226.006V300.346C226.006 301.559 226.302 302.489 226.894 303.138C227.515 303.787 228.389 304.111 229.517 304.111C230.758 304.111 231.815 303.758 232.689 303.053L233.958 305.972ZM257.751 296.201C257.751 296.511 257.723 296.92 257.667 297.427H239.478C239.732 299.401 240.592 300.995 242.058 302.207C243.553 303.392 245.4 303.984 247.599 303.984C250.278 303.984 252.436 303.082 254.071 301.277L256.313 303.899C255.298 305.084 254.029 305.986 252.506 306.607C251.012 307.227 249.334 307.537 247.473 307.537C245.104 307.537 243.003 307.058 241.17 306.099C239.337 305.112 237.913 303.744 236.898 301.996C235.911 300.247 235.417 298.273 235.417 296.074C235.417 293.902 235.896 291.943 236.855 290.194C237.842 288.446 239.182 287.092 240.874 286.133C242.594 285.146 244.526 284.653 246.669 284.653C248.812 284.653 250.716 285.146 252.379 286.133C254.071 287.092 255.383 288.446 256.313 290.194C257.272 291.943 257.751 293.945 257.751 296.201ZM246.669 288.079C244.723 288.079 243.087 288.671 241.762 289.856C240.465 291.04 239.703 292.591 239.478 294.509H253.86C253.634 292.619 252.859 291.082 251.533 289.898C250.236 288.685 248.615 288.079 246.669 288.079ZM283.906 275.897V307.283H280.014V303.73C279.112 304.971 277.97 305.916 276.588 306.564C275.206 307.213 273.683 307.537 272.019 307.537C269.848 307.537 267.902 307.058 266.182 306.099C264.462 305.14 263.108 303.801 262.121 302.08C261.162 300.332 260.683 298.33 260.683 296.074C260.683 293.818 261.162 291.83 262.121 290.11C263.108 288.389 264.462 287.05 266.182 286.091C267.902 285.132 269.848 284.653 272.019 284.653C273.627 284.653 275.107 284.963 276.461 285.583C277.815 286.176 278.943 287.064 279.845 288.248V275.897H283.906ZM272.358 303.984C273.768 303.984 275.051 303.66 276.207 303.011C277.363 302.334 278.266 301.404 278.914 300.219C279.563 299.007 279.887 297.625 279.887 296.074C279.887 294.523 279.563 293.155 278.914 291.971C278.266 290.758 277.363 289.828 276.207 289.179C275.051 288.53 273.768 288.206 272.358 288.206C270.92 288.206 269.622 288.53 268.466 289.179C267.338 289.828 266.436 290.758 265.759 291.971C265.11 293.155 264.786 294.523 264.786 296.074C264.786 297.625 265.11 299.007 265.759 300.219C266.436 301.404 267.338 302.334 268.466 303.011C269.622 303.66 270.92 303.984 272.358 303.984ZM327.991 277.673L315.004 307.283H310.817L297.788 277.673H302.357L313.016 301.996L323.761 277.673H327.991ZM349.108 296.201C349.108 296.511 349.08 296.92 349.023 297.427H330.834C331.088 299.401 331.948 300.995 333.415 302.207C334.909 303.392 336.756 303.984 338.956 303.984C341.635 303.984 343.792 303.082 345.428 301.277L347.67 303.899C346.654 305.084 345.385 305.986 343.863 306.607C342.368 307.227 340.69 307.537 338.829 307.537C336.46 307.537 334.359 307.058 332.526 306.099C330.693 305.112 329.269 303.744 328.254 301.996C327.267 300.247 326.773 298.273 326.773 296.074C326.773 293.902 327.253 291.943 328.212 290.194C329.199 288.446 330.538 287.092 332.23 286.133C333.95 285.146 335.882 284.653 338.025 284.653C340.168 284.653 342.072 285.146 343.736 286.133C345.428 287.092 346.739 288.446 347.67 290.194C348.628 291.943 349.108 293.945 349.108 296.201ZM338.025 288.079C336.079 288.079 334.444 288.671 333.118 289.856C331.821 291.04 331.06 292.591 330.834 294.509H345.216C344.991 292.619 344.215 291.082 342.89 289.898C341.593 288.685 339.971 288.079 338.025 288.079ZM366.083 284.653C368.931 284.653 371.187 285.485 372.851 287.149C374.543 288.784 375.389 291.195 375.389 294.382V307.283H371.328V294.847C371.328 292.676 370.807 291.04 369.763 289.94C368.72 288.841 367.225 288.291 365.279 288.291C363.08 288.291 361.345 288.939 360.076 290.236C358.807 291.505 358.173 293.338 358.173 295.735V307.283H354.112V275.897H358.173V288.037C359.019 286.965 360.119 286.133 361.472 285.541C362.854 284.949 364.391 284.653 366.083 284.653ZM382.27 284.864H386.331V307.283H382.27V284.864ZM384.3 280.55C383.511 280.55 382.848 280.296 382.312 279.788C381.804 279.281 381.551 278.66 381.551 277.927C381.551 277.194 381.804 276.574 382.312 276.066C382.848 275.53 383.511 275.262 384.3 275.262C385.09 275.262 385.738 275.516 386.246 276.024C386.782 276.503 387.05 277.109 387.05 277.843C387.05 278.604 386.782 279.253 386.246 279.788C385.738 280.296 385.09 280.55 384.3 280.55ZM403.221 307.537C400.937 307.537 398.892 307.044 397.087 306.057C395.311 305.07 393.915 303.716 392.9 301.996C391.884 300.247 391.377 298.273 391.377 296.074C391.377 293.874 391.884 291.914 392.9 290.194C393.915 288.446 395.311 287.092 397.087 286.133C398.892 285.146 400.937 284.653 403.221 284.653C405.251 284.653 407.056 285.062 408.635 285.88C410.243 286.697 411.483 287.882 412.358 289.433L409.27 291.421C408.565 290.349 407.691 289.546 406.647 289.01C405.604 288.474 404.448 288.206 403.179 288.206C401.712 288.206 400.387 288.53 399.202 289.179C398.046 289.828 397.13 290.758 396.453 291.971C395.804 293.155 395.48 294.523 395.48 296.074C395.48 297.653 395.804 299.049 396.453 300.262C397.13 301.446 398.046 302.362 399.202 303.011C400.387 303.66 401.712 303.984 403.179 303.984C404.448 303.984 405.604 303.716 406.647 303.18C407.691 302.644 408.565 301.841 409.27 300.769L412.358 302.715C411.483 304.266 410.243 305.464 408.635 306.31C407.056 307.128 405.251 307.537 403.221 307.537ZM416.691 275.897H420.752V307.283H416.691V275.897ZM448.133 296.201C448.133 296.511 448.105 296.92 448.048 297.427H429.859C430.113 299.401 430.973 300.995 432.44 302.207C433.934 303.392 435.781 303.984 437.981 303.984C440.66 303.984 442.817 303.082 444.453 301.277L446.695 303.899C445.679 305.084 444.41 305.986 442.888 306.607C441.393 307.227 439.715 307.537 437.854 307.537C435.485 307.537 433.384 307.058 431.551 306.099C429.718 305.112 428.294 303.744 427.279 301.996C426.292 300.247 425.798 298.273 425.798 296.074C425.798 293.902 426.278 291.943 427.237 290.194C428.224 288.446 429.563 287.092 431.255 286.133C432.975 285.146 434.907 284.653 437.05 284.653C439.193 284.653 441.097 285.146 442.761 286.133C444.453 287.092 445.764 288.446 446.695 290.194C447.653 291.943 448.133 293.945 448.133 296.201ZM437.05 288.079C435.104 288.079 433.469 288.671 432.143 289.856C430.846 291.04 430.085 292.591 429.859 294.509H444.241C444.016 292.619 443.24 291.082 441.915 289.898C440.618 288.685 438.996 288.079 437.05 288.079Z" fill="#838C92"/>
<mask id="path-5-inside-1" fill="white">
<path fill-rule="evenodd" clip-rule="evenodd" d="M428.007 70C433.499 70 438.7 72.4647 442.177 76.7146L483.874 127.677C485.833 130.072 486.904 133.071 486.904 136.165V197.215H455.164C451.913 182.806 439.034 172.044 423.642 172.044C407.061 172.044 393.397 184.533 391.542 200.617H246.891C245.037 184.533 231.373 172.044 214.792 172.044C198.211 172.044 184.546 184.533 182.692 200.617H159.347H142V184.63V164.561V90.4329C142 79.1481 151.148 70 162.433 70H370.685H428.007ZM424.769 75.7212C429.575 75.7212 434.115 77.923 437.091 81.6963L473.953 128.438H386.296C381.06 128.438 376.815 124.193 376.815 118.957V75.7212H424.769Z"/>
</mask>
<path fill-rule="evenodd" clip-rule="evenodd" d="M428.007 70C433.499 70 438.7 72.4647 442.177 76.7146L483.874 127.677C485.833 130.072 486.904 133.071 486.904 136.165V197.215H455.164C451.913 182.806 439.034 172.044 423.642 172.044C407.061 172.044 393.397 184.533 391.542 200.617H246.891C245.037 184.533 231.373 172.044 214.792 172.044C198.211 172.044 184.546 184.533 182.692 200.617H159.347H142V184.63V164.561V90.4329C142 79.1481 151.148 70 162.433 70H370.685H428.007ZM424.769 75.7212C429.575 75.7212 434.115 77.923 437.091 81.6963L473.953 128.438H386.296C381.06 128.438 376.815 124.193 376.815 118.957V75.7212H424.769Z" fill="#FFF3DC"/>
<path d="M442.177 76.7146L441.671 77.1287L441.671 77.1287L442.177 76.7146ZM483.874 127.677L484.38 127.263L484.38 127.263L483.874 127.677ZM486.904 197.215H487.558V197.869H486.904V197.215ZM455.164 197.215V197.869H454.641L454.526 197.359L455.164 197.215ZM391.542 200.617L392.192 200.692L392.125 201.271H391.542V200.617ZM246.891 200.617V201.271H246.309L246.242 200.692L246.891 200.617ZM182.692 200.617L183.341 200.692L183.275 201.271H182.692V200.617ZM142 200.617V201.271H141.346V200.617H142ZM437.091 81.6963L436.577 82.1012L436.577 82.1012L437.091 81.6963ZM473.953 128.438L474.466 128.033L475.301 129.092H473.953V128.438ZM376.815 75.7212H376.161V75.0674H376.815V75.7212ZM441.671 77.1287C438.318 73.0305 433.302 70.6539 428.007 70.6539V69.3461C433.695 69.3461 439.082 71.8989 442.683 76.3006L441.671 77.1287ZM483.368 128.091L441.671 77.1287L442.683 76.3006L484.38 127.263L483.368 128.091ZM486.25 136.165C486.25 133.222 485.232 130.369 483.368 128.091L484.38 127.263C486.435 129.775 487.558 132.92 487.558 136.165H486.25ZM486.25 197.215V136.165H487.558V197.215H486.25ZM455.164 196.561H486.904V197.869H455.164V196.561ZM423.642 171.39C439.346 171.39 452.485 182.37 455.802 197.071L454.526 197.359C451.341 183.241 438.722 172.698 423.642 172.698V171.39ZM390.893 200.542C392.785 184.132 406.725 171.39 423.642 171.39V172.698C407.397 172.698 394.009 184.934 392.192 200.692L390.893 200.542ZM246.891 199.963H391.542V201.271H246.891V199.963ZM214.792 171.39C231.709 171.39 245.649 184.132 247.541 200.542L246.242 200.692C244.425 184.934 231.037 172.698 214.792 172.698V171.39ZM182.042 200.542C183.934 184.132 197.875 171.39 214.792 171.39V172.698C198.547 172.698 185.158 184.934 183.341 200.692L182.042 200.542ZM159.347 199.963H182.692V201.271H159.347V199.963ZM142 199.963H159.347V201.271H142V199.963ZM142.654 184.63V200.617H141.346V184.63H142.654ZM142.654 164.561V184.63H141.346V164.561H142.654ZM142.654 90.4329V164.561H141.346V90.4329H142.654ZM162.433 70.6539C151.509 70.6539 142.654 79.5092 142.654 90.4329H141.346C141.346 78.787 150.787 69.3461 162.433 69.3461V70.6539ZM370.685 70.6539H162.433V69.3461H370.685V70.6539ZM428.007 70.6539H370.685V69.3461H428.007V70.6539ZM436.577 82.1012C433.726 78.4852 429.374 76.3751 424.769 76.3751V75.0674C429.775 75.0674 434.505 77.3609 437.604 81.2915L436.577 82.1012ZM473.439 128.843L436.577 82.1012L437.604 81.2915L474.466 128.033L473.439 128.843ZM386.296 127.784H473.953V129.092H386.296V127.784ZM377.469 118.957C377.469 123.832 381.421 127.784 386.296 127.784V129.092C380.698 129.092 376.161 124.554 376.161 118.957H377.469ZM377.469 75.7212V118.957H376.161V75.7212H377.469ZM424.769 76.3751H376.815V75.0674H424.769V76.3751Z" fill="black" mask="url(#path-5-inside-1)"/>
<path d="M489.365 175.554H474.726V196.996H489.365V175.554Z" fill="#B8B8B8" stroke="black" stroke-width="0.326926"/>
<path fill-rule="evenodd" clip-rule="evenodd" d="M423.653 233.79C407.403 233.79 394.23 220.617 394.23 204.367C394.23 188.117 407.403 174.943 423.653 174.943C439.903 174.943 453.077 188.117 453.077 204.367C453.077 220.617 439.903 233.79 423.653 233.79ZM423.653 224.146C412.729 224.146 403.874 215.29 403.874 204.367C403.874 193.443 412.729 184.588 423.653 184.588C434.577 184.588 443.432 193.443 443.432 204.367C443.432 215.29 434.577 224.146 423.653 224.146Z" fill="#333333"/>
<path fill-rule="evenodd" clip-rule="evenodd" d="M214.819 234.117C198.569 234.117 185.396 220.944 185.396 204.694C185.396 188.444 198.569 175.27 214.819 175.27C231.069 175.27 244.243 188.444 244.243 204.694C244.243 220.944 231.069 234.117 214.819 234.117ZM214.819 224.473C203.896 224.473 195.04 215.617 195.04 204.694C195.04 193.77 203.896 184.915 214.819 184.915C225.743 184.915 234.598 193.77 234.598 204.694C234.598 215.617 225.743 224.473 214.819 224.473Z" fill="#333333"/>
<path d="M423.653 224.146C412.73 224.146 403.874 215.29 403.874 204.367C403.874 193.443 412.73 184.588 423.653 184.588C434.577 184.588 443.432 193.443 443.432 204.367C443.432 215.29 434.577 224.146 423.653 224.146Z" fill="#B8B8B8"/>
<path d="M214.829 224.473C203.905 224.473 195.05 215.617 195.05 204.694C195.05 193.77 203.905 184.915 214.829 184.915C225.752 184.915 234.608 193.77 234.608 204.694C234.608 215.617 225.752 224.473 214.829 224.473Z" fill="#B8B8B8"/>
<path fill-rule="evenodd" clip-rule="evenodd" d="M310.822 91.0253C311.623 89.6375 313.398 89.1621 314.786 89.9633C316.173 90.7645 316.649 92.539 315.848 93.9268L309.691 104.59L320.709 104.59C322.311 104.59 323.61 105.889 323.61 107.492C323.61 109.094 322.311 110.393 320.709 110.393L306.341 110.393L296.984 126.599L315.507 126.599L322.786 113.992C323.587 112.604 325.362 112.128 326.75 112.93C328.137 113.731 328.613 115.505 327.812 116.893L322.208 126.599L334.616 126.599C336.218 126.599 337.517 127.898 337.517 129.501C337.517 131.103 336.218 132.402 334.616 132.402L322.303 132.402L327.812 141.943C328.613 143.331 328.137 145.106 326.75 145.907C325.362 146.708 323.587 146.233 322.786 144.845L315.602 132.402L297.079 132.402L306.003 147.859L320.371 147.859C321.974 147.859 323.273 149.158 323.273 150.76C323.273 152.363 321.974 153.662 320.371 153.662L309.354 153.662L315.848 164.91C316.649 166.297 316.173 168.072 314.786 168.873C313.398 169.674 311.623 169.199 310.822 167.811L304.274 156.47L298.67 166.176C297.869 167.564 296.094 168.039 294.707 167.238C293.319 166.437 292.843 164.662 293.645 163.274L300.924 150.667L292.006 135.221L282.987 150.843L290.171 163.286C290.972 164.673 290.497 166.448 289.109 167.249C287.721 168.05 285.947 167.575 285.145 166.187L279.637 156.646L273.143 167.894C272.342 169.281 270.567 169.757 269.179 168.956C267.792 168.154 267.316 166.38 268.117 164.992L274.665 153.651L263.458 153.651C261.855 153.651 260.556 152.352 260.556 150.749C260.556 149.147 261.855 147.848 263.458 147.848L278.016 147.848L286.933 132.402L268.895 132.402L261.711 144.845C260.91 146.233 259.135 146.708 257.747 145.907C256.36 145.106 255.884 143.331 256.685 141.943L262.194 132.402L249.206 132.402C247.604 132.402 246.305 131.103 246.305 129.501C246.305 127.898 247.604 126.599 249.206 126.599L262.302 126.599L256.698 116.893C255.897 115.505 256.373 113.731 257.76 112.93C259.148 112.128 260.923 112.604 261.724 113.992L269.003 126.599L287.028 126.599L277.672 110.393L263.114 110.393C261.511 110.393 260.212 109.094 260.212 107.492C260.212 105.889 261.511 104.59 263.114 104.59L274.321 104.59L268.117 93.8444C267.316 92.4566 267.792 90.6821 269.179 89.8809C270.567 89.0797 272.342 89.5551 273.143 90.9429L279.299 101.606L284.808 92.0648C285.609 90.677 287.384 90.2015 288.771 91.0028C290.159 91.804 290.635 93.5785 289.833 94.9662L282.65 107.409L292.006 123.615L301.268 107.574L293.989 94.9663C293.187 93.5786 293.663 91.804 295.051 91.0028C296.438 90.2016 298.213 90.6771 299.014 92.0648L304.618 101.771L310.822 91.0253Z" fill="#2F80ED"/>
<ellipse opacity="0.5" cx="324" cy="233.5" rx="165" ry="5.5" fill="#403F45" fill-opacity="0.72"/>
<rect x="1" y="1" width="630" height="344" stroke="#C4C4C4" stroke-width="2"/>
</g>
<defs>
<filter id="filter0_d" x="0" y="0" width="640" height="354" filterUnits="userSpaceOnUse" color-interpolation-filters="sRGB">
<feFlood flood-opacity="0" result="BackgroundImageFix"/>
<feColorMatrix in="SourceAlpha" type="matrix" values="0 0 0 0 0 0 0 0 0 0 0 0 0 0 0 0 0 0 127 0"/>
<feOffset dx="4" dy="4"/>
<feGaussianBlur stdDeviation="2"/>
<feColorMatrix type="matrix" values="0 0 0 0 0 0 0 0 0 0 0 0 0 0 0 0 0 0 0.25 0"/>
<feBlend mode="normal" in2="BackgroundImageFix" result="effect1_dropShadow"/>
<feBlend mode="normal" in="SourceGraphic" in2="effect1_dropShadow" result="shape"/>
</filter>
</defs>
</svg>
