<svg width="640" height="354" viewBox="0 0 640 354" fill="none" xmlns="http://www.w3.org/2000/svg">
<g filter="url(#filter0_d)">
<rect x="2" y="2" width="628" height="342" rx="6" fill="white"/>
<path d="M32.3212 281.353H22.1692V277.673H46.6609V281.353H36.5089V307.283H32.3212V281.353ZM53.3959 288.629C54.1009 287.332 55.1443 286.345 56.5261 285.668C57.9079 284.991 59.5858 284.653 61.5598 284.653V288.587C61.3342 288.559 61.024 288.544 60.6292 288.544C58.4296 288.544 56.6953 289.207 55.4263 290.533C54.1855 291.83 53.5651 293.691 53.5651 296.116V307.283H49.5043V284.864H53.3959V288.629ZM87.1156 284.864V307.283H83.2663V303.899C82.4485 305.056 81.3628 305.958 80.0092 306.607C78.6838 307.227 77.2315 307.537 75.6523 307.537C72.6631 307.537 70.3084 306.719 68.5882 305.084C66.868 303.42 66.0079 300.981 66.0079 297.766V284.864H70.0687V297.301C70.0687 299.472 70.5904 301.122 71.6338 302.25C72.6772 303.349 74.1718 303.899 76.1176 303.899C78.2608 303.899 79.9528 303.251 81.1936 301.954C82.4344 300.656 83.0548 298.823 83.0548 296.455V284.864H87.1156ZM103.983 307.537C101.699 307.537 99.6543 307.044 97.8495 306.057C96.0729 305.07 94.677 303.716 93.6618 301.996C92.6466 300.247 92.139 298.273 92.139 296.074C92.139 293.874 92.6466 291.914 93.6618 290.194C94.677 288.446 96.0729 287.092 97.8495 286.133C99.6543 285.146 101.699 284.653 103.983 284.653C106.013 284.653 107.818 285.062 109.397 285.88C111.005 286.697 112.246 287.882 113.12 289.433L110.032 291.421C109.327 290.349 108.453 289.546 107.409 289.01C106.366 288.474 105.21 288.206 103.941 288.206C102.474 288.206 101.149 288.53 99.9645 289.179C98.8083 289.828 97.8918 290.758 97.215 291.971C96.5664 293.155 96.2421 294.523 96.2421 296.074C96.2421 297.653 96.5664 299.049 97.215 300.262C97.8918 301.446 98.8083 302.362 99.9645 303.011C101.149 303.66 102.474 303.984 103.941 303.984C105.21 303.984 106.366 303.716 107.409 303.18C108.453 302.644 109.327 301.841 110.032 300.769L113.12 302.715C112.246 304.266 111.005 305.464 109.397 306.31C107.818 307.128 106.013 307.537 103.983 307.537ZM126.167 296.835L121.514 301.15V307.283H117.454V275.897H121.514V296.032L133.739 284.864H138.646L129.213 294.128L139.576 307.283H134.585L126.167 296.835ZM175.86 307.749L171.926 303.815C169.303 306.353 166.004 307.622 162.028 307.622C160.054 307.622 158.277 307.297 156.698 306.649C155.119 306 153.878 305.098 152.976 303.942C152.101 302.757 151.664 301.418 151.664 299.923C151.664 298.118 152.214 296.525 153.314 295.143C154.442 293.733 156.289 292.295 158.855 290.829C157.558 289.531 156.642 288.361 156.106 287.318C155.57 286.274 155.302 285.189 155.302 284.061C155.302 282.058 156.021 280.451 157.459 279.238C158.926 278.026 160.872 277.42 163.297 277.42C165.553 277.42 167.344 277.969 168.669 279.069C169.994 280.169 170.657 281.678 170.657 283.595C170.657 285.09 170.164 286.429 169.177 287.614C168.218 288.798 166.61 290.039 164.354 291.336L171.672 298.612C172.518 297.004 173.125 295.214 173.491 293.24L176.748 294.297C176.241 296.892 175.381 299.148 174.168 301.065L178.144 305.041L175.86 307.749ZM163.297 280.381C161.971 280.381 160.928 280.719 160.167 281.396C159.433 282.044 159.067 282.904 159.067 283.976C159.067 284.737 159.264 285.471 159.659 286.176C160.082 286.881 160.886 287.839 162.07 289.052C164.016 287.952 165.355 287.008 166.089 286.218C166.85 285.428 167.231 284.568 167.231 283.638C167.231 282.651 166.878 281.861 166.173 281.269C165.496 280.677 164.538 280.381 163.297 280.381ZM162.282 304.238C165.214 304.238 167.626 303.307 169.515 301.446L161.097 293.071C159.067 294.199 157.643 295.256 156.825 296.243C156.035 297.202 155.641 298.288 155.641 299.5C155.641 300.91 156.247 302.052 157.459 302.926C158.7 303.801 160.308 304.238 162.282 304.238ZM199.172 281.353H189.02V277.673H213.511V281.353H203.359V307.283H199.172V281.353ZM220.246 288.629C220.951 287.332 221.995 286.345 223.376 285.668C224.758 284.991 226.436 284.653 228.41 284.653V288.587C228.185 288.559 227.874 288.544 227.48 288.544C225.28 288.544 223.546 289.207 222.277 290.533C221.036 291.83 220.415 293.691 220.415 296.116V307.283H216.355V284.864H220.246V288.629ZM240.903 284.653C244.005 284.653 246.374 285.414 248.01 286.937C249.673 288.46 250.505 290.73 250.505 293.747V307.283H246.656V304.322C245.979 305.366 245.006 306.169 243.737 306.733C242.496 307.269 241.016 307.537 239.296 307.537C236.786 307.537 234.77 306.931 233.247 305.718C231.752 304.506 231.005 302.912 231.005 300.938C231.005 298.964 231.724 297.385 233.162 296.201C234.6 294.988 236.885 294.382 240.015 294.382H246.444V293.578C246.444 291.83 245.937 290.49 244.922 289.56C243.906 288.629 242.412 288.164 240.438 288.164C239.112 288.164 237.815 288.389 236.546 288.841C235.277 289.264 234.206 289.842 233.331 290.575L231.639 287.529C232.796 286.599 234.177 285.894 235.785 285.414C237.392 284.907 239.098 284.653 240.903 284.653ZM239.973 304.407C241.524 304.407 242.863 304.069 243.991 303.392C245.119 302.687 245.937 301.7 246.444 300.431V297.301H240.184C236.744 297.301 235.023 298.457 235.023 300.769C235.023 301.897 235.461 302.785 236.335 303.434C237.209 304.083 238.422 304.407 239.973 304.407ZM257.386 284.864H261.446V307.283H257.386V284.864ZM259.416 280.55C258.626 280.55 257.964 280.296 257.428 279.788C256.92 279.281 256.667 278.66 256.667 277.927C256.667 277.194 256.92 276.574 257.428 276.066C257.964 275.53 258.626 275.262 259.416 275.262C260.206 275.262 260.854 275.516 261.362 276.024C261.898 276.503 262.166 277.109 262.166 277.843C262.166 278.604 261.898 279.253 261.362 279.788C260.854 280.296 260.206 280.55 259.416 280.55ZM268.565 275.897H272.626V307.283H268.565V275.897ZM300.007 296.201C300.007 296.511 299.979 296.92 299.922 297.427H281.733C281.987 299.401 282.847 300.995 284.314 302.207C285.808 303.392 287.655 303.984 289.855 303.984C292.534 303.984 294.691 303.082 296.327 301.277L298.569 303.899C297.553 305.084 296.284 305.986 294.762 306.607C293.267 307.227 291.589 307.537 289.728 307.537C287.359 307.537 285.258 307.058 283.425 306.099C281.592 305.112 280.168 303.744 279.153 301.996C278.166 300.247 277.672 298.273 277.672 296.074C277.672 293.902 278.152 291.943 279.111 290.194C280.098 288.446 281.437 287.092 283.129 286.133C284.849 285.146 286.781 284.653 288.924 284.653C291.067 284.653 292.971 285.146 294.635 286.133C296.327 287.092 297.638 288.446 298.569 290.194C299.527 291.943 300.007 293.945 300.007 296.201ZM288.924 288.079C286.978 288.079 285.343 288.671 284.017 289.856C282.72 291.04 281.959 292.591 281.733 294.509H296.115C295.89 292.619 295.114 291.082 293.789 289.898C292.492 288.685 290.87 288.079 288.924 288.079ZM308.903 288.629C309.608 287.332 310.651 286.345 312.033 285.668C313.415 284.991 315.093 284.653 317.067 284.653V288.587C316.841 288.559 316.531 288.544 316.136 288.544C313.936 288.544 312.202 289.207 310.933 290.533C309.692 291.83 309.072 293.691 309.072 296.116V307.283H305.011V284.864H308.903V288.629Z" fill="#737577"/>
<path fill-rule="evenodd" clip-rule="evenodd" d="M64.0795 210.446H85.1386C85.1323 210.204 85.1291 209.961 85.1291 209.717C85.1291 194.664 97.3322 182.461 112.386 182.461C127.439 182.461 139.642 194.664 139.642 209.717C139.642 209.961 139.639 210.204 139.633 210.446H197.133C197.127 210.204 197.124 209.961 197.124 209.717C197.124 194.664 209.327 182.461 224.38 182.461C239.434 182.461 251.637 194.664 251.637 209.717C251.637 209.961 251.634 210.204 251.627 210.446H258.599V198.977H262.243V188.695H258.599V183.864H239.277V176.605H207.864V183.864H145.039V101.096H141.423C141.522 93.7108 143.01 78.152 148.17 75C137.321 75 108.931 95.0511 106.395 98.0736H91.8487L64.97 168.131V183.864H67.7227V193.525H64.0795V210.446ZM74.4154 154.557H119.24V108.517H91.6809L74.4154 154.557Z" fill="#FFF3DC"/>
<path d="M85.1386 210.446V210.662H85.3602L85.3544 210.44L85.1386 210.446ZM64.0795 210.446H63.8636V210.662H64.0795V210.446ZM139.633 210.446L139.417 210.44L139.411 210.662H139.633V210.446ZM197.133 210.446V210.662H197.355L197.349 210.44L197.133 210.446ZM251.627 210.446L251.411 210.44L251.406 210.662H251.627V210.446ZM258.599 210.446V210.662H258.815V210.446H258.599ZM258.599 198.977V198.761H258.383V198.977H258.599ZM262.243 198.977V199.193H262.458V198.977H262.243ZM262.243 188.695H262.458V188.479H262.243V188.695ZM258.599 188.695H258.383V188.911H258.599V188.695ZM258.599 183.864H258.815V183.648H258.599V183.864ZM239.277 183.864H239.061V184.08H239.277V183.864ZM239.277 176.605H239.493V176.389H239.277V176.605ZM207.864 176.605V176.389H207.649V176.605H207.864ZM207.864 183.864V184.08H208.08V183.864H207.864ZM145.039 183.864H144.824V184.08H145.039V183.864ZM145.039 101.096H145.255V100.88H145.039V101.096ZM141.423 101.096L141.207 101.093L141.204 101.312H141.423V101.096ZM148.17 75L148.282 75.1842L148.937 74.7841H148.17V75ZM106.395 98.0736V98.2895H106.495L106.56 98.2124L106.395 98.0736ZM91.8487 98.0736V97.8577H91.7003L91.6472 97.9963L91.8487 98.0736ZM64.97 168.131L64.7685 168.054L64.7541 168.091V168.131H64.97ZM64.97 183.864H64.7541V184.08H64.97V183.864ZM67.7227 183.864H67.9386V183.648H67.7227V183.864ZM67.7227 193.525V193.741H67.9386V193.525H67.7227ZM64.0795 193.525V193.31H63.8636V193.525H64.0795ZM119.24 154.557V154.773H119.456V154.557H119.24ZM74.4154 154.557L74.2132 154.481L74.1038 154.773H74.4154V154.557ZM119.24 108.517H119.456V108.302H119.24V108.517ZM91.6809 108.517V108.302H91.5312L91.4787 108.442L91.6809 108.517ZM85.1386 210.23H64.0795V210.662H85.1386V210.23ZM84.9132 209.717C84.9132 209.963 84.9164 210.208 84.9228 210.452L85.3544 210.44C85.3481 210.2 85.345 209.959 85.345 209.717H84.9132ZM112.386 182.245C97.213 182.245 84.9132 194.545 84.9132 209.717H85.345C85.345 194.783 97.4515 182.677 112.386 182.677V182.245ZM139.858 209.717C139.858 194.545 127.558 182.245 112.386 182.245V182.677C127.32 182.677 139.426 194.783 139.426 209.717H139.858ZM139.848 210.452C139.855 210.208 139.858 209.963 139.858 209.717H139.426C139.426 209.959 139.423 210.2 139.417 210.44L139.848 210.452ZM197.133 210.23H139.633V210.662H197.133V210.23ZM197.349 210.44C197.343 210.2 197.34 209.959 197.34 209.717H196.908C196.908 209.963 196.911 210.208 196.917 210.452L197.349 210.44ZM197.34 209.717C197.34 194.783 209.446 182.677 224.38 182.677V182.245C209.208 182.245 196.908 194.545 196.908 209.717H197.34ZM224.38 182.677C239.314 182.677 251.421 194.783 251.421 209.717H251.853C251.853 194.545 239.553 182.245 224.38 182.245V182.677ZM251.421 209.717C251.421 209.959 251.418 210.2 251.411 210.44L251.843 210.452C251.849 210.208 251.853 209.963 251.853 209.717H251.421ZM258.599 210.23H251.627V210.662H258.599V210.23ZM258.383 198.977V210.446H258.815V198.977H258.383ZM262.243 198.761H258.599V199.193H262.243V198.761ZM262.027 188.695V198.977H262.458V188.695H262.027ZM258.599 188.911H262.243V188.479H258.599V188.911ZM258.383 183.864V188.695H258.815V183.864H258.383ZM239.277 184.08H258.599V183.648H239.277V184.08ZM239.061 176.605V183.864H239.493V176.605H239.061ZM207.864 176.821H239.277V176.389H207.864V176.821ZM208.08 183.864V176.605H207.649V183.864H208.08ZM145.039 184.08H207.864V183.648H145.039V184.08ZM144.824 101.096V183.864H145.255V101.096H144.824ZM141.423 101.312H145.039V100.88H141.423V101.312ZM148.057 74.8158C146.709 75.6392 145.627 77.2534 144.754 79.2835C143.88 81.3201 143.203 83.8075 142.687 86.4187C141.654 91.6417 141.257 97.3914 141.207 101.093L141.639 101.099C141.688 97.4155 142.084 91.6931 143.111 86.5024C143.624 83.9068 144.293 81.4519 145.151 79.4539C146.012 77.4495 147.05 75.9368 148.282 75.1842L148.057 74.8158ZM106.56 98.2124C106.862 97.8531 107.566 97.2215 108.608 96.3825C109.645 95.548 111.001 94.5191 112.593 93.3682C115.777 91.0664 119.898 88.2796 124.278 85.5873C128.659 82.8946 133.296 80.2986 137.512 78.3767C141.737 76.4506 145.508 75.2159 148.17 75.2159V74.7841C145.407 74.7841 141.562 76.0558 137.333 77.9838C133.095 79.9158 128.442 82.5216 124.052 85.2194C119.662 87.9177 115.532 90.7104 112.34 93.0183C110.744 94.1722 109.382 95.2057 108.338 96.0462C107.299 96.8823 106.562 97.5385 106.229 97.9348L106.56 98.2124ZM91.8487 98.2895H106.395V97.8577H91.8487V98.2895ZM65.1716 168.208L92.0503 98.1509L91.6472 97.9963L64.7685 168.054L65.1716 168.208ZM65.1859 183.864V168.131H64.7541V183.864H65.1859ZM67.7227 183.648H64.97V184.08H67.7227V183.648ZM67.9386 193.525V183.864H67.5068V193.525H67.9386ZM64.0795 193.741H67.7227V193.31H64.0795V193.741ZM64.2954 210.446V193.525H63.8636V210.446H64.2954ZM119.24 154.341H74.4154V154.773H119.24V154.341ZM119.024 108.517V154.557H119.456V108.517H119.024ZM91.6809 108.733H119.24V108.302H91.6809V108.733ZM74.6175 154.633L91.883 108.593L91.4787 108.442L74.2132 154.481L74.6175 154.633Z" fill="black"/>
<path d="M72.6612 193.094H63V210.419H72.6612V193.094Z" fill="#B8B8B8" stroke="black" stroke-width="0.215893"/>
<rect x="151.894" y="71.1139" width="429.088" height="105.302" fill="#2F80ED" stroke="black" stroke-width="0.431787"/>
<path d="M112.494 185.753C99.1053 185.753 88.2595 196.599 88.2595 209.987C88.2595 223.376 99.1053 234.221 112.494 234.221C125.882 234.221 136.728 223.376 136.728 209.987C136.728 196.599 125.85 185.753 112.494 185.753ZM112.494 228.139C102.452 228.139 94.3422 219.996 94.3422 209.987C94.3422 199.978 102.485 191.836 112.494 191.836C122.503 191.836 130.645 199.978 130.645 209.987C130.645 219.996 122.503 228.139 112.494 228.139Z" fill="url(#paint0_radial)"/>
<path d="M112.397 228.074C122.439 228.074 130.581 219.933 130.581 209.891C130.581 199.848 122.439 191.707 112.397 191.707C102.354 191.707 94.2134 199.848 94.2134 209.891C94.2134 219.933 102.354 228.074 112.397 228.074Z" fill="url(#paint1_radial)"/>
<path d="M113.105 200.751L111.528 200.686L110.691 202.006L111.432 203.422L113.008 203.486L113.845 202.135L113.105 200.751Z" fill="url(#paint2_radial)"/>
<path d="M113.105 216.52L111.528 216.456L110.691 217.776L111.432 219.192L113.008 219.256L113.845 217.904L113.105 216.52Z" fill="url(#paint3_radial)"/>
<path d="M106.25 202.875L105.091 203.937L105.413 205.482L106.926 205.932L108.084 204.87L107.73 203.325L106.25 202.875Z" fill="url(#paint4_radial)"/>
<path d="M117.385 214.01L116.227 215.072L116.581 216.617L118.093 217.1L119.252 216.006L118.898 214.493L117.385 214.01Z" fill="url(#paint5_radial)"/>
<path d="M102.935 209.15L102.871 210.695L104.222 211.564L105.606 210.824L105.671 209.247L104.351 208.41L102.935 209.15Z" fill="url(#paint6_radial)"/>
<path d="M118.705 209.15L118.641 210.695L119.992 211.564L121.376 210.824L121.44 209.247L120.121 208.41L118.705 209.15Z" fill="url(#paint7_radial)"/>
<path d="M105.059 215.909L106.121 217.068L107.666 216.714L108.117 215.201L107.055 214.042L105.51 214.396L105.059 215.909Z" fill="url(#paint8_radial)"/>
<path d="M116.195 204.741L117.257 205.9L118.801 205.546L119.284 204.066L118.19 202.907L116.677 203.229L116.195 204.741Z" fill="url(#paint9_radial)"/>
<path d="M224.488 185.753C211.1 185.753 200.254 196.599 200.254 209.987C200.254 223.376 211.1 234.221 224.488 234.221C237.876 234.221 248.722 223.376 248.722 209.987C248.722 196.599 237.844 185.753 224.488 185.753ZM224.488 228.139C214.447 228.139 206.337 219.996 206.337 209.987C206.337 199.978 214.479 191.836 224.488 191.836C234.497 191.836 242.64 199.978 242.64 209.987C242.64 219.996 234.497 228.139 224.488 228.139Z" fill="url(#paint10_radial)"/>
<path d="M224.392 228.074C234.434 228.074 242.575 219.933 242.575 209.891C242.575 199.848 234.434 191.707 224.392 191.707C214.349 191.707 206.208 199.848 206.208 209.891C206.208 219.933 214.349 228.074 224.392 228.074Z" fill="url(#paint11_radial)"/>
<path d="M225.1 200.751L223.523 200.686L222.686 202.006L223.426 203.422L225.003 203.486L225.84 202.135L225.1 200.751Z" fill="url(#paint12_radial)"/>
<path d="M225.1 216.52L223.523 216.456L222.686 217.776L223.426 219.192L225.003 219.256L225.84 217.904L225.1 216.52Z" fill="url(#paint13_radial)"/>
<path d="M218.245 202.875L217.086 203.937L217.408 205.482L218.921 205.932L220.079 204.87L219.725 203.325L218.245 202.875Z" fill="url(#paint14_radial)"/>
<path d="M229.38 214.01L228.221 215.072L228.575 216.617L230.088 217.1L231.247 216.006L230.893 214.493L229.38 214.01Z" fill="url(#paint15_radial)"/>
<path d="M214.93 209.15L214.865 210.695L216.217 211.564L217.601 210.824L217.665 209.247L216.346 208.41L214.93 209.15Z" fill="url(#paint16_radial)"/>
<path d="M230.7 209.15L230.635 210.695L231.987 211.564L233.371 210.824L233.435 209.247L232.116 208.41L230.7 209.15Z" fill="url(#paint17_radial)"/>
<path d="M217.054 215.909L218.116 217.068L219.661 216.714L220.111 215.201L219.049 214.042L217.504 214.396L217.054 215.909Z" fill="url(#paint18_radial)"/>
<path d="M228.189 204.741L229.251 205.9L230.796 205.546L231.279 204.066L230.185 202.907L228.672 203.229L228.189 204.741Z" fill="url(#paint19_radial)"/>
<path d="M406.702 185.753C393.314 185.753 382.468 196.599 382.468 209.987C382.468 223.376 393.314 234.221 406.702 234.221C420.09 234.221 430.936 223.376 430.936 209.987C430.936 196.599 420.058 185.753 406.702 185.753ZM406.702 228.139C396.661 228.139 388.551 219.996 388.551 209.987C388.551 199.978 396.693 191.836 406.702 191.836C416.711 191.836 424.854 199.978 424.854 209.987C424.854 219.996 416.711 228.139 406.702 228.139Z" fill="url(#paint20_radial)"/>
<path d="M406.606 228.074C416.648 228.074 424.789 219.933 424.789 209.891C424.789 199.848 416.648 191.707 406.606 191.707C396.563 191.707 388.422 199.848 388.422 209.891C388.422 219.933 396.563 228.074 406.606 228.074Z" fill="url(#paint21_radial)"/>
<path d="M407.314 200.751L405.737 200.686L404.9 202.006L405.64 203.422L407.217 203.486L408.054 202.135L407.314 200.751Z" fill="url(#paint22_radial)"/>
<path d="M407.314 216.52L405.737 216.456L404.9 217.776L405.64 219.192L407.217 219.256L408.054 217.904L407.314 216.52Z" fill="url(#paint23_radial)"/>
<path d="M400.459 202.875L399.3 203.937L399.622 205.482L401.134 205.932L402.293 204.87L401.939 203.325L400.459 202.875Z" fill="url(#paint24_radial)"/>
<path d="M411.594 214.01L410.435 215.072L410.789 216.617L412.302 217.1L413.461 216.006L413.107 214.493L411.594 214.01Z" fill="url(#paint25_radial)"/>
<path d="M397.144 209.15L397.079 210.695L398.431 211.564L399.815 210.824L399.879 209.247L398.56 208.41L397.144 209.15Z" fill="url(#paint26_radial)"/>
<path d="M412.913 209.15L412.849 210.695L414.201 211.564L415.585 210.824L415.649 209.247L414.33 208.41L412.913 209.15Z" fill="url(#paint27_radial)"/>
<path d="M399.268 215.909L400.33 217.068L401.875 216.714L402.325 215.201L401.263 214.042L399.718 214.396L399.268 215.909Z" fill="url(#paint28_radial)"/>
<path d="M410.403 204.741L411.465 205.9L413.01 205.546L413.493 204.066L412.399 202.907L410.886 203.229L410.403 204.741Z" fill="url(#paint29_radial)"/>
<path d="M468.178 185.753C454.79 185.753 443.944 196.599 443.944 209.987C443.944 223.376 454.79 234.221 468.178 234.221C481.566 234.221 492.412 223.376 492.412 209.987C492.412 196.599 481.534 185.753 468.178 185.753ZM468.178 228.139C458.137 228.139 450.026 219.996 450.026 209.987C450.026 199.978 458.169 191.836 468.178 191.836C478.187 191.836 486.329 199.978 486.329 209.987C486.329 219.996 478.187 228.139 468.178 228.139Z" fill="url(#paint30_radial)"/>
<path d="M468.081 228.074C478.124 228.074 486.265 219.933 486.265 209.891C486.265 199.848 478.124 191.707 468.081 191.707C458.039 191.707 449.898 199.848 449.898 209.891C449.898 219.933 458.039 228.074 468.081 228.074Z" fill="url(#paint31_radial)"/>
<path d="M468.789 200.751L467.212 200.686L466.375 202.006L467.116 203.422L468.693 203.486L469.529 202.135L468.789 200.751Z" fill="url(#paint32_radial)"/>
<path d="M468.789 216.52L467.212 216.456L466.375 217.776L467.116 219.192L468.693 219.256L469.529 217.904L468.789 216.52Z" fill="url(#paint33_radial)"/>
<path d="M461.934 202.875L460.776 203.937L461.097 205.482L462.61 205.932L463.769 204.87L463.415 203.325L461.934 202.875Z" fill="url(#paint34_radial)"/>
<path d="M473.07 214.01L471.911 215.072L472.265 216.617L473.778 217.1L474.936 216.006L474.582 214.493L473.07 214.01Z" fill="url(#paint35_radial)"/>
<path d="M458.619 209.15L458.555 210.695L459.907 211.564L461.291 210.824L461.355 209.247L460.035 208.41L458.619 209.15Z" fill="url(#paint36_radial)"/>
<path d="M474.389 209.15L474.325 210.695L475.677 211.564L477.06 210.824L477.125 209.247L475.805 208.41L474.389 209.15Z" fill="url(#paint37_radial)"/>
<path d="M460.743 215.909L461.805 217.068L463.35 216.714L463.801 215.201L462.739 214.042L461.194 214.396L460.743 215.909Z" fill="url(#paint38_radial)"/>
<path d="M471.879 204.741L472.941 205.9L474.486 205.546L474.969 204.066L473.874 202.907L472.362 203.229L471.879 204.741Z" fill="url(#paint39_radial)"/>
<path d="M529.761 185.753C516.373 185.753 505.527 196.599 505.527 209.987C505.527 223.376 516.373 234.221 529.761 234.221C543.15 234.221 553.995 223.376 553.995 209.987C553.995 196.599 543.117 185.753 529.761 185.753ZM529.761 228.139C519.72 228.139 511.61 219.996 511.61 209.987C511.61 199.978 519.752 191.836 529.761 191.836C539.77 191.836 547.913 199.978 547.913 209.987C547.913 219.996 539.77 228.139 529.761 228.139Z" fill="url(#paint40_radial)"/>
<path d="M529.665 228.074C539.707 228.074 547.848 219.933 547.848 209.891C547.848 199.848 539.707 191.707 529.665 191.707C519.622 191.707 511.481 199.848 511.481 209.891C511.481 219.933 519.622 228.074 529.665 228.074Z" fill="url(#paint41_radial)"/>
<path d="M530.373 200.751L528.796 200.686L527.959 202.006L528.699 203.422L530.276 203.486L531.113 202.135L530.373 200.751Z" fill="url(#paint42_radial)"/>
<path d="M530.373 216.52L528.796 216.456L527.959 217.776L528.699 219.192L530.276 219.256L531.113 217.904L530.373 216.52Z" fill="url(#paint43_radial)"/>
<path d="M523.518 202.875L522.359 203.937L522.681 205.482L524.194 205.932L525.352 204.87L524.998 203.325L523.518 202.875Z" fill="url(#paint44_radial)"/>
<path d="M534.653 214.01L533.495 215.072L533.849 216.617L535.361 217.1L536.52 216.006L536.166 214.493L534.653 214.01Z" fill="url(#paint45_radial)"/>
<path d="M520.203 209.15L520.139 210.695L521.49 211.564L522.874 210.824L522.939 209.247L521.619 208.41L520.203 209.15Z" fill="url(#paint46_radial)"/>
<path d="M535.973 209.15L535.908 210.695L537.26 211.564L538.644 210.824L538.708 209.247L537.389 208.41L535.973 209.15Z" fill="url(#paint47_radial)"/>
<path d="M522.327 215.909L523.389 217.068L524.934 216.714L525.384 215.201L524.322 214.042L522.778 214.396L522.327 215.909Z" fill="url(#paint48_radial)"/>
<path d="M533.462 204.741L534.524 205.9L536.069 205.546L536.552 204.066L535.458 202.907L533.945 203.229L533.462 204.741Z" fill="url(#paint49_radial)"/>
<path d="M160.952 164.292L156.39 171.896C156.368 171.932 156.394 171.978 156.436 171.978H165.561C165.603 171.978 165.629 171.932 165.607 171.896L161.045 164.292C161.024 164.257 160.973 164.257 160.952 164.292Z" fill="#FF0000" stroke="black" stroke-width="0.107947"/>
<path d="M568.937 164.292L564.374 171.896C564.353 171.932 564.379 171.978 564.421 171.978H573.546C573.588 171.978 573.614 171.932 573.592 171.896L569.029 164.292C569.009 164.257 568.958 164.257 568.937 164.292Z" fill="#FF0000" stroke="black" stroke-width="0.107947"/>
<path fill-rule="evenodd" clip-rule="evenodd" d="M297.568 204.86H273.658L278.893 198.14V176.848H563.414V187.669H569V198.14H563.414V210.824H556.672C556.687 210.457 556.694 210.088 556.694 209.717C556.694 194.664 544.491 182.461 529.438 182.461C514.384 182.461 502.181 194.664 502.181 209.717C502.181 210.088 502.188 210.457 502.203 210.824H495.25C495.265 210.457 495.272 210.088 495.272 209.717C495.272 194.664 483.069 182.461 468.016 182.461C452.963 182.461 440.759 194.664 440.759 209.717C440.759 210.088 440.767 210.457 440.781 210.824H433.829C433.843 210.457 433.851 210.088 433.851 209.717C433.851 194.664 421.648 182.461 406.594 182.461C391.541 182.461 379.338 194.664 379.338 209.717C379.338 210.088 379.345 210.457 379.36 210.824H375.236V187.669H367.76V210.824H303.91V187.669H290.848V198.14L297.568 204.86ZM365.089 187.966H306.258V208.422H365.089V187.966Z" fill="#B8B8B8"/>
<path d="M273.658 204.86L273.488 204.727L273.216 205.076H273.658V204.86ZM297.568 204.86V205.076H298.089L297.721 204.707L297.568 204.86ZM278.893 198.14L279.064 198.273L279.109 198.214V198.14H278.893ZM278.893 176.848V176.632H278.677V176.848H278.893ZM563.414 176.848H563.63V176.632H563.414V176.848ZM563.414 187.669H563.198V187.885H563.414V187.669ZM569 187.669H569.216V187.453H569V187.669ZM569 198.14V198.356H569.216V198.14H569ZM563.414 198.14V197.924H563.198V198.14H563.414ZM563.414 210.824V211.04H563.63V210.824H563.414ZM556.672 210.824L556.456 210.815L556.447 211.04H556.672V210.824ZM502.203 210.824V211.04H502.428L502.419 210.815L502.203 210.824ZM495.25 210.824L495.035 210.815L495.026 211.04H495.25V210.824ZM440.781 210.824V211.04H441.006L440.997 210.815L440.781 210.824ZM433.829 210.824L433.613 210.815L433.604 211.04H433.829V210.824ZM379.36 210.824V211.04H379.584L379.575 210.815L379.36 210.824ZM375.236 210.824H375.02V211.04H375.236V210.824ZM375.236 187.669H375.452V187.453H375.236V187.669ZM367.76 187.669V187.453H367.545V187.669H367.76ZM367.76 210.824V211.04H367.976V210.824H367.76ZM303.91 210.824H303.694V211.04H303.91V210.824ZM303.91 187.669H304.126V187.453H303.91V187.669ZM290.848 187.669V187.453H290.633V187.669H290.848ZM290.848 198.14H290.633V198.23L290.696 198.293L290.848 198.14ZM306.258 187.966V187.75H306.042V187.966H306.258ZM365.089 187.966H365.305V187.75H365.089V187.966ZM306.258 208.422H306.042V208.638H306.258V208.422ZM365.089 208.422V208.638H365.305V208.422H365.089ZM273.658 205.076H297.568V204.644H273.658V205.076ZM278.723 198.007L273.488 204.727L273.828 204.993L279.064 198.273L278.723 198.007ZM278.677 176.848V198.14H279.109V176.848H278.677ZM563.414 176.632H278.893V177.064H563.414V176.632ZM563.63 187.669V176.848H563.198V187.669H563.63ZM569 187.453H563.414V187.885H569V187.453ZM569.216 198.14V187.669H568.784V198.14H569.216ZM563.414 198.356H569V197.924H563.414V198.356ZM563.63 210.824V198.14H563.198V210.824H563.63ZM556.672 211.04H563.414V210.608H556.672V211.04ZM556.478 209.717C556.478 210.085 556.471 210.451 556.456 210.815L556.888 210.832C556.903 210.463 556.91 210.091 556.91 209.717H556.478ZM529.438 182.677C544.372 182.677 556.478 194.783 556.478 209.717H556.91C556.91 194.545 544.61 182.245 529.438 182.245V182.677ZM502.397 209.717C502.397 194.783 514.503 182.677 529.438 182.677V182.245C514.265 182.245 501.965 194.545 501.965 209.717H502.397ZM502.419 210.815C502.404 210.451 502.397 210.085 502.397 209.717H501.965C501.965 210.091 501.973 210.463 501.987 210.832L502.419 210.815ZM495.25 211.04H502.203V210.608H495.25V211.04ZM495.057 209.717C495.057 210.085 495.049 210.451 495.035 210.815L495.466 210.832C495.481 210.463 495.488 210.091 495.488 209.717H495.057ZM468.016 182.677C482.95 182.677 495.057 194.783 495.057 209.717H495.488C495.488 194.545 483.188 182.245 468.016 182.245V182.677ZM440.975 209.717C440.975 194.783 453.082 182.677 468.016 182.677V182.245C452.843 182.245 440.543 194.545 440.543 209.717H440.975ZM440.997 210.815C440.983 210.451 440.975 210.085 440.975 209.717H440.543C440.543 210.091 440.551 210.463 440.566 210.832L440.997 210.815ZM433.829 211.04H440.781V210.608H433.829V211.04ZM433.635 209.717C433.635 210.085 433.628 210.451 433.613 210.815L434.044 210.832C434.059 210.463 434.067 210.091 434.067 209.717H433.635ZM406.594 182.677C421.528 182.677 433.635 194.783 433.635 209.717H434.067C434.067 194.545 421.767 182.245 406.594 182.245V182.677ZM379.554 209.717C379.554 194.783 391.66 182.677 406.594 182.677V182.245C391.422 182.245 379.122 194.545 379.122 209.717H379.554ZM379.575 210.815C379.561 210.451 379.554 210.085 379.554 209.717H379.122C379.122 210.091 379.129 210.463 379.144 210.832L379.575 210.815ZM375.236 211.04H379.36V210.608H375.236V211.04ZM375.02 187.669V210.824H375.452V187.669H375.02ZM367.76 187.885H375.236V187.453H367.76V187.885ZM367.976 210.824V187.669H367.545V210.824H367.976ZM303.91 211.04H367.76V210.608H303.91V211.04ZM303.694 187.669V210.824H304.126V187.669H303.694ZM290.848 187.885H303.91V187.453H290.848V187.885ZM291.064 198.14V187.669H290.633V198.14H291.064ZM297.721 204.707L291.001 197.987L290.696 198.293L297.415 205.012L297.721 204.707ZM306.258 188.182H365.089V187.75H306.258V188.182ZM306.474 208.422V187.966H306.042V208.422H306.474ZM365.089 208.206H306.258V208.638H365.089V208.206ZM364.873 187.966V208.422H365.305V187.966H364.873Z" fill="black"/>
<mask id="path-63-inside-1" fill="white">
<path fill-rule="evenodd" clip-rule="evenodd" d="M354.945 187.966H315.389V188.146C310.398 188.746 306.528 193.04 306.528 198.248C306.528 203.456 310.398 207.75 315.389 208.35V208.422H316.59H354.918H354.945V208.422C360.49 208.407 364.981 203.858 364.981 198.248C364.981 192.638 360.49 188.089 354.945 188.074V187.966Z"/>
</mask>
<path fill-rule="evenodd" clip-rule="evenodd" d="M354.945 187.966H315.389V188.146C310.398 188.746 306.528 193.04 306.528 198.248C306.528 203.456 310.398 207.75 315.389 208.35V208.422H316.59H354.918H354.945V208.422C360.49 208.407 364.981 203.858 364.981 198.248C364.981 192.638 360.49 188.089 354.945 188.074V187.966Z" fill="#B8B8B8"/>
<path d="M315.389 187.966V187.75H315.173V187.966H315.389ZM354.945 187.966H355.161V187.75H354.945V187.966ZM315.389 188.146L315.415 188.36L315.605 188.337V188.146H315.389ZM315.389 208.35H315.605V208.159L315.415 208.136L315.389 208.35ZM315.389 208.422H315.173V208.638H315.389V208.422ZM354.945 208.422V208.638H355.161V208.422H354.945ZM354.945 208.422L354.944 208.206L354.729 208.207V208.422H354.945ZM354.945 188.074H354.729V188.289L354.944 188.29L354.945 188.074ZM315.389 188.182H354.945V187.75H315.389V188.182ZM315.605 188.146V187.966H315.173V188.146H315.605ZM315.363 187.932C310.263 188.545 306.312 192.931 306.312 198.248H306.744C306.744 193.149 310.533 188.947 315.415 188.36L315.363 187.932ZM306.312 198.248C306.312 203.565 310.263 207.951 315.363 208.565L315.415 208.136C310.533 207.549 306.744 203.347 306.744 198.248H306.312ZM315.605 208.422V208.35H315.173V208.422H315.605ZM316.59 208.206H315.389V208.638H316.59V208.206ZM354.918 208.206H316.59V208.638H354.918V208.206ZM354.945 208.206H354.918V208.638H354.945V208.206ZM354.729 208.422V208.422H355.161V208.422H354.729ZM354.946 208.638C360.612 208.623 365.197 203.975 365.197 198.248H364.765C364.765 203.741 360.368 208.192 354.944 208.206L354.946 208.638ZM365.197 198.248C365.197 192.521 360.612 187.873 354.946 187.858L354.944 188.29C360.368 188.304 364.765 192.755 364.765 198.248H365.197ZM354.729 187.966V188.074H355.161V187.966H354.729Z" fill="black" mask="url(#path-63-inside-1)"/>
<ellipse opacity="0.5" cx="168.5" cy="236" rx="105.5" ry="5" fill="#403F45" fill-opacity="0.72"/>
<ellipse opacity="0.5" cx="447.5" cy="236" rx="126.5" ry="5" fill="#403F45" fill-opacity="0.72"/>
<path d="M254.24 189.172C254.22 189.139 254.172 189.139 254.152 189.172L249.833 196.372C249.812 196.406 249.837 196.449 249.877 196.449H258.516C258.555 196.449 258.58 196.406 258.56 196.372L254.24 189.172Z" fill="#FF0000" stroke="black" stroke-width="0.102197"/>
<rect x="1" y="1" width="630" height="344" stroke="#C4C4C4" stroke-width="2"/>
</g>
<defs>
<filter id="filter0_d" x="0" y="0" width="640" height="354" filterUnits="userSpaceOnUse" color-interpolation-filters="sRGB">
<feFlood flood-opacity="0" result="BackgroundImageFix"/>
<feColorMatrix in="SourceAlpha" type="matrix" values="0 0 0 0 0 0 0 0 0 0 0 0 0 0 0 0 0 0 127 0"/>
<feOffset dx="4" dy="4"/>
<feGaussianBlur stdDeviation="2"/>
<feColorMatrix type="matrix" values="0 0 0 0 0 0 0 0 0 0 0 0 0 0 0 0 0 0 0.25 0"/>
<feBlend mode="normal" in2="BackgroundImageFix" result="effect1_dropShadow"/>
<feBlend mode="normal" in="SourceGraphic" in2="effect1_dropShadow" result="shape"/>
</filter>
<radialGradient id="paint0_radial" cx="0" cy="0" r="1" gradientUnits="userSpaceOnUse" gradientTransform="translate(112.477 209.971) scale(24.2179)">
<stop offset="0.7777" stop-color="#1A1A1A"/>
<stop offset="0.8882" stop-color="#333333"/>
<stop offset="1"/>
</radialGradient>
<radialGradient id="paint1_radial" cx="0" cy="0" r="1" gradientUnits="userSpaceOnUse" gradientTransform="translate(112.397 209.891) scale(18.1836)">
<stop stop-color="#8D8C8C"/>
<stop offset="0.0810056" stop-color="#898989"/>
<stop offset="0.1659" stop-color="#808080"/>
<stop offset="0.2687" stop-color="#868686"/>
<stop offset="0.3295" stop-color="#A4A4A4"/>
<stop offset="0.3447" stop-color="#ACACAC"/>
<stop offset="0.5274" stop-color="#B3B3B3"/>
<stop offset="0.5715" stop-color="#A4A4A4"/>
<stop offset="0.6558" stop-color="#7D7D7D"/>
<stop offset="0.7012" stop-color="#666666"/>
<stop offset="0.7387" stop-color="#6F6F70"/>
<stop offset="0.8018" stop-color="#88898A"/>
<stop offset="0.8676" stop-color="#A8AAAC"/>
<stop offset="0.927" stop-color="#7E8486"/>
<stop offset="1" stop-color="#465053"/>
</radialGradient>
<radialGradient id="paint2_radial" cx="0" cy="0" r="1" gradientUnits="userSpaceOnUse" gradientTransform="translate(112.272 202.081) rotate(2.29628) scale(1.47197)">
<stop offset="0.00561773" stop-color="#534741"/>
<stop offset="0.1684" stop-color="#5C5450"/>
<stop offset="0.4792" stop-color="#737577"/>
<stop offset="0.6742" stop-color="#838C92"/>
<stop offset="0.9793" stop-color="#333333"/>
<stop offset="0.9852" stop-color="#3E4042"/>
<stop offset="0.9965" stop-color="#5B6469"/>
<stop offset="1" stop-color="#657076"/>
</radialGradient>
<radialGradient id="paint3_radial" cx="0" cy="0" r="1" gradientUnits="userSpaceOnUse" gradientTransform="translate(112.272 217.851) rotate(2.29628) scale(1.47197)">
<stop offset="0.00561773" stop-color="#534741"/>
<stop offset="0.1684" stop-color="#5C5450"/>
<stop offset="0.4792" stop-color="#737577"/>
<stop offset="0.6742" stop-color="#838C92"/>
<stop offset="0.9793" stop-color="#333333"/>
<stop offset="0.9852" stop-color="#3E4042"/>
<stop offset="0.9965" stop-color="#5B6469"/>
<stop offset="1" stop-color="#657076"/>
</radialGradient>
<radialGradient id="paint4_radial" cx="0" cy="0" r="1" gradientUnits="userSpaceOnUse" gradientTransform="translate(106.586 204.402) rotate(-42.7023) scale(1.47199)">
<stop offset="0.00561773" stop-color="#534741"/>
<stop offset="0.1684" stop-color="#5C5450"/>
<stop offset="0.4792" stop-color="#737577"/>
<stop offset="0.6742" stop-color="#838C92"/>
<stop offset="0.9793" stop-color="#333333"/>
<stop offset="0.9852" stop-color="#3E4042"/>
<stop offset="0.9965" stop-color="#5B6469"/>
<stop offset="1" stop-color="#657076"/>
</radialGradient>
<radialGradient id="paint5_radial" cx="0" cy="0" r="1" gradientUnits="userSpaceOnUse" gradientTransform="translate(117.737 215.553) rotate(-42.7022) scale(1.47199)">
<stop offset="0.00561773" stop-color="#534741"/>
<stop offset="0.1684" stop-color="#5C5450"/>
<stop offset="0.4792" stop-color="#737577"/>
<stop offset="0.6742" stop-color="#838C92"/>
<stop offset="0.9793" stop-color="#333333"/>
<stop offset="0.9852" stop-color="#3E4042"/>
<stop offset="0.9965" stop-color="#5B6469"/>
<stop offset="1" stop-color="#657076"/>
</radialGradient>
<radialGradient id="paint6_radial" cx="0" cy="0" r="1" gradientUnits="userSpaceOnUse" gradientTransform="translate(104.276 209.976) rotate(-87.7037) scale(1.47197)">
<stop offset="0.00561773" stop-color="#534741"/>
<stop offset="0.1684" stop-color="#5C5450"/>
<stop offset="0.4792" stop-color="#737577"/>
<stop offset="0.6742" stop-color="#838C92"/>
<stop offset="0.9793" stop-color="#333333"/>
<stop offset="0.9852" stop-color="#3E4042"/>
<stop offset="0.9965" stop-color="#5B6469"/>
<stop offset="1" stop-color="#657076"/>
</radialGradient>
<radialGradient id="paint7_radial" cx="0" cy="0" r="1" gradientUnits="userSpaceOnUse" gradientTransform="translate(120.046 209.976) rotate(-87.7037) scale(1.47197)">
<stop offset="0.00561773" stop-color="#534741"/>
<stop offset="0.1684" stop-color="#5C5450"/>
<stop offset="0.4792" stop-color="#737577"/>
<stop offset="0.6742" stop-color="#838C92"/>
<stop offset="0.9793" stop-color="#333333"/>
<stop offset="0.9852" stop-color="#3E4042"/>
<stop offset="0.9965" stop-color="#5B6469"/>
<stop offset="1" stop-color="#657076"/>
</radialGradient>
<radialGradient id="paint8_radial" cx="0" cy="0" r="1" gradientUnits="userSpaceOnUse" gradientTransform="translate(106.586 215.551) rotate(-132.702) scale(1.47199)">
<stop offset="0.00561773" stop-color="#534741"/>
<stop offset="0.1684" stop-color="#5C5450"/>
<stop offset="0.4792" stop-color="#737577"/>
<stop offset="0.6742" stop-color="#838C92"/>
<stop offset="0.9793" stop-color="#333333"/>
<stop offset="0.9852" stop-color="#3E4042"/>
<stop offset="0.9965" stop-color="#5B6469"/>
<stop offset="1" stop-color="#657076"/>
</radialGradient>
<radialGradient id="paint9_radial" cx="0" cy="0" r="1" gradientUnits="userSpaceOnUse" gradientTransform="translate(117.737 204.4) rotate(-132.702) scale(1.47199)">
<stop offset="0.00561773" stop-color="#534741"/>
<stop offset="0.1684" stop-color="#5C5450"/>
<stop offset="0.4792" stop-color="#737577"/>
<stop offset="0.6742" stop-color="#838C92"/>
<stop offset="0.9793" stop-color="#333333"/>
<stop offset="0.9852" stop-color="#3E4042"/>
<stop offset="0.9965" stop-color="#5B6469"/>
<stop offset="1" stop-color="#657076"/>
</radialGradient>
<radialGradient id="paint10_radial" cx="0" cy="0" r="1" gradientUnits="userSpaceOnUse" gradientTransform="translate(224.472 209.971) scale(24.2179)">
<stop offset="0.7777" stop-color="#1A1A1A"/>
<stop offset="0.8882" stop-color="#333333"/>
<stop offset="1"/>
</radialGradient>
<radialGradient id="paint11_radial" cx="0" cy="0" r="1" gradientUnits="userSpaceOnUse" gradientTransform="translate(224.392 209.891) scale(18.1836)">
<stop stop-color="#8D8C8C"/>
<stop offset="0.0810056" stop-color="#898989"/>
<stop offset="0.1659" stop-color="#808080"/>
<stop offset="0.2687" stop-color="#868686"/>
<stop offset="0.3295" stop-color="#A4A4A4"/>
<stop offset="0.3447" stop-color="#ACACAC"/>
<stop offset="0.5274" stop-color="#B3B3B3"/>
<stop offset="0.5715" stop-color="#A4A4A4"/>
<stop offset="0.6558" stop-color="#7D7D7D"/>
<stop offset="0.7012" stop-color="#666666"/>
<stop offset="0.7387" stop-color="#6F6F70"/>
<stop offset="0.8018" stop-color="#88898A"/>
<stop offset="0.8676" stop-color="#A8AAAC"/>
<stop offset="0.927" stop-color="#7E8486"/>
<stop offset="1" stop-color="#465053"/>
</radialGradient>
<radialGradient id="paint12_radial" cx="0" cy="0" r="1" gradientUnits="userSpaceOnUse" gradientTransform="translate(224.266 202.081) rotate(2.29628) scale(1.47197)">
<stop offset="0.00561773" stop-color="#534741"/>
<stop offset="0.1684" stop-color="#5C5450"/>
<stop offset="0.4792" stop-color="#737577"/>
<stop offset="0.6742" stop-color="#838C92"/>
<stop offset="0.9793" stop-color="#333333"/>
<stop offset="0.9852" stop-color="#3E4042"/>
<stop offset="0.9965" stop-color="#5B6469"/>
<stop offset="1" stop-color="#657076"/>
</radialGradient>
<radialGradient id="paint13_radial" cx="0" cy="0" r="1" gradientUnits="userSpaceOnUse" gradientTransform="translate(224.266 217.851) rotate(2.29628) scale(1.47197)">
<stop offset="0.00561773" stop-color="#534741"/>
<stop offset="0.1684" stop-color="#5C5450"/>
<stop offset="0.4792" stop-color="#737577"/>
<stop offset="0.6742" stop-color="#838C92"/>
<stop offset="0.9793" stop-color="#333333"/>
<stop offset="0.9852" stop-color="#3E4042"/>
<stop offset="0.9965" stop-color="#5B6469"/>
<stop offset="1" stop-color="#657076"/>
</radialGradient>
<radialGradient id="paint14_radial" cx="0" cy="0" r="1" gradientUnits="userSpaceOnUse" gradientTransform="translate(218.581 204.402) rotate(-42.7023) scale(1.47199)">
<stop offset="0.00561773" stop-color="#534741"/>
<stop offset="0.1684" stop-color="#5C5450"/>
<stop offset="0.4792" stop-color="#737577"/>
<stop offset="0.6742" stop-color="#838C92"/>
<stop offset="0.9793" stop-color="#333333"/>
<stop offset="0.9852" stop-color="#3E4042"/>
<stop offset="0.9965" stop-color="#5B6469"/>
<stop offset="1" stop-color="#657076"/>
</radialGradient>
<radialGradient id="paint15_radial" cx="0" cy="0" r="1" gradientUnits="userSpaceOnUse" gradientTransform="translate(229.731 215.553) rotate(-42.7022) scale(1.47199)">
<stop offset="0.00561773" stop-color="#534741"/>
<stop offset="0.1684" stop-color="#5C5450"/>
<stop offset="0.4792" stop-color="#737577"/>
<stop offset="0.6742" stop-color="#838C92"/>
<stop offset="0.9793" stop-color="#333333"/>
<stop offset="0.9852" stop-color="#3E4042"/>
<stop offset="0.9965" stop-color="#5B6469"/>
<stop offset="1" stop-color="#657076"/>
</radialGradient>
<radialGradient id="paint16_radial" cx="0" cy="0" r="1" gradientUnits="userSpaceOnUse" gradientTransform="translate(216.271 209.976) rotate(-87.7037) scale(1.47197)">
<stop offset="0.00561773" stop-color="#534741"/>
<stop offset="0.1684" stop-color="#5C5450"/>
<stop offset="0.4792" stop-color="#737577"/>
<stop offset="0.6742" stop-color="#838C92"/>
<stop offset="0.9793" stop-color="#333333"/>
<stop offset="0.9852" stop-color="#3E4042"/>
<stop offset="0.9965" stop-color="#5B6469"/>
<stop offset="1" stop-color="#657076"/>
</radialGradient>
<radialGradient id="paint17_radial" cx="0" cy="0" r="1" gradientUnits="userSpaceOnUse" gradientTransform="translate(232.04 209.976) rotate(-87.7037) scale(1.47197)">
<stop offset="0.00561773" stop-color="#534741"/>
<stop offset="0.1684" stop-color="#5C5450"/>
<stop offset="0.4792" stop-color="#737577"/>
<stop offset="0.6742" stop-color="#838C92"/>
<stop offset="0.9793" stop-color="#333333"/>
<stop offset="0.9852" stop-color="#3E4042"/>
<stop offset="0.9965" stop-color="#5B6469"/>
<stop offset="1" stop-color="#657076"/>
</radialGradient>
<radialGradient id="paint18_radial" cx="0" cy="0" r="1" gradientUnits="userSpaceOnUse" gradientTransform="translate(218.581 215.551) rotate(-132.702) scale(1.47199)">
<stop offset="0.00561773" stop-color="#534741"/>
<stop offset="0.1684" stop-color="#5C5450"/>
<stop offset="0.4792" stop-color="#737577"/>
<stop offset="0.6742" stop-color="#838C92"/>
<stop offset="0.9793" stop-color="#333333"/>
<stop offset="0.9852" stop-color="#3E4042"/>
<stop offset="0.9965" stop-color="#5B6469"/>
<stop offset="1" stop-color="#657076"/>
</radialGradient>
<radialGradient id="paint19_radial" cx="0" cy="0" r="1" gradientUnits="userSpaceOnUse" gradientTransform="translate(229.732 204.4) rotate(-132.702) scale(1.47199)">
<stop offset="0.00561773" stop-color="#534741"/>
<stop offset="0.1684" stop-color="#5C5450"/>
<stop offset="0.4792" stop-color="#737577"/>
<stop offset="0.6742" stop-color="#838C92"/>
<stop offset="0.9793" stop-color="#333333"/>
<stop offset="0.9852" stop-color="#3E4042"/>
<stop offset="0.9965" stop-color="#5B6469"/>
<stop offset="1" stop-color="#657076"/>
</radialGradient>
<radialGradient id="paint20_radial" cx="0" cy="0" r="1" gradientUnits="userSpaceOnUse" gradientTransform="translate(406.686 209.971) scale(24.2179)">
<stop offset="0.7777" stop-color="#1A1A1A"/>
<stop offset="0.8882" stop-color="#333333"/>
<stop offset="1"/>
</radialGradient>
<radialGradient id="paint21_radial" cx="0" cy="0" r="1" gradientUnits="userSpaceOnUse" gradientTransform="translate(406.606 209.891) scale(18.1836)">
<stop stop-color="#8D8C8C"/>
<stop offset="0.0810056" stop-color="#898989"/>
<stop offset="0.1659" stop-color="#808080"/>
<stop offset="0.2687" stop-color="#868686"/>
<stop offset="0.3295" stop-color="#A4A4A4"/>
<stop offset="0.3447" stop-color="#ACACAC"/>
<stop offset="0.5274" stop-color="#B3B3B3"/>
<stop offset="0.5715" stop-color="#A4A4A4"/>
<stop offset="0.6558" stop-color="#7D7D7D"/>
<stop offset="0.7012" stop-color="#666666"/>
<stop offset="0.7387" stop-color="#6F6F70"/>
<stop offset="0.8018" stop-color="#88898A"/>
<stop offset="0.8676" stop-color="#A8AAAC"/>
<stop offset="0.927" stop-color="#7E8486"/>
<stop offset="1" stop-color="#465053"/>
</radialGradient>
<radialGradient id="paint22_radial" cx="0" cy="0" r="1" gradientUnits="userSpaceOnUse" gradientTransform="translate(406.48 202.081) rotate(2.29628) scale(1.47197)">
<stop offset="0.00561773" stop-color="#534741"/>
<stop offset="0.1684" stop-color="#5C5450"/>
<stop offset="0.4792" stop-color="#737577"/>
<stop offset="0.6742" stop-color="#838C92"/>
<stop offset="0.9793" stop-color="#333333"/>
<stop offset="0.9852" stop-color="#3E4042"/>
<stop offset="0.9965" stop-color="#5B6469"/>
<stop offset="1" stop-color="#657076"/>
</radialGradient>
<radialGradient id="paint23_radial" cx="0" cy="0" r="1" gradientUnits="userSpaceOnUse" gradientTransform="translate(406.48 217.851) rotate(2.29628) scale(1.47197)">
<stop offset="0.00561773" stop-color="#534741"/>
<stop offset="0.1684" stop-color="#5C5450"/>
<stop offset="0.4792" stop-color="#737577"/>
<stop offset="0.6742" stop-color="#838C92"/>
<stop offset="0.9793" stop-color="#333333"/>
<stop offset="0.9852" stop-color="#3E4042"/>
<stop offset="0.9965" stop-color="#5B6469"/>
<stop offset="1" stop-color="#657076"/>
</radialGradient>
<radialGradient id="paint24_radial" cx="0" cy="0" r="1" gradientUnits="userSpaceOnUse" gradientTransform="translate(400.795 204.402) rotate(-42.7023) scale(1.47199)">
<stop offset="0.00561773" stop-color="#534741"/>
<stop offset="0.1684" stop-color="#5C5450"/>
<stop offset="0.4792" stop-color="#737577"/>
<stop offset="0.6742" stop-color="#838C92"/>
<stop offset="0.9793" stop-color="#333333"/>
<stop offset="0.9852" stop-color="#3E4042"/>
<stop offset="0.9965" stop-color="#5B6469"/>
<stop offset="1" stop-color="#657076"/>
</radialGradient>
<radialGradient id="paint25_radial" cx="0" cy="0" r="1" gradientUnits="userSpaceOnUse" gradientTransform="translate(411.945 215.553) rotate(-42.7023) scale(1.47199)">
<stop offset="0.00561773" stop-color="#534741"/>
<stop offset="0.1684" stop-color="#5C5450"/>
<stop offset="0.4792" stop-color="#737577"/>
<stop offset="0.6742" stop-color="#838C92"/>
<stop offset="0.9793" stop-color="#333333"/>
<stop offset="0.9852" stop-color="#3E4042"/>
<stop offset="0.9965" stop-color="#5B6469"/>
<stop offset="1" stop-color="#657076"/>
</radialGradient>
<radialGradient id="paint26_radial" cx="0" cy="0" r="1" gradientUnits="userSpaceOnUse" gradientTransform="translate(398.485 209.976) rotate(-87.7037) scale(1.47197)">
<stop offset="0.00561773" stop-color="#534741"/>
<stop offset="0.1684" stop-color="#5C5450"/>
<stop offset="0.4792" stop-color="#737577"/>
<stop offset="0.6742" stop-color="#838C92"/>
<stop offset="0.9793" stop-color="#333333"/>
<stop offset="0.9852" stop-color="#3E4042"/>
<stop offset="0.9965" stop-color="#5B6469"/>
<stop offset="1" stop-color="#657076"/>
</radialGradient>
<radialGradient id="paint27_radial" cx="0" cy="0" r="1" gradientUnits="userSpaceOnUse" gradientTransform="translate(414.254 209.976) rotate(-87.7037) scale(1.47197)">
<stop offset="0.00561773" stop-color="#534741"/>
<stop offset="0.1684" stop-color="#5C5450"/>
<stop offset="0.4792" stop-color="#737577"/>
<stop offset="0.6742" stop-color="#838C92"/>
<stop offset="0.9793" stop-color="#333333"/>
<stop offset="0.9852" stop-color="#3E4042"/>
<stop offset="0.9965" stop-color="#5B6469"/>
<stop offset="1" stop-color="#657076"/>
</radialGradient>
<radialGradient id="paint28_radial" cx="0" cy="0" r="1" gradientUnits="userSpaceOnUse" gradientTransform="translate(400.795 215.551) rotate(-132.702) scale(1.47199)">
<stop offset="0.00561773" stop-color="#534741"/>
<stop offset="0.1684" stop-color="#5C5450"/>
<stop offset="0.4792" stop-color="#737577"/>
<stop offset="0.6742" stop-color="#838C92"/>
<stop offset="0.9793" stop-color="#333333"/>
<stop offset="0.9852" stop-color="#3E4042"/>
<stop offset="0.9965" stop-color="#5B6469"/>
<stop offset="1" stop-color="#657076"/>
</radialGradient>
<radialGradient id="paint29_radial" cx="0" cy="0" r="1" gradientUnits="userSpaceOnUse" gradientTransform="translate(411.946 204.4) rotate(-132.702) scale(1.47199)">
<stop offset="0.00561773" stop-color="#534741"/>
<stop offset="0.1684" stop-color="#5C5450"/>
<stop offset="0.4792" stop-color="#737577"/>
<stop offset="0.6742" stop-color="#838C92"/>
<stop offset="0.9793" stop-color="#333333"/>
<stop offset="0.9852" stop-color="#3E4042"/>
<stop offset="0.9965" stop-color="#5B6469"/>
<stop offset="1" stop-color="#657076"/>
</radialGradient>
<radialGradient id="paint30_radial" cx="0" cy="0" r="1" gradientUnits="userSpaceOnUse" gradientTransform="translate(468.162 209.971) scale(24.2179)">
<stop offset="0.7777" stop-color="#1A1A1A"/>
<stop offset="0.8882" stop-color="#333333"/>
<stop offset="1"/>
</radialGradient>
<radialGradient id="paint31_radial" cx="0" cy="0" r="1" gradientUnits="userSpaceOnUse" gradientTransform="translate(468.081 209.891) scale(18.1836)">
<stop stop-color="#8D8C8C"/>
<stop offset="0.0810056" stop-color="#898989"/>
<stop offset="0.1659" stop-color="#808080"/>
<stop offset="0.2687" stop-color="#868686"/>
<stop offset="0.3295" stop-color="#A4A4A4"/>
<stop offset="0.3447" stop-color="#ACACAC"/>
<stop offset="0.5274" stop-color="#B3B3B3"/>
<stop offset="0.5715" stop-color="#A4A4A4"/>
<stop offset="0.6558" stop-color="#7D7D7D"/>
<stop offset="0.7012" stop-color="#666666"/>
<stop offset="0.7387" stop-color="#6F6F70"/>
<stop offset="0.8018" stop-color="#88898A"/>
<stop offset="0.8676" stop-color="#A8AAAC"/>
<stop offset="0.927" stop-color="#7E8486"/>
<stop offset="1" stop-color="#465053"/>
</radialGradient>
<radialGradient id="paint32_radial" cx="0" cy="0" r="1" gradientUnits="userSpaceOnUse" gradientTransform="translate(467.956 202.081) rotate(2.29628) scale(1.47197)">
<stop offset="0.00561773" stop-color="#534741"/>
<stop offset="0.1684" stop-color="#5C5450"/>
<stop offset="0.4792" stop-color="#737577"/>
<stop offset="0.6742" stop-color="#838C92"/>
<stop offset="0.9793" stop-color="#333333"/>
<stop offset="0.9852" stop-color="#3E4042"/>
<stop offset="0.9965" stop-color="#5B6469"/>
<stop offset="1" stop-color="#657076"/>
</radialGradient>
<radialGradient id="paint33_radial" cx="0" cy="0" r="1" gradientUnits="userSpaceOnUse" gradientTransform="translate(467.956 217.851) rotate(2.29628) scale(1.47197)">
<stop offset="0.00561773" stop-color="#534741"/>
<stop offset="0.1684" stop-color="#5C5450"/>
<stop offset="0.4792" stop-color="#737577"/>
<stop offset="0.6742" stop-color="#838C92"/>
<stop offset="0.9793" stop-color="#333333"/>
<stop offset="0.9852" stop-color="#3E4042"/>
<stop offset="0.9965" stop-color="#5B6469"/>
<stop offset="1" stop-color="#657076"/>
</radialGradient>
<radialGradient id="paint34_radial" cx="0" cy="0" r="1" gradientUnits="userSpaceOnUse" gradientTransform="translate(462.27 204.402) rotate(-42.7023) scale(1.47199)">
<stop offset="0.00561773" stop-color="#534741"/>
<stop offset="0.1684" stop-color="#5C5450"/>
<stop offset="0.4792" stop-color="#737577"/>
<stop offset="0.6742" stop-color="#838C92"/>
<stop offset="0.9793" stop-color="#333333"/>
<stop offset="0.9852" stop-color="#3E4042"/>
<stop offset="0.9965" stop-color="#5B6469"/>
<stop offset="1" stop-color="#657076"/>
</radialGradient>
<radialGradient id="paint35_radial" cx="0" cy="0" r="1" gradientUnits="userSpaceOnUse" gradientTransform="translate(473.421 215.553) rotate(-42.7023) scale(1.47199)">
<stop offset="0.00561773" stop-color="#534741"/>
<stop offset="0.1684" stop-color="#5C5450"/>
<stop offset="0.4792" stop-color="#737577"/>
<stop offset="0.6742" stop-color="#838C92"/>
<stop offset="0.9793" stop-color="#333333"/>
<stop offset="0.9852" stop-color="#3E4042"/>
<stop offset="0.9965" stop-color="#5B6469"/>
<stop offset="1" stop-color="#657076"/>
</radialGradient>
<radialGradient id="paint36_radial" cx="0" cy="0" r="1" gradientUnits="userSpaceOnUse" gradientTransform="translate(459.96 209.976) rotate(-87.7037) scale(1.47197)">
<stop offset="0.00561773" stop-color="#534741"/>
<stop offset="0.1684" stop-color="#5C5450"/>
<stop offset="0.4792" stop-color="#737577"/>
<stop offset="0.6742" stop-color="#838C92"/>
<stop offset="0.9793" stop-color="#333333"/>
<stop offset="0.9852" stop-color="#3E4042"/>
<stop offset="0.9965" stop-color="#5B6469"/>
<stop offset="1" stop-color="#657076"/>
</radialGradient>
<radialGradient id="paint37_radial" cx="0" cy="0" r="1" gradientUnits="userSpaceOnUse" gradientTransform="translate(475.73 209.976) rotate(-87.7037) scale(1.47197)">
<stop offset="0.00561773" stop-color="#534741"/>
<stop offset="0.1684" stop-color="#5C5450"/>
<stop offset="0.4792" stop-color="#737577"/>
<stop offset="0.6742" stop-color="#838C92"/>
<stop offset="0.9793" stop-color="#333333"/>
<stop offset="0.9852" stop-color="#3E4042"/>
<stop offset="0.9965" stop-color="#5B6469"/>
<stop offset="1" stop-color="#657076"/>
</radialGradient>
<radialGradient id="paint38_radial" cx="0" cy="0" r="1" gradientUnits="userSpaceOnUse" gradientTransform="translate(462.27 215.551) rotate(-132.702) scale(1.47199)">
<stop offset="0.00561773" stop-color="#534741"/>
<stop offset="0.1684" stop-color="#5C5450"/>
<stop offset="0.4792" stop-color="#737577"/>
<stop offset="0.6742" stop-color="#838C92"/>
<stop offset="0.9793" stop-color="#333333"/>
<stop offset="0.9852" stop-color="#3E4042"/>
<stop offset="0.9965" stop-color="#5B6469"/>
<stop offset="1" stop-color="#657076"/>
</radialGradient>
<radialGradient id="paint39_radial" cx="0" cy="0" r="1" gradientUnits="userSpaceOnUse" gradientTransform="translate(473.422 204.4) rotate(-132.702) scale(1.47199)">
<stop offset="0.00561773" stop-color="#534741"/>
<stop offset="0.1684" stop-color="#5C5450"/>
<stop offset="0.4792" stop-color="#737577"/>
<stop offset="0.6742" stop-color="#838C92"/>
<stop offset="0.9793" stop-color="#333333"/>
<stop offset="0.9852" stop-color="#3E4042"/>
<stop offset="0.9965" stop-color="#5B6469"/>
<stop offset="1" stop-color="#657076"/>
</radialGradient>
<radialGradient id="paint40_radial" cx="0" cy="0" r="1" gradientUnits="userSpaceOnUse" gradientTransform="translate(529.745 209.971) scale(24.2179)">
<stop offset="0.7777" stop-color="#1A1A1A"/>
<stop offset="0.8882" stop-color="#333333"/>
<stop offset="1"/>
</radialGradient>
<radialGradient id="paint41_radial" cx="0" cy="0" r="1" gradientUnits="userSpaceOnUse" gradientTransform="translate(529.665 209.891) scale(18.1836)">
<stop stop-color="#8D8C8C"/>
<stop offset="0.0810056" stop-color="#898989"/>
<stop offset="0.1659" stop-color="#808080"/>
<stop offset="0.2687" stop-color="#868686"/>
<stop offset="0.3295" stop-color="#A4A4A4"/>
<stop offset="0.3447" stop-color="#ACACAC"/>
<stop offset="0.5274" stop-color="#B3B3B3"/>
<stop offset="0.5715" stop-color="#A4A4A4"/>
<stop offset="0.6558" stop-color="#7D7D7D"/>
<stop offset="0.7012" stop-color="#666666"/>
<stop offset="0.7387" stop-color="#6F6F70"/>
<stop offset="0.8018" stop-color="#88898A"/>
<stop offset="0.8676" stop-color="#A8AAAC"/>
<stop offset="0.927" stop-color="#7E8486"/>
<stop offset="1" stop-color="#465053"/>
</radialGradient>
<radialGradient id="paint42_radial" cx="0" cy="0" r="1" gradientUnits="userSpaceOnUse" gradientTransform="translate(529.54 202.081) rotate(2.29628) scale(1.47197)">
<stop offset="0.00561773" stop-color="#534741"/>
<stop offset="0.1684" stop-color="#5C5450"/>
<stop offset="0.4792" stop-color="#737577"/>
<stop offset="0.6742" stop-color="#838C92"/>
<stop offset="0.9793" stop-color="#333333"/>
<stop offset="0.9852" stop-color="#3E4042"/>
<stop offset="0.9965" stop-color="#5B6469"/>
<stop offset="1" stop-color="#657076"/>
</radialGradient>
<radialGradient id="paint43_radial" cx="0" cy="0" r="1" gradientUnits="userSpaceOnUse" gradientTransform="translate(529.54 217.851) rotate(2.29628) scale(1.47197)">
<stop offset="0.00561773" stop-color="#534741"/>
<stop offset="0.1684" stop-color="#5C5450"/>
<stop offset="0.4792" stop-color="#737577"/>
<stop offset="0.6742" stop-color="#838C92"/>
<stop offset="0.9793" stop-color="#333333"/>
<stop offset="0.9852" stop-color="#3E4042"/>
<stop offset="0.9965" stop-color="#5B6469"/>
<stop offset="1" stop-color="#657076"/>
</radialGradient>
<radialGradient id="paint44_radial" cx="0" cy="0" r="1" gradientUnits="userSpaceOnUse" gradientTransform="translate(523.854 204.402) rotate(-42.7023) scale(1.47199)">
<stop offset="0.00561773" stop-color="#534741"/>
<stop offset="0.1684" stop-color="#5C5450"/>
<stop offset="0.4792" stop-color="#737577"/>
<stop offset="0.6742" stop-color="#838C92"/>
<stop offset="0.9793" stop-color="#333333"/>
<stop offset="0.9852" stop-color="#3E4042"/>
<stop offset="0.9965" stop-color="#5B6469"/>
<stop offset="1" stop-color="#657076"/>
</radialGradient>
<radialGradient id="paint45_radial" cx="0" cy="0" r="1" gradientUnits="userSpaceOnUse" gradientTransform="translate(535.005 215.553) rotate(-42.7025) scale(1.47198)">
<stop offset="0.00561773" stop-color="#534741"/>
<stop offset="0.1684" stop-color="#5C5450"/>
<stop offset="0.4792" stop-color="#737577"/>
<stop offset="0.6742" stop-color="#838C92"/>
<stop offset="0.9793" stop-color="#333333"/>
<stop offset="0.9852" stop-color="#3E4042"/>
<stop offset="0.9965" stop-color="#5B6469"/>
<stop offset="1" stop-color="#657076"/>
</radialGradient>
<radialGradient id="paint46_radial" cx="0" cy="0" r="1" gradientUnits="userSpaceOnUse" gradientTransform="translate(521.544 209.976) rotate(-87.7037) scale(1.47197)">
<stop offset="0.00561773" stop-color="#534741"/>
<stop offset="0.1684" stop-color="#5C5450"/>
<stop offset="0.4792" stop-color="#737577"/>
<stop offset="0.6742" stop-color="#838C92"/>
<stop offset="0.9793" stop-color="#333333"/>
<stop offset="0.9852" stop-color="#3E4042"/>
<stop offset="0.9965" stop-color="#5B6469"/>
<stop offset="1" stop-color="#657076"/>
</radialGradient>
<radialGradient id="paint47_radial" cx="0" cy="0" r="1" gradientUnits="userSpaceOnUse" gradientTransform="translate(537.314 209.976) rotate(-87.7037) scale(1.47197)">
<stop offset="0.00561773" stop-color="#534741"/>
<stop offset="0.1684" stop-color="#5C5450"/>
<stop offset="0.4792" stop-color="#737577"/>
<stop offset="0.6742" stop-color="#838C92"/>
<stop offset="0.9793" stop-color="#333333"/>
<stop offset="0.9852" stop-color="#3E4042"/>
<stop offset="0.9965" stop-color="#5B6469"/>
<stop offset="1" stop-color="#657076"/>
</radialGradient>
<radialGradient id="paint48_radial" cx="0" cy="0" r="1" gradientUnits="userSpaceOnUse" gradientTransform="translate(523.854 215.551) rotate(-132.702) scale(1.47199)">
<stop offset="0.00561773" stop-color="#534741"/>
<stop offset="0.1684" stop-color="#5C5450"/>
<stop offset="0.4792" stop-color="#737577"/>
<stop offset="0.6742" stop-color="#838C92"/>
<stop offset="0.9793" stop-color="#333333"/>
<stop offset="0.9852" stop-color="#3E4042"/>
<stop offset="0.9965" stop-color="#5B6469"/>
<stop offset="1" stop-color="#657076"/>
</radialGradient>
<radialGradient id="paint49_radial" cx="0" cy="0" r="1" gradientUnits="userSpaceOnUse" gradientTransform="translate(535.005 204.4) rotate(-132.702) scale(1.47199)">
<stop offset="0.00561773" stop-color="#534741"/>
<stop offset="0.1684" stop-color="#5C5450"/>
<stop offset="0.4792" stop-color="#737577"/>
<stop offset="0.6742" stop-color="#838C92"/>
<stop offset="0.9793" stop-color="#333333"/>
<stop offset="0.9852" stop-color="#3E4042"/>
<stop offset="0.9965" stop-color="#5B6469"/>
<stop offset="1" stop-color="#657076"/>
</radialGradient>
</defs>
</svg>
